<svg xmlns="http://www.w3.org/2000/svg" class="min-w-full" width="600" height="220"><g transform="translate(60,20)"><line x1="0" y1="30" x2="520" y2="30" stroke="#4B5563" stroke-width="2" class="qubit-line"/><text x="-10" y="35" text-anchor="end" fill="#9CA3AF" font-family="monospace" font-size="14px" class="qubit-label">q0</text><line x1="0" y1="90" x2="520" y2="90" stroke="#4B5563" stroke-width="2" class="qubit-line"/><text x="-10" y="95" text-anchor="end" fill="#9CA3AF" font-family="monospace" font-size="14px" class="qubit-label">q1</text><line x1="0" y1="150" x2="520" y2="150" stroke="#4B5563" stroke-width="2" class="qubit-line"/><text x="-10" y="155" text-anchor="end" fill="#9CA3AF" font-family="monospace" font-size="14px" class="qubit-label">q2</text><g class="gate-group" data-gate-index="0" data-gate-type="h" style="cursor: pointer;"><rect x="25" y="15" width="30" height="30" fill="#3B82F6" stroke="#1D4ED8" stroke-width="2" rx="4" class="gate-element"/><text x="40" y="35" text-anchor="middle" fill="white" font-family="monospace" font-size="14px" font-weight="bold">H</text></g><g class="gate-group" data-gate-index="1" data-gate-type="h" style="cursor: pointer;"><rect x="25" y="75" width="30" height="30" fill="#3B82F6" stroke="#1D4ED8" stroke-width="2" rx="4" class="gate-element"/><text x="40" y="95" text-anchor="middle" fill="white" font-family="monospace" font-size="14px" font-weight="bold">H</text></g><g class="gate-group" data-gate-index="2" data-gate-type="cx" style="cursor: pointer;"><circle cx="120" cy="90" r="6" fill="#1e1e1e" stroke="#6B7280" stroke-width="2" class="gate-element"/><line x1="120" y1="90" x2="120" y2="150" stroke="#6B7280" stroke-width="2"/><circle cx="120" cy="150" r="15" fill="none" stroke="#6B7280" stroke-width="2" class="gate-element"/><line x1="112" y1="142" x2="128" y2="158" stroke="#6B7280" stroke-width="2"/><line x1="112" y1="158" x2="128" y2="142" stroke="#6B7280" stroke-width="2"/></g><g class="gate-group" data-gate-index="3" data-gate-type="cx" style="cursor: pointer;"><circle cx="200" cy="30" r="6" fill="#1e1e1e" stroke="#6B7280" stroke-width="2" class="gate-element"/><line x1="200" y1="30" x2="200" y2="90" stroke="#6B7280" stroke-width="2"/><circle cx="200" cy="90" r="15" fill="none" stroke="#6B7280" stroke-width="2" class="gate-element"/><line x1="192" y1="82" x2="208" y2="98" stroke="#6B7280" stroke-width="2"/><line x1="192" y1="98" x2="208" y2="82" stroke="#6B7280" stroke-width="2"/></g><g class="gate-group" data-gate-index="4" data-gate-type="h" style="cursor: pointer;"><rect x="265" y="15" width="30" height="30" fill="#3B82F6" stroke="#1D4ED8" stroke-width="2" rx="4" class="gate-element"/><text x="280" y="35" text-anchor="middle" fill="white" font-family="monospace" font-size="14px" font-weight="bold">H</text></g><g class="gate-group" data-gate-index="5" data-gate-type="measure" style="cursor: pointer;"><rect x="345" y="15" width="30" height="30" fill="#6B7280" stroke="#4B5563" stroke-width="2" rx="4" class="gate-element"/><path d="M 352 35 A 8 8 0 0 1 368 35" fill="none" stroke="white" stroke-width="2"/><line x1="360" y1="35" x2="365" y2="27" stroke="white" stroke-width="2"/><text x="360" y="24" text-anchor="middle" fill="white" font-family="monospace" font-size="8px" font-weight="bold">M</text></g><g class="gate-group" data-gate-index="6" data-gate-type="measure" style="cursor: pointer;"><rect x="265" y="75" width="30" height="30" fill="#6B7280" stroke="#4B5563" stroke-width="2" rx="4" class="gate-element"/><path d="M 272 95 A 8 8 0 0 1 288 95" fill="none" stroke="white" stroke-width="2"/><line x1="280" y1="95" x2="285" y2="87" stroke="white" stroke-width="2"/><text x="280" y="84" text-anchor="middle" fill="white" font-family="monospace" font-size="8px" font-weight="bold">M</text></g><g class="gate-group" data-gate-index="7" data-gate-type="x" style="cursor: pointer;"><circle cx="200" cy="150" r="15" fill="#EF4444" stroke="#DC2626" stroke-width="2" class="gate-element"/><text x="200" y="155" text-anchor="middle" fill="white" font-family="monospace" font-size="14px" font-weight="bold">X</text></g><g class="gate-group" data-gate-index="8" data-gate-type="z" style="cursor: pointer;"><circle cx="280" cy="150" r="15" fill="#8B5CF6" stroke="#7C3AED" stroke-width="2" class="gate-element"/><text x="280" y="155" text-anchor="middle" fill="white" font-family="monospace" font-size="14px" font-weight="bold">Z</text></g><g class="gate-group" data-gate-index="9" data-gate-type="measure" style="cursor: pointer;"><rect x="345" y="135" width="30" height="30" fill="#6B7280" stroke="#4B5563" stroke-width="2" rx="4" class="gate-element"/><path d="M 352 155 A 8 8 0 0 1 368 155" fill="none" stroke="white" stroke-width="2"/><line x1="360" y1="155" x2="365" y2="147" stroke="white" stroke-width="2"/><text x="360" y="144" text-anchor="middle" fill="white" font-family="monospace" font-size="8px" font-weight="bold">M</text></g></g></svg>