<?xml version="1.0" encoding="UTF-8"?>
<svg width="800px" height="800px" viewBox="0 0 25 25" xmlns="http://www.w3.org/2000/svg">
  <path d="M20.396,22.4 C19.614,23.18 18.347,23.18 17.564,22.4 L10.484,15.32 L3.404,22.4 C2.622,23.18 1.354,23.18 0.572,22.4 C-0.21,21.61 -0.21,20.35 0.572,19.56 L7.652,12.48 L0.572,5.4 C-0.21,4.62 -0.21,3.35 0.572,2.57 C1.354,1.79 2.622,1.79 3.404,2.57 L10.484,9.65 L17.564,2.57 C18.347,1.79 19.614,1.79 20.396,2.57 C21.179,3.35 21.179,4.62 20.396,5.4 L13.316,12.48 L20.396,19.56 C21.179,20.35 21.179,21.61 20.396,22.4 L20.396,22.4 Z"
    transform="translate(1 1)"
    fill="#000000"
    fill-opacity="0"
    stroke="#000000"
    stroke-width="1"
    stroke-linecap="round"
    stroke-linejoin="round"
    stroke-dasharray="170"
    stroke-dashoffset="170">
    <animate fill="freeze" attributeName="stroke-dashoffset" begin="0.00s" dur="0.70s" to="0" />
    <animate fill="freeze" attributeName="fill-opacity" begin="0.54s" dur="0.16s" to="1" />
  </path>
</svg>
