<?xml version="1.0" encoding="UTF-8"?>
<svg width="800px" height="800px" viewBox="0 0 25 25" xmlns="http://www.w3.org/2000/svg">
  <path d="M18.148,14.48 L23.813,8.82 C25.376,7.26 25.376,4.72 23.813,3.16 C22.248,1.59 19.712,1.59 18.148,3.16 L12.484,8.82 L6.82,3.16 C5.257,1.59 2.721,1.59 1.156,3.16 C-0.407,4.72 -0.407,7.26 1.156,8.82 L6.82,14.48 L1.156,20.15 C-0.407,21.71 -0.407,24.25 1.156,25.81 C2.721,27.38 5.257,27.38 6.82,25.81 L12.484,20.15 L18.148,25.81 C19.712,27.38 22.248,27.38 23.813,25.81 C25.376,24.25 25.376,21.71 23.813,20.15 L18.148,14.48"
    transform="translate(0 -1)"
    fill="#000000"
    fill-opacity="0"
    stroke="#000000"
    stroke-width="1"
    stroke-linecap="round"
    stroke-linejoin="round"
    stroke-dasharray="180"
    stroke-dashoffset="180">
    <animate fill="freeze" attributeName="stroke-dashoffset" begin="0.00s" dur="0.70s" to="0" />
    <animate fill="freeze" attributeName="fill-opacity" begin="0.54s" dur="0.16s" to="1" />
  </path>
</svg>
