<?xml version="1.0" encoding="utf-8"?>
<svg width="800px" height="800px" viewBox="0 0 24 24" fill="none" xmlns="http://www.w3.org/2000/svg">
  <path d="M22 8L22.7071 7.29289L23.4142 8L22.7071 8.70711L22 8ZM3 9C2.44772 9 2 8.55228 2 8C2 7.44772 2.44772 7 3 7V9ZM18.7071 3.29289L22.7071 7.29289L21.2929 8.70711L17.2929 4.70711L18.7071 3.29289ZM22.7071 8.70711L18.7071 12.7071L17.2929 11.2929L21.2929 7.29289L22.7071 8.70711ZM22 9H3V7H22V9Z"
    fill="#33363F"
    fill-opacity="0"
    stroke="#33363F"
    stroke-width="1"
    stroke-linecap="round"
    stroke-linejoin="round"
    stroke-dasharray="70"
    stroke-dashoffset="70">
    <animate fill="freeze" attributeName="stroke-dashoffset" begin="0.00s" dur="0.52s" to="0" />
    <animate fill="freeze" attributeName="fill-opacity" begin="0.40s" dur="0.12s" to="1" />
  </path>

  <path d="M2 16L1.29289 15.2929L0.585786 16L1.29289 16.7071L2 16ZM11 17C11.5523 17 12 16.5523 12 16C12 15.4477 11.5523 15 11 15L11 17ZM5.29289 11.2929L1.29289 15.2929L2.70711 16.7071L6.70711 12.7071L5.29289 11.2929ZM1.29289 16.7071L5.29289 20.7071L6.70711 19.2929L2.70711 15.2929L1.29289 16.7071ZM2 17L11 17L11 15L2 15L2 17Z"
    fill="#33363F"
    fill-opacity="0"
    stroke="#33363F"
    stroke-width="1"
    stroke-linecap="round"
    stroke-linejoin="round"
    stroke-dasharray="70"
    stroke-dashoffset="70">
    <animate fill="freeze" attributeName="stroke-dashoffset" begin="0.42s" dur="0.52s" to="0" />
    <animate fill="freeze" attributeName="fill-opacity" begin="0.82s" dur="0.12s" to="1" />
  </path>
</svg>
