<?xml version="1.0" encoding="utf-8"?>
<svg width="800px" height="800px" viewBox="0 -1 16 20" fill="none" xmlns="http://www.w3.org/2000/svg">
  <path clip-rule="evenodd" fill-rule="evenodd" d="M2 6V6.29266C2 7.72154 2.4863 9.10788 3.37892 10.2236L8 16L12.6211 10.2236C13.5137 9.10788 14 7.72154 14 6.29266V6C14 2.68629 11.3137 0 8 0C4.68629 0 2 2.68629 2 6ZM8 8C9.10457 8 10 7.10457 10 6C10 4.89543 9.10457 4 8 4C6.89543 4 6 4.89543 6 6C6 7.10457 6.89543 8 8 8Z"
    fill="#030708" fill-opacity="0" stroke="#030708" stroke-width="0.7" stroke-linecap="round" stroke-linejoin="round"
    stroke-dasharray="70" stroke-dashoffset="70">
    <animate fill="freeze" attributeName="stroke-dashoffset" begin="0.00s" dur="0.56s" to="0" />
    <animate fill="freeze" attributeName="fill-opacity" begin="0.40s" dur="0.16s" to="1" />
  </path>
</svg>
