<?xml version="1.0" encoding="utf-8"?>
<svg fill="#000000" width="800px" height="800px" viewBox="0 0 24 24" xmlns="http://www.w3.org/2000/svg">
  <path d="M2,20a2,2,0,0,0,2,2h6.81a6,6,0,0,1,4-8.88,5.91,5.91,0,0,1,3.17.23V5a1,1,0,0,0-.29-.7l-2-2A1,1,0,0,0,15,2H4A2,2,0,0,0,2,4Z"
    fill="#000000"
    fill-opacity="0"
    stroke="#000000"
    stroke-width="1"
    stroke-linecap="round"
    stroke-linejoin="round"
    stroke-dasharray="120"
    stroke-dashoffset="120">
    <animate fill="freeze" attributeName="stroke-dashoffset" begin="0.00s" dur="0.56s" to="0" />
    <animate fill="freeze" attributeName="fill-opacity" begin="0.42s" dur="0.14s" to="1" />
  </path>

  <path d="M19,22a1,1,0,0,1-.71-.29,1,1,0,0,1,0-1.42L19.59,19l-1.3-1.29a1,1,0,0,1,1.42-1.42l2,2a1,1,0,0,1,0,1.42l-2,2A1,1,0,0,1,19,22Zm-3.29-.29a1,1,0,0,0,0-1.42L14.41,19l1.3-1.29a1,1,0,0,0-1.42-1.42l-2,2a1,1,0,0,0,0,1.42l2,2a1,1,0,0,0,1.42,0ZM15,4a1,1,0,0,0,1,1h2a1,1,0,0,0-.28-.71l-2-2A1,1,0,0,0,15,2Zm-4,8a1,1,0,0,0-1-1H6a1,1,0,0,0,0,2h4A1,1,0,0,0,11,12Zm4-4a1,1,0,0,0-1-1H6A1,1,0,0,0,6,9h8A1,1,0,0,0,15,8Z"
    fill="#2CA9BC"
    fill-opacity="0"
    stroke="#2CA9BC"
    stroke-width="1"
    stroke-linecap="round"
    stroke-linejoin="round"
    stroke-dasharray="190"
    stroke-dashoffset="190">
    <animate fill="freeze" attributeName="stroke-dashoffset" begin="0.40s" dur="0.56s" to="0" />
    <animate fill="freeze" attributeName="fill-opacity" begin="0.82s" dur="0.14s" to="1" />
  </path>
</svg>
