<?xml version="1.0" encoding="utf-8"?>
<svg width="800px" height="800px" viewBox="0 0 24 24" fill="none" xmlns="http://www.w3.org/2000/svg">
  <path opacity="0.1" d="M3 6C3 7.65685 4.34315 9 6 9C7.65685 9 9 7.65685 9 6C9 4.34315 7.65685 3 6 3C4.34315 3 3 4.34315 3 6Z"
    fill="#323232"
    fill-opacity="0">
    <animate fill="freeze" attributeName="fill-opacity" begin="0.36s" dur="0.12s" to="0.1" />
  </path>
  <path opacity="0.1" d="M3 18C3 19.6569 4.34315 21 6 21C7.65685 21 9 19.6569 9 18C9 16.3431 7.65685 15 6 15C4.34315 15 3 16.3431 3 18Z"
    fill="#323232"
    fill-opacity="0">
    <animate fill="freeze" attributeName="fill-opacity" begin="0.52s" dur="0.12s" to="0.1" />
  </path>
  <path opacity="0.1" d="M15 6C15 7.65685 16.3431 9 18 9C19.6569 9 21 7.65685 21 6C21 4.34315 19.6569 3 18 3C16.3431 3 15 4.34315 15 6Z"
    fill="#323232"
    fill-opacity="0">
    <animate fill="freeze" attributeName="fill-opacity" begin="0.68s" dur="0.12s" to="0.1" />
  </path>

  <path d="M3 6C3 7.65685 4.34315 9 6 9C7.65685 9 9 7.65685 9 6C9 4.34315 7.65685 3 6 3C4.34315 3 3 4.34315 3 6Z"
    fill="none"
    stroke="#323232"
    stroke-width="2"
    stroke-dasharray="24"
    stroke-dashoffset="24">
    <animate fill="freeze" attributeName="stroke-dashoffset" begin="0.00s" dur="0.32s" to="0" />
  </path>
  <path d="M3 18C3 19.6569 4.34315 21 6 21C7.65685 21 9 19.6569 9 18C9 16.3431 7.65685 15 6 15C4.34315 15 3 16.3431 3 18Z"
    fill="none"
    stroke="#323232"
    stroke-width="2"
    stroke-dasharray="24"
    stroke-dashoffset="24">
    <animate fill="freeze" attributeName="stroke-dashoffset" begin="0.24s" dur="0.32s" to="0" />
  </path>
  <path d="M15 6C15 7.65685 16.3431 9 18 9C19.6569 9 21 7.65685 21 6C21 4.34315 19.6569 3 18 3C16.3431 3 15 4.34315 15 6Z"
    fill="none"
    stroke="#323232"
    stroke-width="2"
    stroke-dasharray="24"
    stroke-dashoffset="24">
    <animate fill="freeze" attributeName="stroke-dashoffset" begin="0.48s" dur="0.32s" to="0" />
  </path>
  <path d="M6 15V9"
    fill="none"
    stroke="#323232"
    stroke-width="2"
    stroke-linecap="round"
    stroke-linejoin="round"
    stroke-dasharray="10"
    stroke-dashoffset="10">
    <animate fill="freeze" attributeName="stroke-dashoffset" begin="0.64s" dur="0.18s" to="0" />
  </path>
  <path d="M18 9V12.3242C18 16.9982 16.9424 18 12.008 18H9"
    fill="none"
    stroke="#323232"
    stroke-width="2"
    stroke-linecap="round"
    stroke-dasharray="26"
    stroke-dashoffset="26">
    <animate fill="freeze" attributeName="stroke-dashoffset" begin="0.76s" dur="0.30s" to="0" />
  </path>
</svg>
