<?xml version="1.0" encoding="utf-8"?>
<svg version="1.0" xmlns="http://www.w3.org/2000/svg" width="800px" height="800px" viewBox="0 0 64 64" xml:space="preserve">
  <g>
    <circle cx="40" cy="55" r="1"
      fill="#231F20"
      fill-opacity="0"
      stroke="#231F20"
      stroke-width="0.6"
      stroke-dasharray="8"
      stroke-dashoffset="8">
      <animate fill="freeze" attributeName="stroke-dashoffset" begin="0.78s" dur="0.18s" to="0" />
      <animate fill="freeze" attributeName="fill-opacity" begin="0.90s" dur="0.06s" to="1" />
    </circle>
    <circle cx="24" cy="55" r="1"
      fill="#231F20"
      fill-opacity="0"
      stroke="#231F20"
      stroke-width="0.6"
      stroke-dasharray="8"
      stroke-dashoffset="8">
      <animate fill="freeze" attributeName="stroke-dashoffset" begin="0.82s" dur="0.18s" to="0" />
      <animate fill="freeze" attributeName="fill-opacity" begin="0.94s" dur="0.06s" to="1" />
    </circle>
    <circle cx="32" cy="55" r="1"
      fill="#231F20"
      fill-opacity="0"
      stroke="#231F20"
      stroke-width="0.6"
      stroke-dasharray="8"
      stroke-dashoffset="8">
      <animate fill="freeze" attributeName="stroke-dashoffset" begin="0.86s" dur="0.18s" to="0" />
      <animate fill="freeze" attributeName="fill-opacity" begin="0.98s" dur="0.06s" to="1" />
    </circle>
    <path d="M12,60c0,2.211,1.789,4,4,4h32c2.211,0,4-1.789,4-4V38H12V60z M40,52c1.657,0,3,1.344,3,3s-1.343,3-3,3
      s-3-1.344-3-3S38.343,52,40,52z M32,52c1.657,0,3,1.344,3,3s-1.343,3-3,3s-3-1.344-3-3S30.343,52,32,52z M24,52
      c1.657,0,3,1.344,3,3s-1.343,3-3,3s-3-1.344-3-3S22.343,52,24,52z"
      fill="#231F20"
      fill-opacity="0"
      stroke="#231F20"
      stroke-width="1"
      stroke-linecap="round"
      stroke-linejoin="round"
      stroke-dasharray="220"
      stroke-dashoffset="220">
      <animate fill="freeze" attributeName="stroke-dashoffset" begin="0.00s" dur="0.56s" to="0" />
      <animate fill="freeze" attributeName="fill-opacity" begin="0.42s" dur="0.14s" to="1" />
    </path>
    <path d="M12,24h40V14H12V24z M21,18h22c0.553,0,1,0.447,1,1s-0.447,1-1,1H21c-0.553,0-1-0.447-1-1S20.447,18,21,18z"
      fill="#231F20"
      fill-opacity="0"
      stroke="#231F20"
      stroke-width="1"
      stroke-linecap="round"
      stroke-linejoin="round"
      stroke-dasharray="170"
      stroke-dashoffset="170">
      <animate fill="freeze" attributeName="stroke-dashoffset" begin="0.26s" dur="0.48s" to="0" />
      <animate fill="freeze" attributeName="fill-opacity" begin="0.62s" dur="0.12s" to="1" />
    </path>
    <path d="M12,36h40V26H12V36z M21,30h22c0.553,0,1,0.447,1,1s-0.447,1-1,1H21c-0.553,0-1-0.447-1-1S20.447,30,21,30z"
      fill="#231F20"
      fill-opacity="0"
      stroke="#231F20"
      stroke-width="1"
      stroke-linecap="round"
      stroke-linejoin="round"
      stroke-dasharray="170"
      stroke-dashoffset="170">
      <animate fill="freeze" attributeName="stroke-dashoffset" begin="0.40s" dur="0.46s" to="0" />
      <animate fill="freeze" attributeName="fill-opacity" begin="0.74s" dur="0.12s" to="1" />
    </path>
    <path d="M48,0H16c-2.211,0-4,1.789-4,4v8h40V4C52,1.789,50.211,0,48,0z M43,8H21c-0.553,0-1-0.447-1-1s0.447-1,1-1
      h22c0.553,0,1,0.447,1,1S43.553,8,43,8z"
      fill="#231F20"
      fill-opacity="0"
      stroke="#231F20"
      stroke-width="1"
      stroke-linecap="round"
      stroke-linejoin="round"
      stroke-dasharray="170"
      stroke-dashoffset="170">
      <animate fill="freeze" attributeName="stroke-dashoffset" begin="0.12s" dur="0.50s" to="0" />
      <animate fill="freeze" attributeName="fill-opacity" begin="0.50s" dur="0.12s" to="1" />
    </path>
  </g>
</svg>
