<?xml version="1.0" encoding="iso-8859-1"?>
<!DOCTYPE svg PUBLIC "-//W3C//DTD SVG 1.1//EN" "http://www.w3.org/Graphics/SVG/1.1/DTD/svg11.dtd">
<svg fill="#000000" version="1.1" id="Capa_1" xmlns="http://www.w3.org/2000/svg" xmlns:xlink="http://www.w3.org/1999/xlink"
  width="800px" height="800px" viewBox="0 0 27.938 27.937" xml:space="preserve">
  <g>
    <path d="M25.643,7.633h-1.166l-2.823-4.891l-8.47,4.891h-3.104c-0.161,0-0.297-0.136-0.297-0.297V6.039 c0-1.267-1.03-2.297-2.297-2.297H2.297C1.03,3.742,0,4.771,0,6.039v16.86c0,1.267,1.03,2.297,2.297,2.297h23.343 c1.268,0,2.297-1.03,2.297-2.297V9.93C27.939,8.663,26.908,7.633,25.643,7.633z M25.939,22.899c0,0.161-0.137,0.297-0.297,0.297 H2.298c-0.161,0-0.297-0.136-0.297-0.297V6.039c0-0.161,0.136-0.297,0.297-0.297h5.188c0.161,0,0.297,0.136,0.297,0.297v1.297 c0,1.267,1.03,2.297,2.297,2.297h15.562c0.162,0,0.298,0.136,0.298,0.297L25.939,22.899L25.939,22.899z"
      fill="#000000"
      fill-opacity="0"
      stroke="#000000"
      stroke-width="0.7"
      stroke-linecap="round"
      stroke-linejoin="round"
      stroke-dasharray="180"
      stroke-dashoffset="180">
      <animate fill="freeze" attributeName="stroke-dashoffset" begin="0.00s" dur="0.70s" to="0" />
      <animate fill="freeze" attributeName="fill-opacity" begin="0.56s" dur="0.14s" to="1" />
    </path>
  </g>
</svg>
