<?xml version="1.0" encoding="UTF-8" standalone="no"?>
<!-- Created with Inkscape (http://www.inkscape.org/) -->

<svg
   width="12.876388mm"
   height="15.13395mm"
   viewBox="0 0 12.876388 15.13395"
   version="1.1"
   id="svg1"
   xml:space="preserve"
   inkscape:version="1.4.3 (0d15f75, 2025-12-25)"
   sodipodi:docname="cirq.svg"
   xmlns:inkscape="http://www.inkscape.org/namespaces/inkscape"
   xmlns:sodipodi="http://sodipodi.sourceforge.net/DTD/sodipodi-0.dtd"
   xmlns="http://www.w3.org/2000/svg"
   xmlns:svg="http://www.w3.org/2000/svg"><sodipodi:namedview
     id="namedview1"
     pagecolor="#ffffff"
     bordercolor="#000000"
     borderopacity="0.25"
     inkscape:showpageshadow="2"
     inkscape:pageopacity="0.0"
     inkscape:pagecheckerboard="0"
     inkscape:deskcolor="#d1d1d1"
     inkscape:document-units="mm"
     inkscape:zoom="0.71891835"
     inkscape:cx="24.342125"
     inkscape:cy="28.51506"
     inkscape:window-width="1920"
     inkscape:window-height="1009"
     inkscape:window-x="-8"
     inkscape:window-y="-8"
     inkscape:window-maximized="1"
     inkscape:current-layer="layer1" /><defs
     id="defs1" /><g
     inkscape:label="Layer 1"
     inkscape:groupmode="layer"
     id="layer1"
     transform="translate(-98.513192,-140.84657)"><g
       id="g1"><path
         style="fill:#fcd79a"
         d="m 100.15949,153.66412 c -0.0816,-0.0816 -0.0744,-6.44756 0.007,-6.49806 0.0364,-0.0225 0.0661,1.44361 0.0661,3.25799 0,1.81438 -0.003,3.29887 -0.007,3.29887 -0.004,0 -0.0338,-0.0265 -0.0661,-0.0588 z m 1.76389,-0.97014 c -0.0814,-0.0814 -0.0744,-1.6169 0.007,-1.6169 0.0364,0 0.0661,0.37703 0.0661,0.83785 0,0.46082 -0.003,0.83785 -0.007,0.83785 -0.004,0 -0.0338,-0.0265 -0.0661,-0.0588 z m 2.23426,-9.73078 c -0.0795,-0.0514 -0.0904,-0.086 -0.0273,-0.0868 0.0578,-7.4e-4 0.12957,0.0383 0.15955,0.0868 0.0677,0.10949 0.0371,0.10949 -0.13229,0 z"
         id="path6" /><path
         style="fill:#fea856"
         d="m 104.79705,155.95042 c 0.37592,-0.0165 0.99108,-0.0165 1.36701,0 0.37593,0.0165 0.0683,0.0301 -0.68351,0.0301 -0.75186,0 -1.05943,-0.0135 -0.6835,-0.0301 z m -3.24506,-3.13192 c -0.0234,-0.0609 -0.032,-1.53923 -0.0192,-3.28524 l 0.0233,-3.17458 0.044,3.28528 c 0.0242,1.8069 0.0329,3.28526 0.0192,3.28524 -0.0136,-2e-5 -0.0439,-0.0498 -0.0673,-0.1107 z"
         id="path5" /><path
         style="fill:#fabf2c"
         d="m 104.74638,154.27686 -2.79361,-1.64056 v -0.74072 c 0,-0.40739 0.0298,-0.72393 0.0661,-0.70341 0.0364,0.0205 1.28409,0.73994 2.77268,1.59872 2.47615,1.42852 2.72388,1.55216 2.91041,1.45255 0.11214,-0.0599 0.9664,-0.55869 1.89836,-1.10845 0.93196,-0.54977 1.71733,-0.99957 1.74527,-0.99957 0.0279,0 0.0393,0.34434 0.0253,0.7652 l -0.0255,0.7652 -1.76389,1.0462 c -0.97013,0.57541 -1.82637,1.08202 -1.90275,1.1258 -0.10365,0.0594 -0.84716,-0.33636 -2.93246,-1.56096 z m -5.593779,-1.27699 -0.639409,-0.3686 v -3.15405 -3.15404 l 2.815038,-1.6882 2.81504,-1.6882 0.63449,0.37695 c 0.51357,0.3051 0.60945,0.39491 0.50311,0.47122 -0.0723,0.0519 -1.32536,0.78882 -2.78466,1.63769 l -2.653284,1.5434 -0.02546,3.19622 -0.02546,3.19622 z"
         id="path4" /><path
         style="fill:#6a8bc3"
         d="m 107.19515,153.76215 c -0.16439,-0.13171 -0.16331,-0.13334 0.0272,-0.041 0.10914,0.0529 0.19844,0.11461 0.19844,0.13716 0,0.0675 -0.0457,0.048 -0.22568,-0.0962 z m -0.61736,-0.35278 c -0.1644,-0.13171 -0.16331,-0.13334 0.0272,-0.041 0.10914,0.0529 0.19844,0.11461 0.19844,0.13715 0,0.0675 -0.0457,0.048 -0.22568,-0.0962 z m -0.34382,-0.20953 c -0.0279,-0.0452 -0.017,-0.10294 0.0242,-0.12841 0.0412,-0.0255 0.0749,0.0115 0.0749,0.0821 0,0.14871 -0.0278,0.16171 -0.0991,0.0463 z m -1.4285,-12.28717 c -0.0225,-0.0364 0.57427,-0.0661 1.32613,-0.0661 0.75186,0 1.38541,0.0298 1.4079,0.0661 0.0225,0.0364 -0.57428,0.0662 -1.32614,0.0662 -0.75186,0 -1.38541,-0.0298 -1.40789,-0.0662 z"
         id="path3" /><path
         style="fill:#fe8108"
         d="m 102.16859,154.79452 -1.93561,-1.13325 -0.0231,-3.2151 -0.0231,-3.21509 0.64048,-0.36923 0.64048,-0.36922 0.0231,3.16419 0.0231,3.16419 2.44631,1.43678 c 1.34547,0.79023 2.52459,1.48925 2.62027,1.55338 0.14803,0.0992 -0.0236,0.11661 -1.1512,0.11661 h -1.32516 z m -3.655398,-9.71403 v -0.78578 l 2.808088,-1.68404 2.80809,-1.68403 3.49381,2.05456 c 1.9216,1.13001 3.49562,2.07461 3.49782,2.09912 0.002,0.0245 -0.26997,0.20937 -0.60482,0.41081 l -0.60882,0.36626 -2.88123,-1.66758 c -1.58467,-0.91717 -2.89546,-1.66759 -2.91285,-1.66759 -0.0174,0 -1.28454,0.75242 -2.81586,1.67203 l -2.784228,1.67203 z"
         id="path2" /><path
         style="fill:#3864af"
         d="m 106.85734,153.52455 c -0.56429,-0.33371 -0.59571,-0.36801 -0.44097,-0.48139 0.35274,-0.25846 3.37437,-1.96608 3.47897,-1.96608 0.0606,0 0.36873,0.14454 0.68462,0.3212 0.53664,0.3001 0.56326,0.32931 0.40535,0.44481 -0.22362,0.16358 -3.45254,2.05843 -3.49072,2.04849 -0.0163,-0.004 -0.30308,-0.16941 -0.63725,-0.36703 z m 1.28157,-10.64713 c -1.71511,-1.01428 -3.14055,-1.86632 -3.16765,-1.89342 -0.0271,-0.0271 0.52289,-0.0491 1.2222,-0.0489 l 1.27147,3.5e-4 1.96232,1.15408 1.96233,1.15407 v 0.74175 c 0,0.40797 -0.0298,0.74051 -0.0661,0.739 -0.0364,-0.002 -1.46941,-0.83263 -3.18452,-1.84691 z"
         id="path1" /></g></g></svg>
