<?xml version="1.0" encoding="UTF-8" standalone="no"?>
<!-- Created with Inkscape (http://www.inkscape.org/) -->

<svg
   width="84.457161mm"
   height="84.413551mm"
   viewBox="0 0 84.457161 84.413551"
   version="1.1"
   id="svg1"
   xml:space="preserve"
   inkscape:version="1.4.3 (0d15f75, 2025-12-25)"
   sodipodi:docname="qiskit.svg"
   xmlns:inkscape="http://www.inkscape.org/namespaces/inkscape"
   xmlns:sodipodi="http://sodipodi.sourceforge.net/DTD/sodipodi-0.dtd"
   xmlns="http://www.w3.org/2000/svg"
   xmlns:svg="http://www.w3.org/2000/svg"><sodipodi:namedview
     id="namedview1"
     pagecolor="#ffffff"
     bordercolor="#000000"
     borderopacity="0.25"
     inkscape:showpageshadow="2"
     inkscape:pageopacity="0.0"
     inkscape:pagecheckerboard="0"
     inkscape:deskcolor="#d1d1d1"
     inkscape:document-units="mm"
     inkscape:zoom="0.71891835"
     inkscape:cx="159.96253"
     inkscape:cy="159.26704"
     inkscape:window-width="1920"
     inkscape:window-height="1009"
     inkscape:window-x="-8"
     inkscape:window-y="-8"
     inkscape:window-maximized="1"
     inkscape:current-layer="layer1" /><defs
     id="defs1" /><g
     inkscape:label="Layer 1"
     inkscape:groupmode="layer"
     id="layer1"
     transform="translate(-62.467063,-106.19434)"><path
       style="fill:#000000"
       d="M 99.659724,190.38805 C 80.152426,187.72891 65.469227,173.07091 62.817648,153.6092 c -1.64682,-12.08711 2.579318,-24.99133 11.178268,-34.13207 10.502725,-11.16446 26.255934,-15.75347 41.158584,-11.98976 15.78085,3.98551 27.68412,16.54254 31.12077,32.83 0.85878,4.07008 0.86651,12.12461 0.0155,16.14501 -1.79776,8.49299 -5.64016,15.704 -11.51481,21.60979 -6.19188,6.22471 -13.60196,10.19573 -22.06714,11.82566 -3.58271,0.68983 -9.85591,0.9255 -13.049086,0.49022 z m 11.268346,-3.49407 c 1.52511,-0.7383 2.24308,-1.73729 1.78327,-2.48128 -0.44383,-0.71812 -2.9435,-1.73195 -5.26854,-2.13684 -3.79124,-0.66022 -8.468544,0.25114 -10.07724,1.96352 -0.685974,0.73018 -0.737466,0.94507 -0.340947,1.42285 1.363621,1.64306 4.072057,2.28767 8.892657,2.11644 2.61849,-0.093 3.80994,-0.30337 5.0108,-0.88469 z m -16.853994,-1.77536 c 0,-1.5016 0.680996,-2.58967 2.230736,-3.56421 0.738176,-0.46419 1.269706,-0.96305 1.181177,-1.10857 -0.08853,-0.14552 -0.797403,-0.26459 -1.575278,-0.26459 -3.346132,0 -14.50244,-2.11953 -17.770431,-3.37612 l -0.705555,-0.27129 0.705555,0.80836 c 1.978607,2.26689 7.554004,5.83115 11.915713,7.61752 3.664207,1.50069 4.018083,1.51469 4.018083,0.1589 z m 24.544014,0.22518 c 4.45062,-1.67521 8.90667,-4.37797 12.79163,-7.7586 l 1.41111,-1.22792 -3.32529,0.98054 c -2.46285,0.72623 -3.39305,1.16373 -3.58657,1.68687 -0.79357,2.1452 -4.04598,2.91663 -5.72731,1.35843 -0.86789,-0.80433 -1.05892,-0.83697 -3.13832,-0.53626 -1.21779,0.17611 -2.88886,0.3234 -3.71348,0.3273 -1.82303,0.009 -1.90772,0.38721 -0.26217,1.17192 1.42557,0.67981 2.64019,2.45536 2.6421,3.86226 0.002,1.17937 0.1202,1.1849 2.9083,0.13546 z m -4.26727,-7.99832 c 2.00934,-0.20149 3.92304,-0.44773 4.25266,-0.54722 1.43534,-0.43319 1.07913,-1.485 -2.77992,-8.20843 l -3.81661,-6.64949 -9.17223,-0.21201 c -5.044718,-0.1166 -10.94982,-0.44857 -13.122444,-0.7377 -3.893993,-0.51822 -3.994432,-0.51359 -7.055556,0.32536 -5.635199,1.54441 -10.137028,3.76721 -11.037539,5.44983 -1.399388,2.61478 1.146283,5.13371 7.423035,7.34507 4.478954,1.57798 8.780683,2.42741 17.08973,3.37456 2.536841,0.28918 14.885174,0.19431 18.218874,-0.13997 z m 14.2077,-2.63378 c 1.67671,-0.48589 4.08347,-1.38803 5.34835,-2.00476 2.25265,-1.09836 4.7348,-3.34867 4.7348,-4.29259 0,-0.99227 -1.68206,-2.91588 -3.50544,-4.00881 -1.8679,-1.11962 -6.80376,-2.91666 -9.90012,-3.60442 -1.4854,-0.32993 -5.26909,-0.071 -9.22241,0.6311 l -1.28491,0.2282 3.62135,6.16802 c 3.29446,5.61126 3.72445,6.18911 4.76351,6.40162 0.62819,0.12848 1.39675,0.48818 1.70791,0.79934 0.31116,0.31116 0.59334,0.56574 0.62707,0.56574 0.0337,0 1.43318,-0.39754 3.10989,-0.88344 z M 75.145211,161.02243 c 1.45326,-0.65971 2.959791,-1.32046 3.347847,-1.46834 0.808047,-0.30793 1.190308,-0.14658 -4.1571,-1.7546 -1.704322,-0.5125 -4.284009,-1.55604 -5.732639,-2.31898 -2.612626,-1.37597 -2.633872,-1.38043 -2.633872,-0.5535 0,1.06263 1.601439,6.61306 2.485058,8.61297 l 0.674577,1.52678 1.686919,-1.42243 c 0.927806,-0.78233 2.87595,-1.96219 4.32921,-2.6219 z m 65.788859,3.37202 c 1.17615,-2.89033 2.99926,-9.28186 2.99926,-10.51494 0,-0.0825 -0.75406,0.31211 -1.67569,0.87699 -2.02445,1.24081 -6.10352,2.8675 -9.36293,3.73383 -1.31756,0.3502 -2.27006,0.74362 -2.11667,0.87427 0.1534,0.13065 1.23141,0.59099 2.39557,1.02298 2.4036,0.8919 4.93791,2.42694 6.16726,3.73553 0.98792,1.05158 1.25704,1.09742 1.5932,0.27134 z m -34.1306,-5.64056 c -1.11566,-0.07 -2.94128,-0.07 -4.05694,0 -1.11566,0.07 -0.20285,0.12729 2.02847,0.12729 2.23132,0 3.14413,-0.0573 2.02847,-0.12729 z m -14.728468,-2.04532 c 2.037292,-0.27924 6.521979,-0.61404 9.965968,-0.74401 3.444,-0.12997 6.26181,-0.2789 6.26181,-0.33095 0,-0.24087 -7.91302,-13.79523 -8.344547,-14.29354 -0.355305,-0.41029 -1.428139,-0.62725 -3.921588,-0.79307 -1.887862,-0.12555 -4.861226,-0.46135 -6.607476,-0.74623 -2.968964,-0.48434 -3.40393,-0.47212 -6.702778,0.18836 -7.41533,1.48465 -14.091596,4.05482 -16.114422,6.20359 -1.589575,1.68854 -1.609963,2.65218 -0.09167,4.33275 2.141673,2.37058 7.283951,4.51788 14.853551,6.20252 3.993983,0.88888 4.075404,0.88873 10.701153,-0.0194 z m 38.199078,-0.55676 c 9.3292,-2.27316 14.5836,-5.39524 13.86937,-8.24095 -0.72736,-2.898 -7.30632,-5.94159 -17.20251,-7.95831 l -3.47623,-0.70841 -4.84694,0.70446 c -2.66581,0.38745 -7.26787,0.81208 -10.2268,0.94363 -2.95892,0.13155 -5.37986,0.30495 -5.37986,0.38535 0,0.0804 1.92624,3.46911 4.28053,7.53048 l 4.28053,7.38431 1.6285,0.0368 c 0.89567,0.0202 3.37475,0.3188 5.50905,0.66351 4.50042,0.72684 5.91205,0.63641 11.56436,-0.74084 z M 73.906947,139.48626 c 1.552222,-0.49674 3.536302,-1.0853 4.409067,-1.30792 l 1.586845,-0.40476 -2.13734,-0.80349 c -3.21446,-1.20841 -5.092144,-2.22581 -6.931507,-3.75574 l -1.661824,-1.38226 -0.502923,0.97945 c -0.786458,1.53162 -2.288872,6.54497 -2.54894,8.50546 l -0.235464,1.77502 2.599932,-1.35131 c 1.429962,-0.74321 3.869932,-1.75772 5.422154,-2.25445 z m 69.819363,2.33041 c -0.37401,-2.07033 -1.78366,-6.79605 -2.58211,-8.6563 l -0.72492,-1.68893 -0.977,1.06276 c -1.33203,1.44897 -4.63815,3.35868 -7.45918,4.30864 l -2.33727,0.78706 1.76389,0.47357 c 4.21575,1.13183 7.76969,2.437 9.97583,3.6636 1.30427,0.72515 2.41828,1.33063 2.47557,1.34549 0.0573,0.0149 -0.003,-0.56828 -0.13481,-1.29589 z m -52.549505,-5.76602 c 2.143244,-0.2124 4.241083,-0.4503 4.661864,-0.52869 0.706153,-0.13155 0.48946,-0.61787 -2.814527,-6.31661 -2.566695,-4.42706 -3.761406,-6.17409 -4.222157,-6.17409 -0.890585,0 -2.623098,-0.94032 -3.011602,-1.63453 -0.292933,-0.52345 -0.625692,-0.49072 -3.633506,0.35739 -6.370417,1.79625 -10.895763,4.61414 -10.895763,6.78467 0,2.53658 4.132825,5.08581 11.331371,6.98945 3.899503,1.03122 3.62092,1.01427 8.58432,0.52241 z m 36.705145,-0.83409 c 3.92869,-1.1249 8.71461,-3.42623 9.68145,-4.65537 0.39902,-0.50727 0.72549,-1.44303 0.72549,-2.07947 0,-0.93173 -0.31381,-1.43339 -1.61078,-2.57503 -5.23416,-4.6073 -21.58836,-7.5739 -37.081117,-6.72639 -6.775405,0.37063 -6.975487,0.41491 -7.490248,1.65765 -0.383723,0.92639 -0.159294,1.42458 3.458623,7.67741 l 3.868973,6.68673 6.991859,0.092 c 3.84552,0.0506 8.81748,0.31619 11.0488,0.59018 4.89453,0.60102 6.28811,0.51161 10.40695,-0.66773 z M 82.020836,118.95054 c 2.359305,-0.63331 3.336818,-1.07363 3.80486,-1.71393 1.182218,-1.6173 3.77816,-1.95162 5.23609,-0.67432 0.485466,0.42531 1.183686,0.43932 4.514592,0.0905 5.237342,-0.54838 19.091872,-0.23206 23.980312,0.54751 3.4329,0.54745 10.63913,2.23995 12.19201,2.8635 0.38046,0.15277 0.063,-0.28409 -0.70556,-0.97079 -3.83342,-3.42533 -8.68711,-6.26945 -13.39175,-7.84717 l -2.46944,-0.82813 -0.53661,1.449 c -0.6795,1.83485 -2.41225,2.85946 -5.80291,3.43137 -3.06443,0.51688 -8.58446,0.22979 -10.853556,-0.56448 -1.779689,-0.62296 -3.444428,-2.25227 -3.444428,-3.37113 0,-0.37317 -0.213272,-0.67849 -0.473939,-0.67849 -1.615792,0 -8.155458,3.00672 -11.520505,5.29673 -2.412329,1.64167 -5.382248,4.37133 -4.409722,4.053 0.388056,-0.12702 2.134306,-0.61447 3.880556,-1.08322 z m 28.222224,-6.90328 c 0.99882,-0.34284 1.41111,-0.68552 1.41111,-1.17286 0,-2.11463 -12.260124,-2.38452 -13.983625,-0.30783 -0.594644,0.7165 -0.0091,1.17415 2.227897,1.74128 2.295728,0.58203 8.332848,0.42995 10.344618,-0.26059 z"
       id="path1" /></g></svg>
