<svg xmlns="http://www.w3.org/2000/svg" xmlns:xlink="http://www.w3.org/1999/xlink" contentStyleType="text/css" data-diagram-type="SEQUENCE" height="1052px" preserveAspectRatio="none" style="width:868px;height:1052px;background:#FFFFFF;" version="1.1" viewBox="0 0 868 1052" width="868px" zoomAndPan="magnify"><title>User Authentication Process &#8212; System Sequence Diagram</title><defs/><g><text fill="#000000" font-family="sans-serif" font-size="14" font-weight="bold" lengthAdjust="spacing" textLength="459.792" x="200.1226" y="27.9951">User Authentication Process &#8212; System Sequence Diagram</text><rect fill="none" height="1002.7891" rx="6" ry="6" style="stroke:#181818;stroke-width:0.5;" width="168.4355" x="240.9814" y="43.2969"/><text fill="#000000" font-family="sans-serif" font-size="13" font-weight="bold" lengthAdjust="spacing" textLength="131.644" x="259.3772" y="55.3638">QCanvas Platform</text><rect fill="none" height="1002.7891" rx="6" ry="6" style="stroke:#181818;stroke-width:0.5;" width="220.9629" x="508.2275" y="43.2969"/><text fill="#000000" font-family="sans-serif" font-size="13" font-weight="bold" lengthAdjust="spacing" textLength="127.6069" x="554.9055" y="55.3638">External Systems</text><g><title>Auth Controller</title><rect fill="#FFFFFF" height="210.9297" style="stroke:#181818;stroke-width:1;" width="10" x="320.1992" y="192.8594"/></g><g><title>&lt;&lt;external&gt;&gt;</title><rect fill="#FFFFFF" height="53.2656" style="stroke:#181818;stroke-width:1;" width="10" x="613.709" y="447.7266"/></g><rect fill="none" height="483.7344" rx="6" ry="6" style="stroke:#000000;stroke-width:1.5;" width="735.1904" x="10" y="350.3906"/><rect fill="none" height="364.3984" rx="6" ry="6" style="stroke:#000000;stroke-width:1.5;" width="715.1904" x="20" y="462.7266"/><g><title>User</title><rect fill="#000000" fill-opacity="0.00000" height="848.1953" width="8" x="44.9551" y="118.5938"/><line style="stroke:#181818;stroke-width:0.5;stroke-dasharray:5.0,5.0;" x1="48" x2="48" y1="118.5938" y2="966.7891"/></g><g><title>Auth Controller</title><rect fill="#000000" fill-opacity="0.00000" height="848.1953" width="8" x="321.1992" y="118.5938"/><line style="stroke:#181818;stroke-width:0.5;stroke-dasharray:5.0,5.0;" x1="324.9814" x2="324.9814" y1="118.5938" y2="966.7891"/></g><g><title>&lt;&lt;external&gt;&gt;</title><rect fill="#000000" fill-opacity="0.00000" height="848.1953" width="8" x="614.709" y="118.5938"/><line style="stroke:#181818;stroke-width:0.5;stroke-dasharray:5.0,5.0;" x1="618.2275" x2="618.2275" y1="118.5938" y2="966.7891"/></g><g class="participant participant-head" data-participant="U"><text fill="#000000" font-family="sans-serif" font-size="14" lengthAdjust="spacing" textLength="31.9102" x="30" y="115.292">User</text><ellipse cx="48.9551" cy="50.7969" fill="#E3E3E3" rx="8" ry="8" style="stroke:#181818;stroke-width:0.5;"/><path d="M48.9551,58.7969 L48.9551,85.7969 M35.9551,66.7969 L61.9551,66.7969 M48.9551,85.7969 L35.9551,100.7969 M48.9551,85.7969 L61.9551,100.7969" fill="none" style="stroke:#181818;stroke-width:0.5;"/></g><g class="participant participant-tail" data-participant="U"><text fill="#000000" font-family="sans-serif" font-size="14" lengthAdjust="spacing" textLength="31.9102" x="30" y="978.7842">User</text><ellipse cx="48.9551" cy="990.5859" fill="#E3E3E3" rx="8" ry="8" style="stroke:#181818;stroke-width:0.5;"/><path d="M48.9551,998.5859 L48.9551,1025.5859 M35.9551,1006.5859 L61.9551,1006.5859 M48.9551,1025.5859 L35.9551,1040.5859 M48.9551,1025.5859 L61.9551,1040.5859" fill="none" style="stroke:#181818;stroke-width:0.5;"/></g><g class="participant participant-head" data-participant="QCanvas"><rect fill="#E3E3E3" height="46.5938" rx="6" ry="6" style="stroke:#181818;stroke-width:0.5;" width="120.4355" x="264.9814" y="71"/><text fill="#000000" font-family="sans-serif" font-size="14" lengthAdjust="spacing" textLength="106.4355" x="271.9814" y="90.9951">Auth Controller</text><text fill="#000000" font-family="sans-serif" font-size="14" lengthAdjust="spacing" textLength="73.3291" x="288.5347" y="107.292">(QCanvas)</text></g><g class="participant participant-tail" data-participant="QCanvas"><rect fill="#E3E3E3" height="46.5938" rx="6" ry="6" style="stroke:#181818;stroke-width:0.5;" width="120.4355" x="264.9814" y="965.7891"/><text fill="#000000" font-family="sans-serif" font-size="14" lengthAdjust="spacing" textLength="106.4355" x="271.9814" y="985.7842">Auth Controller</text><text fill="#000000" font-family="sans-serif" font-size="14" lengthAdjust="spacing" textLength="73.3291" x="288.5347" y="1002.0811">(QCanvas)</text></g><g class="participant participant-head" data-participant="AuthSvc"><rect fill="#E3E3E3" height="46.5938" rx="6" ry="6" style="stroke:#181818;stroke-width:0.5;" width="172.9629" x="532.2275" y="71"/><text fill="#000000" font-family="sans-serif" font-size="14" font-style="italic" lengthAdjust="spacing" textLength="75.3799" x="581.019" y="90.9951">&#171;external&#187;</text><text fill="#000000" font-family="sans-serif" font-size="14" lengthAdjust="spacing" textLength="158.9629" x="539.2275" y="107.292">Authentication Service</text></g><g class="participant participant-tail" data-participant="AuthSvc"><rect fill="#E3E3E3" height="46.5938" rx="6" ry="6" style="stroke:#181818;stroke-width:0.5;" width="172.9629" x="532.2275" y="965.7891"/><text fill="#000000" font-family="sans-serif" font-size="14" font-style="italic" lengthAdjust="spacing" textLength="75.3799" x="581.019" y="985.7842">&#171;external&#187;</text><text fill="#000000" font-family="sans-serif" font-size="14" lengthAdjust="spacing" textLength="158.9629" x="539.2275" y="1002.0811">Authentication Service</text></g><g><title>Auth Controller</title><rect fill="#FFFFFF" height="210.9297" style="stroke:#181818;stroke-width:1;" width="10" x="320.1992" y="192.8594"/></g><g><title>&lt;&lt;external&gt;&gt;</title><rect fill="#FFFFFF" height="53.2656" style="stroke:#181818;stroke-width:1;" width="10" x="613.709" y="447.7266"/></g><rect fill="#EEEEEE" height="3" rx="6" ry="6" style="stroke:#EEEEEE;stroke-width:1;" width="861.0371" x="0" y="149.1602"/><line style="stroke:#000000;stroke-width:1;" x1="0" x2="861.0371" y1="149.1602" y2="149.1602"/><line style="stroke:#000000;stroke-width:1;" x1="0" x2="861.0371" y1="152.1602" y2="152.1602"/><rect fill="#EEEEEE" height="23.1328" rx="6" ry="6" style="stroke:#000000;stroke-width:2;" width="58.7573" x="401.1399" y="138.5938"/><text fill="#000000" font-family="sans-serif" font-size="13" font-weight="bold" lengthAdjust="spacing" textLength="40.2314" x="407.1399" y="154.6606">Login</text><g class="message" data-participant-1="U" data-participant-2="QCanvas"><polygon fill="#181818" points="308.1992,188.8594,318.1992,192.8594,308.1992,196.8594,312.1992,192.8594" style="stroke:#181818;stroke-width:1;"/><line style="stroke:#181818;stroke-width:1;" x1="48.9551" x2="314.1992" y1="192.8594" y2="192.8594"/><text fill="#000000" font-family="sans-serif" font-size="13" font-weight="bold" lengthAdjust="spacing" textLength="9.0454" x="65.2979" y="187.7935">1</text><text fill="#000000" font-family="sans-serif" font-size="13" lengthAdjust="spacing" textLength="225.5132" x="78.3433" y="187.7935">submitLogin(username, password)</text></g><g class="message" data-participant-1="QCanvas" data-participant-2="QCanvas"><line style="stroke:#181818;stroke-width:1;" x1="330.1992" x2="372.1992" y1="221.9922" y2="221.9922"/><line style="stroke:#181818;stroke-width:1;" x1="372.1992" x2="372.1992" y1="221.9922" y2="234.9922"/><line style="stroke:#181818;stroke-width:1;" x1="331.1992" x2="372.1992" y1="234.9922" y2="234.9922"/><polygon fill="#181818" points="341.1992,230.9922,331.1992,234.9922,341.1992,238.9922,337.1992,234.9922" style="stroke:#181818;stroke-width:1;"/><text fill="#000000" font-family="sans-serif" font-size="13" font-weight="bold" lengthAdjust="spacing" textLength="9.0454" x="337.1992" y="216.9263">2</text><text fill="#000000" font-family="sans-serif" font-size="13" lengthAdjust="spacing" textLength="93.9263" x="350.2446" y="216.9263">sanitizeInput()</text></g><g class="message" data-participant-1="QCanvas" data-participant-2="QCanvas"><line style="stroke:#181818;stroke-width:1;" x1="330.1992" x2="372.1992" y1="279.2578" y2="279.2578"/><line style="stroke:#181818;stroke-width:1;" x1="372.1992" x2="372.1992" y1="279.2578" y2="292.2578"/><line style="stroke:#181818;stroke-width:1;" x1="331.1992" x2="372.1992" y1="292.2578" y2="292.2578"/><polygon fill="#181818" points="341.1992,288.2578,331.1992,292.2578,341.1992,296.2578,337.1992,292.2578" style="stroke:#181818;stroke-width:1;"/><text fill="#000000" font-family="sans-serif" font-size="13" font-weight="bold" lengthAdjust="spacing" textLength="9.0454" x="337.1992" y="266.6255">3</text><text fill="#000000" font-family="sans-serif" font-size="13" lengthAdjust="spacing" textLength="108.8433" x="355.5227" y="259.0591">validateFormat()</text><text fill="#000000" font-family="sans-serif" font-size="13" lengthAdjust="spacing" textLength="119.3994" x="350.2446" y="274.1919">&#8594; credentialsValid</text></g><rect fill="#EEEEEE" height="3" rx="6" ry="6" style="stroke:#EEEEEE;stroke-width:1;" width="861.0371" x="0" y="320.8242"/><line style="stroke:#000000;stroke-width:1;" x1="0" x2="861.0371" y1="320.8242" y2="320.8242"/><line style="stroke:#000000;stroke-width:1;" x1="0" x2="861.0371" y1="323.8242" y2="323.8242"/><rect fill="#EEEEEE" height="23.1328" rx="6" ry="6" style="stroke:#000000;stroke-width:2;" width="93.2061" x="383.9155" y="310.2578"/><text fill="#000000" font-family="sans-serif" font-size="13" font-weight="bold" lengthAdjust="spacing" textLength="74.6802" x="389.9155" y="326.3247">Validation</text><path d="M16,350.3906 L74.4429,350.3906 L74.4429,357.5234 L64.4429,367.5234 L10,367.5234 L10,356.3906 A6,6 0 0 1 16,350.3906" fill="#EEEEEE" style="stroke:#000000;stroke-width:1.5;"/><rect fill="none" height="483.7344" rx="6" ry="6" style="stroke:#000000;stroke-width:1.5;" width="735.1904" x="10" y="350.3906"/><text fill="#000000" font-family="sans-serif" font-size="13" font-weight="bold" lengthAdjust="spacing" textLength="19.4429" x="25" y="363.4575">alt</text><text fill="#000000" font-family="sans-serif" font-size="11" font-weight="bold" lengthAdjust="spacing" textLength="170.8975" x="89.4429" y="362.6011">[Invalid credentials format]</text><g class="message" data-participant-1="QCanvas" data-participant-2="U"><polygon fill="#181818" points="59.9551,399.7891,49.9551,403.7891,59.9551,407.7891,55.9551,403.7891" style="stroke:#181818;stroke-width:1;"/><line style="stroke:#181818;stroke-width:1;stroke-dasharray:2.0,2.0;" x1="53.9551" x2="324.1992" y1="403.7891" y2="403.7891"/><text fill="#000000" font-family="sans-serif" font-size="13" font-weight="bold" lengthAdjust="spacing" textLength="9.0454" x="81.0105" y="391.1567">4</text><text fill="#000000" font-family="sans-serif" font-size="13" lengthAdjust="spacing" textLength="199.0879" x="94.0559" y="383.5903">validationError("Invalid input")</text><text fill="#000000" font-family="sans-serif" font-size="13" lengthAdjust="spacing" textLength="62.4419" x="162.3789" y="398.7231">HTTP 400</text></g><line style="stroke:#000000;stroke-width:1;stroke-dasharray:2.0,2.0;" x1="10" x2="745.1904" y1="412.7891" y2="412.7891"/><text fill="#000000" font-family="sans-serif" font-size="11" font-weight="bold" lengthAdjust="spacing" textLength="114.5762" x="15" y="422.9995">[Valid credentials]</text><g class="message" data-participant-1="QCanvas" data-participant-2="AuthSvc"><polygon fill="#181818" points="601.709,443.7266,611.709,447.7266,601.709,451.7266,605.709,447.7266" style="stroke:#181818;stroke-width:1;"/><line style="stroke:#181818;stroke-width:1;" x1="325.1992" x2="607.709" y1="447.7266" y2="447.7266"/><text fill="#000000" font-family="sans-serif" font-size="13" font-weight="bold" lengthAdjust="spacing" textLength="9.0454" x="334.6992" y="442.6606">5</text><text fill="#000000" font-family="sans-serif" font-size="13" lengthAdjust="spacing" textLength="256.4644" x="347.7446" y="442.6606">verifyCredentials(username, password)</text></g><path d="M26,462.7266 L84.4429,462.7266 L84.4429,469.8594 L74.4429,479.8594 L20,479.8594 L20,468.7266 A6,6 0 0 1 26,462.7266" fill="#EEEEEE" style="stroke:#000000;stroke-width:1.5;"/><rect fill="none" height="364.3984" rx="6" ry="6" style="stroke:#000000;stroke-width:1.5;" width="715.1904" x="20" y="462.7266"/><text fill="#000000" font-family="sans-serif" font-size="13" font-weight="bold" lengthAdjust="spacing" textLength="19.4429" x="35" y="475.7935">alt</text><text fill="#000000" font-family="sans-serif" font-size="11" font-weight="bold" lengthAdjust="spacing" textLength="91.2925" x="99.4429" y="474.937">[Auth success]</text><g class="message" data-participant-1="AuthSvc" data-participant-2="QCanvas"><polygon fill="#181818" points="336.1992,496.9922,326.1992,500.9922,336.1992,504.9922,332.1992,500.9922" style="stroke:#181818;stroke-width:1;"/><line style="stroke:#181818;stroke-width:1;stroke-dasharray:2.0,2.0;" x1="330.1992" x2="617.709" y1="500.9922" y2="500.9922"/><text fill="#000000" font-family="sans-serif" font-size="13" font-weight="bold" lengthAdjust="spacing" textLength="9.0454" x="392.0525" y="495.9263">6</text><text fill="#000000" font-family="sans-serif" font-size="13" lengthAdjust="spacing" textLength="146.7578" x="405.0979" y="495.9263">authToken, userProfile</text></g><rect fill="#EEEEEE" height="3" rx="6" ry="6" style="stroke:#EEEEEE;stroke-width:1;" width="861.0371" x="0" y="529.5586"/><line style="stroke:#000000;stroke-width:1;" x1="0" x2="861.0371" y1="529.5586" y2="529.5586"/><line style="stroke:#000000;stroke-width:1;" x1="0" x2="861.0371" y1="532.5586" y2="532.5586"/><rect fill="#EEEEEE" height="23.1328" rx="6" ry="6" style="stroke:#000000;stroke-width:2;" width="141.7466" x="359.6453" y="518.9922"/><text fill="#000000" font-family="sans-serif" font-size="13" font-weight="bold" lengthAdjust="spacing" textLength="123.2207" x="365.6453" y="535.0591">Session Creation</text><g class="message" data-participant-1="QCanvas" data-participant-2="QCanvas"><line style="stroke:#181818;stroke-width:1;" x1="325.1992" x2="367.1992" y1="588.3906" y2="588.3906"/><line style="stroke:#181818;stroke-width:1;" x1="367.1992" x2="367.1992" y1="588.3906" y2="601.3906"/><line style="stroke:#181818;stroke-width:1;" x1="326.1992" x2="367.1992" y1="601.3906" y2="601.3906"/><polygon fill="#181818" points="336.1992,597.3906,326.1992,601.3906,336.1992,605.3906,332.1992,601.3906" style="stroke:#181818;stroke-width:1;"/><text fill="#000000" font-family="sans-serif" font-size="13" font-weight="bold" lengthAdjust="spacing" textLength="9.0454" x="332.1992" y="575.7583">7</text><text fill="#000000" font-family="sans-serif" font-size="13" lengthAdjust="spacing" textLength="248.0537" x="345.2446" y="568.1919">createSession(authToken, userProfile)</text><text fill="#000000" font-family="sans-serif" font-size="13" lengthAdjust="spacing" textLength="75.2324" x="431.6553" y="583.3247">&#8594; sessionId</text></g><g class="message" data-participant-1="QCanvas" data-participant-2="QCanvas"><line style="stroke:#181818;stroke-width:1;" x1="325.1992" x2="367.1992" y1="630.5234" y2="630.5234"/><line style="stroke:#181818;stroke-width:1;" x1="367.1992" x2="367.1992" y1="630.5234" y2="643.5234"/><line style="stroke:#181818;stroke-width:1;" x1="326.1992" x2="367.1992" y1="643.5234" y2="643.5234"/><polygon fill="#181818" points="336.1992,639.5234,326.1992,643.5234,336.1992,647.5234,332.1992,643.5234" style="stroke:#181818;stroke-width:1;"/><text fill="#000000" font-family="sans-serif" font-size="13" font-weight="bold" lengthAdjust="spacing" textLength="9.0454" x="332.1992" y="625.4575">8</text><text fill="#000000" font-family="sans-serif" font-size="13" lengthAdjust="spacing" textLength="224.3896" x="345.2446" y="625.4575">storeSession(sessionId, metadata)</text></g><rect fill="#EEEEEE" height="3" rx="6" ry="6" style="stroke:#EEEEEE;stroke-width:1;" width="861.0371" x="0" y="672.0898"/><line style="stroke:#000000;stroke-width:1;" x1="0" x2="861.0371" y1="672.0898" y2="672.0898"/><line style="stroke:#000000;stroke-width:1;" x1="0" x2="861.0371" y1="675.0898" y2="675.0898"/><rect fill="#EEEEEE" height="23.1328" rx="6" ry="6" style="stroke:#000000;stroke-width:2;" width="68.2915" x="396.3728" y="661.5234"/><text fill="#000000" font-family="sans-serif" font-size="13" font-weight="bold" lengthAdjust="spacing" textLength="49.7656" x="402.3728" y="677.5903">Access</text><g class="message" data-participant-1="QCanvas" data-participant-2="U"><polygon fill="#181818" points="59.9551,726.9219,49.9551,730.9219,59.9551,734.9219,55.9551,730.9219" style="stroke:#181818;stroke-width:1;"/><line style="stroke:#181818;stroke-width:1;stroke-dasharray:2.0,2.0;" x1="53.9551" x2="324.1992" y1="730.9219" y2="730.9219"/><text fill="#000000" font-family="sans-serif" font-size="13" font-weight="bold" lengthAdjust="spacing" textLength="9.0454" x="60.9551" y="718.2896">9</text><text fill="#000000" font-family="sans-serif" font-size="13" lengthAdjust="spacing" textLength="239.1987" x="74.0005" y="710.7231">loginSuccess(sessionId, redirectURL)</text><text fill="#000000" font-family="sans-serif" font-size="13" lengthAdjust="spacing" textLength="62.4419" x="162.3789" y="725.856">HTTP 200</text></g><line style="stroke:#000000;stroke-width:1;stroke-dasharray:2.0,2.0;" x1="20" x2="735.1904" y1="739.9219" y2="739.9219"/><text fill="#000000" font-family="sans-serif" font-size="11" font-weight="bold" lengthAdjust="spacing" textLength="83.7837" x="25" y="750.1323">[Auth failure]</text><g class="message" data-participant-1="AuthSvc" data-participant-2="QCanvas"><polygon fill="#181818" points="336.1992,770.8594,326.1992,774.8594,336.1992,778.8594,332.1992,774.8594" style="stroke:#181818;stroke-width:1;"/><line style="stroke:#181818;stroke-width:1;stroke-dasharray:2.0,2.0;" x1="330.1992" x2="617.709" y1="774.8594" y2="774.8594"/><text fill="#000000" font-family="sans-serif" font-size="13" font-weight="bold" lengthAdjust="spacing" textLength="18.0908" x="374.1743" y="769.7935">10</text><text fill="#000000" font-family="sans-serif" font-size="13" lengthAdjust="spacing" textLength="173.4688" x="396.2651" y="769.7935">error("Invalid credentials")</text></g><g class="message" data-participant-1="QCanvas" data-participant-2="U"><polygon fill="#181818" points="59.9551,815.125,49.9551,819.125,59.9551,823.125,55.9551,819.125" style="stroke:#181818;stroke-width:1;"/><line style="stroke:#181818;stroke-width:1;stroke-dasharray:2.0,2.0;" x1="53.9551" x2="324.1992" y1="819.125" y2="819.125"/><text fill="#000000" font-family="sans-serif" font-size="13" font-weight="bold" lengthAdjust="spacing" textLength="18.0908" x="90.4685" y="806.4927">11</text><text fill="#000000" font-family="sans-serif" font-size="13" lengthAdjust="spacing" textLength="171.1265" x="112.5593" y="798.9263">authError("Unauthorized")</text><text fill="#000000" font-family="sans-serif" font-size="13" lengthAdjust="spacing" textLength="62.4419" x="166.9016" y="814.0591">HTTP 401</text></g><path d="M623,852.125 L623,895.125 A6,6 0 0 0 629,901.125 L850,901.125 A6,6 0 0 0 856,895.125 L856,856.125 L846,846.125 L629,846.125 A6,6 0 0 0 623,852.125" fill="#FAFAFA" style="stroke:#181818;stroke-width:0.5;"/><path d="M846,846.125 L846,853.125 A3,3 0 0 0 849,856.125 L856,856.125 L846,846.125" fill="#FAFAFA" style="stroke:#181818;stroke-width:0.5;"/><text fill="#000000" font-family="sans-serif" font-size="13" lengthAdjust="spacing" textLength="69.856" x="629" y="863.1919">&#171;external&#187;</text><text fill="#000000" font-family="sans-serif" font-size="13" lengthAdjust="spacing" textLength="184.209" x="629" y="878.3247">OAuth2 / JWT / SSO provider</text><text fill="#000000" font-family="sans-serif" font-size="13" lengthAdjust="spacing" textLength="212.0371" x="629" y="893.4575">(e.g., Auth0, Firebase, Keycloak)</text><path d="M193,917.5234 L193,945.5234 A6,6 0 0 0 199,951.5234 L449,951.5234 A6,6 0 0 0 455,945.5234 L455,921.5234 L445,911.5234 L199,911.5234 A6,6 0 0 0 193,917.5234" fill="#FAFAFA" style="stroke:#181818;stroke-width:0.5;"/><path d="M445,911.5234 L445,918.5234 A3,3 0 0 0 448,921.5234 L455,921.5234 L445,911.5234" fill="#FAFAFA" style="stroke:#181818;stroke-width:0.5;"/><text fill="#000000" font-family="sans-serif" font-size="13" lengthAdjust="spacing" textLength="178.7817" x="199" y="928.5903">Session stored in cache/db.</text><text fill="#000000" font-family="sans-serif" font-size="13" lengthAdjust="spacing" textLength="241.7949" x="199" y="943.7231">Token used for subsequent requests.</text><!--SRC=[XLNDRXen4BxlKupeeI2HX4GzL5MAH0XfQMcXMKWlkHZli5ZisjJsGjAgKazzWAfFc2Vfs2mRHm6w1z3ExpVpVVPQOJE4YK4DdSBEKLh1cHLAmaWhZiR0mw-_4DyRYpd4-Ar0oH4k1KirowFe9HpH0pV252o3z_UfG8dU5fc5a4j6KP0hgVXSgnp1wW83ZvcpHAs5J676CXDwj2famfMM1EpqB71qj5RhyLpmXNJeJWFNY6b2BvPCsX5B4bVsh1NuBzJTrluw1B6TwaS4C10pp8J42wKJr66VmCVu8lK0kofJ6jPpOP7ydoYGfTZ9H2g1qofHHp-h7GNep6P3Z5lAhhdbru0Pc4HJTGUrBrqcL_GwofYTAPtNu8NLJ1f2IpMfp_An4jGSQz1LqcgLPQXlPRtCR_YQvKk4CW6glkdGkoDeaWZRy6h-to7GHOnw9JZwwiuLhpYSdsDPijskMaMii4eM-PJMG4juk-k1mV1T__DkN-JSAXMItD44ZjhROU0Dc6AQ2-kzzSAupZas2ROnQoAkuLOhLinYDVyszMaL9eKLtx4lbuMjDtO7hLWc4YfrHLGmYhgL3x__0DUOkAMGR6zSmFu9Rpg3_cLdt1yU6FDcqyEjbmmiiz2Nlc_O1sOU0T5JuIIWaqU8bDwZqw7hjMssS8FL2FBxyNW4hrejIaxmsNAGpju6GzWlRDIkgAPkgCNilliOk9C1WAfDcUfCD9aNh2cukrp815NbeoTh9_7Cnsg1iWckFDr6Cv6XJmWcs9RszdqCnBquTkllNlSEyU1Ak6Z2vOYW0Ij6d6kdEBWBmZAblXjpgHYp2Ued-wiPkW-gObLy4tAqZFXbZSDpThfTclJmT1s_zsSpbKBAt86ADzo408XheP7RoVLWAwOpBwQTSYAxLvHdUiP4LcWym3G-rMoWm5fZ7z-xmBljb_gVIFUYD9tj993_wJx415WcxkAA8gd8haKwjw1cLRyd5zpGMS_W13vy7TDl70zXgTLAq0S38AhZSNhSz9cj9bpHtgRCqD7uYFSyKspHy1UaQrCsKtIWAYHRzNafk0CCdF4vdYJJOwhjnUMqbRZBmDs2cu-N9ORetrXpN5N_1m00]--></g></svg>