<svg xmlns="http://www.w3.org/2000/svg" xmlns:xlink="http://www.w3.org/1999/xlink" contentStyleType="text/css" data-diagram-type="SEQUENCE" height="1183px" preserveAspectRatio="none" style="width:906px;height:1183px;background:#FFFFFF;" version="1.1" viewBox="0 0 906 1183" width="906px" zoomAndPan="magnify"><title>Compile to OpenQasm 3.0 Process &#8212; System Sequence Diagram</title><defs/><g><text fill="#000000" font-family="sans-serif" font-size="14" font-weight="bold" lengthAdjust="spacing" textLength="506.5635" x="195.8782" y="27.9951">Compile to OpenQasm 3.0 Process &#8212; System Sequence Diagram</text><rect fill="none" height="1134.5859" rx="6" ry="6" style="stroke:#181818;stroke-width:0.5;" width="163.5615" x="319.415" y="43.2969"/><text fill="#000000" font-family="sans-serif" font-size="13" font-weight="bold" lengthAdjust="spacing" textLength="131.644" x="335.3738" y="55.3638">QCanvas Platform</text><rect fill="none" height="1134.5859" rx="6" ry="6" style="stroke:#181818;stroke-width:0.5;" width="235.1338" x="566.2461" y="43.2969"/><text fill="#000000" font-family="sans-serif" font-size="13" font-weight="bold" lengthAdjust="spacing" textLength="133.5928" x="617.0166" y="55.3638">QCanvas Compiler</text><g><title>Circuit Service</title><rect fill="#FFFFFF" height="268.1953" style="stroke:#181818;stroke-width:1;" width="10" x="396.1958" y="192.8594"/></g><g><title>OpenQASM 3.0 Compiler</title><rect fill="#FFFFFF" height="68.3984" style="stroke:#181818;stroke-width:1;" width="10" x="678.813" y="555.125"/></g><rect fill="none" height="76.2031" rx="6" ry="6" style="stroke:#000000;stroke-width:1.5;" width="478.9766" x="10" y="407.6563"/><rect fill="none" height="264.1328" rx="6" ry="6" style="stroke:#000000;stroke-width:1.5;" width="797.3799" x="10" y="570.125"/><g><title>Quantum Developer</title><rect fill="#000000" fill-opacity="0.00000" height="979.9922" width="8" x="89.8989" y="118.5938"/><line style="stroke:#181818;stroke-width:0.5;stroke-dasharray:5.0,5.0;" x1="93" x2="93" y1="118.5938" y2="1098.5859"/></g><g><title>Circuit Service</title><rect fill="#000000" fill-opacity="0.00000" height="979.9922" width="8" x="397.1958" y="118.5938"/><line style="stroke:#181818;stroke-width:0.5;stroke-dasharray:5.0,5.0;" x1="400.415" x2="400.415" y1="118.5938" y2="1098.5859"/></g><g><title>OpenQASM 3.0 Compiler</title><rect fill="#000000" fill-opacity="0.00000" height="979.9922" width="8" x="679.813" y="118.5938"/><line style="stroke:#181818;stroke-width:0.5;stroke-dasharray:5.0,5.0;" x1="683.2461" x2="683.2461" y1="118.5938" y2="1098.5859"/></g><g class="participant participant-head" data-participant="Dev"><text fill="#000000" font-family="sans-serif" font-size="14" lengthAdjust="spacing" textLength="141.7979" x="20" y="115.292">Quantum Developer</text><ellipse cx="93.8989" cy="50.7969" fill="#E3E3E3" rx="8" ry="8" style="stroke:#181818;stroke-width:0.5;"/><path d="M93.8989,58.7969 L93.8989,85.7969 M80.8989,66.7969 L106.8989,66.7969 M93.8989,85.7969 L80.8989,100.7969 M93.8989,85.7969 L106.8989,100.7969" fill="none" style="stroke:#181818;stroke-width:0.5;"/></g><g class="participant participant-tail" data-participant="Dev"><text fill="#000000" font-family="sans-serif" font-size="14" lengthAdjust="spacing" textLength="141.7979" x="20" y="1110.5811">Quantum Developer</text><ellipse cx="93.8989" cy="1122.3828" fill="#E3E3E3" rx="8" ry="8" style="stroke:#181818;stroke-width:0.5;"/><path d="M93.8989,1130.3828 L93.8989,1157.3828 M80.8989,1138.3828 L106.8989,1138.3828 M93.8989,1157.3828 L80.8989,1172.3828 M93.8989,1157.3828 L106.8989,1172.3828" fill="none" style="stroke:#181818;stroke-width:0.5;"/></g><g class="participant participant-head" data-participant="QCanvas"><rect fill="#E3E3E3" height="46.5938" rx="6" ry="6" style="stroke:#181818;stroke-width:0.5;" width="115.5615" x="343.415" y="71"/><text fill="#000000" font-family="sans-serif" font-size="14" lengthAdjust="spacing" textLength="101.5615" x="350.415" y="90.9951">Circuit Service</text><text fill="#000000" font-family="sans-serif" font-size="14" lengthAdjust="spacing" textLength="73.3291" x="364.5313" y="107.292">(QCanvas)</text></g><g class="participant participant-tail" data-participant="QCanvas"><rect fill="#E3E3E3" height="46.5938" rx="6" ry="6" style="stroke:#181818;stroke-width:0.5;" width="115.5615" x="343.415" y="1097.5859"/><text fill="#000000" font-family="sans-serif" font-size="14" lengthAdjust="spacing" textLength="101.5615" x="350.415" y="1117.5811">Circuit Service</text><text fill="#000000" font-family="sans-serif" font-size="14" lengthAdjust="spacing" textLength="73.3291" x="364.5313" y="1133.8779">(QCanvas)</text></g><g class="participant participant-head" data-participant="QASM"><rect fill="#E3E3E3" height="30.2969" rx="6" ry="6" style="stroke:#181818;stroke-width:0.5;" width="187.1338" x="590.2461" y="87.2969"/><text fill="#000000" font-family="sans-serif" font-size="14" lengthAdjust="spacing" textLength="173.1338" x="597.2461" y="107.292">OpenQASM 3.0 Compiler</text></g><g class="participant participant-tail" data-participant="QASM"><rect fill="#E3E3E3" height="30.2969" rx="6" ry="6" style="stroke:#181818;stroke-width:0.5;" width="187.1338" x="590.2461" y="1097.5859"/><text fill="#000000" font-family="sans-serif" font-size="14" lengthAdjust="spacing" textLength="173.1338" x="597.2461" y="1117.5811">OpenQASM 3.0 Compiler</text></g><g><title>Circuit Service</title><rect fill="#FFFFFF" height="268.1953" style="stroke:#181818;stroke-width:1;" width="10" x="396.1958" y="192.8594"/></g><g><title>OpenQASM 3.0 Compiler</title><rect fill="#FFFFFF" height="68.3984" style="stroke:#181818;stroke-width:1;" width="10" x="678.813" y="555.125"/></g><rect fill="#EEEEEE" height="3" rx="6" ry="6" style="stroke:#EEEEEE;stroke-width:1;" width="899.3198" x="0" y="149.1602"/><line style="stroke:#000000;stroke-width:1;" x1="0" x2="899.3198" y1="149.1602" y2="149.1602"/><line style="stroke:#000000;stroke-width:1;" x1="0" x2="899.3198" y1="152.1602" y2="152.1602"/><rect fill="#EEEEEE" height="23.1328" rx="6" ry="6" style="stroke:#000000;stroke-width:2;" width="57.3926" x="420.9636" y="138.5938"/><text fill="#000000" font-family="sans-serif" font-size="13" font-weight="bold" lengthAdjust="spacing" textLength="38.8667" x="426.9636" y="154.6606">Input</text><g class="message" data-participant-1="Dev" data-participant-2="QCanvas"><polygon fill="#181818" points="384.1958,188.8594,394.1958,192.8594,384.1958,196.8594,388.1958,192.8594" style="stroke:#181818;stroke-width:1;"/><line style="stroke:#181818;stroke-width:1;" x1="93.8989" x2="390.1958" y1="192.8594" y2="192.8594"/><text fill="#000000" font-family="sans-serif" font-size="13" font-weight="bold" lengthAdjust="spacing" textLength="9.0454" x="103.3989" y="187.7935">1</text><text fill="#000000" font-family="sans-serif" font-size="13" lengthAdjust="spacing" textLength="270.2515" x="116.4443" y="187.7935">submitCircuit(circuitSource, inputFormat)</text></g><g class="message" data-participant-1="QCanvas" data-participant-2="QCanvas"><line style="stroke:#181818;stroke-width:1;" x1="406.1958" x2="448.1958" y1="221.9922" y2="221.9922"/><line style="stroke:#181818;stroke-width:1;" x1="448.1958" x2="448.1958" y1="221.9922" y2="234.9922"/><line style="stroke:#181818;stroke-width:1;" x1="407.1958" x2="448.1958" y1="234.9922" y2="234.9922"/><polygon fill="#181818" points="417.1958,230.9922,407.1958,234.9922,417.1958,238.9922,413.1958,234.9922" style="stroke:#181818;stroke-width:1;"/><text fill="#000000" font-family="sans-serif" font-size="13" font-weight="bold" lengthAdjust="spacing" textLength="9.0454" x="413.1958" y="216.9263">2</text><text fill="#000000" font-family="sans-serif" font-size="13" lengthAdjust="spacing" textLength="93.9263" x="426.2412" y="216.9263">sanitizeInput()</text></g><g class="message" data-participant-1="QCanvas" data-participant-2="QCanvas"><line style="stroke:#181818;stroke-width:1;" x1="406.1958" x2="448.1958" y1="279.2578" y2="279.2578"/><line style="stroke:#181818;stroke-width:1;" x1="448.1958" x2="448.1958" y1="279.2578" y2="292.2578"/><line style="stroke:#181818;stroke-width:1;" x1="407.1958" x2="448.1958" y1="292.2578" y2="292.2578"/><polygon fill="#181818" points="417.1958,288.2578,407.1958,292.2578,417.1958,296.2578,413.1958,292.2578" style="stroke:#181818;stroke-width:1;"/><text fill="#000000" font-family="sans-serif" font-size="13" font-weight="bold" lengthAdjust="spacing" textLength="9.0454" x="413.1958" y="266.6255">3</text><text fill="#000000" font-family="sans-serif" font-size="13" lengthAdjust="spacing" textLength="88.6069" x="437.8225" y="259.0591">parseCircuit()</text><text fill="#000000" font-family="sans-serif" font-size="13" lengthAdjust="spacing" textLength="111.7695" x="426.2412" y="274.1919">&#8594; intermediateIR</text></g><rect fill="#EEEEEE" height="3" rx="6" ry="6" style="stroke:#EEEEEE;stroke-width:1;" width="899.3198" x="0" y="320.8242"/><line style="stroke:#000000;stroke-width:1;" x1="0" x2="899.3198" y1="320.8242" y2="320.8242"/><line style="stroke:#000000;stroke-width:1;" x1="0" x2="899.3198" y1="323.8242" y2="323.8242"/><rect fill="#EEEEEE" height="23.1328" rx="6" ry="6" style="stroke:#000000;stroke-width:2;" width="93.2061" x="403.0569" y="310.2578"/><text fill="#000000" font-family="sans-serif" font-size="13" font-weight="bold" lengthAdjust="spacing" textLength="74.6802" x="409.0569" y="326.3247">Validation</text><g class="message" data-participant-1="QCanvas" data-participant-2="QCanvas"><line style="stroke:#181818;stroke-width:1;" x1="406.1958" x2="448.1958" y1="379.6563" y2="379.6563"/><line style="stroke:#181818;stroke-width:1;" x1="448.1958" x2="448.1958" y1="379.6563" y2="392.6563"/><line style="stroke:#181818;stroke-width:1;" x1="407.1958" x2="448.1958" y1="392.6563" y2="392.6563"/><polygon fill="#181818" points="417.1958,388.6563,407.1958,392.6563,417.1958,396.6563,413.1958,392.6563" style="stroke:#181818;stroke-width:1;"/><text fill="#000000" font-family="sans-serif" font-size="13" font-weight="bold" lengthAdjust="spacing" textLength="9.0454" x="413.1958" y="367.0239">4</text><text fill="#000000" font-family="sans-serif" font-size="13" lengthAdjust="spacing" textLength="159.085" x="426.2412" y="359.4575">validate(intermediateIR)</text><text fill="#000000" font-family="sans-serif" font-size="13" lengthAdjust="spacing" textLength="119.7803" x="445.8936" y="374.5903">&#8594; validationResult</text></g><path d="M16,407.6563 L74.4429,407.6563 L74.4429,414.7891 L64.4429,424.7891 L10,424.7891 L10,413.6563 A6,6 0 0 1 16,407.6563" fill="#EEEEEE" style="stroke:#000000;stroke-width:1.5;"/><rect fill="none" height="76.2031" rx="6" ry="6" style="stroke:#000000;stroke-width:1.5;" width="478.9766" x="10" y="407.6563"/><text fill="#000000" font-family="sans-serif" font-size="13" font-weight="bold" lengthAdjust="spacing" textLength="19.4429" x="25" y="420.7231">alt</text><text fill="#000000" font-family="sans-serif" font-size="11" font-weight="bold" lengthAdjust="spacing" textLength="103.3721" x="89.4429" y="419.8667">[Validation fails]</text><g class="message" data-participant-1="QCanvas" data-participant-2="Dev"><polygon fill="#181818" points="104.8989,457.0547,94.8989,461.0547,104.8989,465.0547,100.8989,461.0547" style="stroke:#181818;stroke-width:1;"/><line style="stroke:#181818;stroke-width:1;stroke-dasharray:2.0,2.0;" x1="98.8989" x2="400.1958" y1="461.0547" y2="461.0547"/><text fill="#000000" font-family="sans-serif" font-size="13" font-weight="bold" lengthAdjust="spacing" textLength="9.0454" x="166.1953" y="448.4224">5</text><text fill="#000000" font-family="sans-serif" font-size="13" lengthAdjust="spacing" textLength="149.6587" x="179.2407" y="440.856">validationError(details)</text><text fill="#000000" font-family="sans-serif" font-size="13" lengthAdjust="spacing" textLength="62.4419" x="222.8491" y="455.9888">HTTP 400</text></g><line style="stroke:#000000;stroke-width:1;stroke-dasharray:2.0,2.0;" x1="10" x2="488.9766" y1="470.0547" y2="470.0547"/><text fill="#000000" font-family="sans-serif" font-size="11" font-weight="bold" lengthAdjust="spacing" textLength="119.4746" x="15" y="480.2651">[Validation passes]</text><rect fill="#EEEEEE" height="3" rx="6" ry="6" style="stroke:#EEEEEE;stroke-width:1;" width="899.3198" x="0" y="511.4258"/><line style="stroke:#000000;stroke-width:1;" x1="0" x2="899.3198" y1="511.4258" y2="511.4258"/><line style="stroke:#000000;stroke-width:1;" x1="0" x2="899.3198" y1="514.4258" y2="514.4258"/><rect fill="#EEEEEE" height="23.1328" rx="6" ry="6" style="stroke:#000000;stroke-width:2;" width="100.3345" x="399.4927" y="500.8594"/><text fill="#000000" font-family="sans-serif" font-size="13" font-weight="bold" lengthAdjust="spacing" textLength="81.8086" x="405.4927" y="516.9263">Conversion</text><g class="message" data-participant-1="QCanvas" data-participant-2="QASM"><polygon fill="#181818" points="666.813,551.125,676.813,555.125,666.813,559.125,670.813,555.125" style="stroke:#181818;stroke-width:1;"/><line style="stroke:#181818;stroke-width:1;" x1="401.1958" x2="672.813" y1="555.125" y2="555.125"/><text fill="#000000" font-family="sans-serif" font-size="13" font-weight="bold" lengthAdjust="spacing" textLength="9.0454" x="410.6958" y="550.0591">6</text><text fill="#000000" font-family="sans-serif" font-size="13" lengthAdjust="spacing" textLength="245.5718" x="423.7412" y="550.0591">convertToOpenQASM(intermediateIR)</text></g><path d="M16,570.125 L74.4429,570.125 L74.4429,577.2578 L64.4429,587.2578 L10,587.2578 L10,576.125 A6,6 0 0 1 16,570.125" fill="#EEEEEE" style="stroke:#000000;stroke-width:1.5;"/><rect fill="none" height="264.1328" rx="6" ry="6" style="stroke:#000000;stroke-width:1.5;" width="797.3799" x="10" y="570.125"/><text fill="#000000" font-family="sans-serif" font-size="13" font-weight="bold" lengthAdjust="spacing" textLength="19.4429" x="25" y="583.1919">alt</text><text fill="#000000" font-family="sans-serif" font-size="11" font-weight="bold" lengthAdjust="spacing" textLength="174.0234" x="89.4429" y="582.3354">[Compiler available and OK]</text><g class="message" data-participant-1="QASM" data-participant-2="QCanvas"><polygon fill="#181818" points="412.1958,619.5234,402.1958,623.5234,412.1958,627.5234,408.1958,623.5234" style="stroke:#181818;stroke-width:1;"/><line style="stroke:#181818;stroke-width:1;stroke-dasharray:2.0,2.0;" x1="406.1958" x2="682.813" y1="623.5234" y2="623.5234"/><text fill="#000000" font-family="sans-serif" font-size="13" font-weight="bold" lengthAdjust="spacing" textLength="9.0454" x="439.2402" y="610.8911">7</text><text fill="#000000" font-family="sans-serif" font-size="13" lengthAdjust="spacing" textLength="73.0679" x="512.4932" y="603.3247">qasmCode,</text><text fill="#000000" font-family="sans-serif" font-size="13" lengthAdjust="spacing" textLength="193.4829" x="452.2856" y="618.4575">compileReport(success=true)</text></g><g class="message" data-participant-1="QCanvas" data-participant-2="QCanvas"><line style="stroke:#181818;stroke-width:1;" x1="401.1958" x2="443.1958" y1="667.7891" y2="667.7891"/><line style="stroke:#181818;stroke-width:1;" x1="443.1958" x2="443.1958" y1="667.7891" y2="680.7891"/><line style="stroke:#181818;stroke-width:1;" x1="402.1958" x2="443.1958" y1="680.7891" y2="680.7891"/><polygon fill="#181818" points="412.1958,676.7891,402.1958,680.7891,412.1958,684.7891,408.1958,680.7891" style="stroke:#181818;stroke-width:1;"/><text fill="#000000" font-family="sans-serif" font-size="13" font-weight="bold" lengthAdjust="spacing" textLength="9.0454" x="408.1958" y="655.1567">8</text><text fill="#000000" font-family="sans-serif" font-size="13" lengthAdjust="spacing" textLength="188.6968" x="421.2412" y="647.5903">packageArtifacts(qasmCode)</text><text fill="#000000" font-family="sans-serif" font-size="13" lengthAdjust="spacing" textLength="147.9194" x="441.6299" y="662.7231">&#8594; artifactId, checksum</text></g><g class="message" data-participant-1="QCanvas" data-participant-2="QCanvas"><line style="stroke:#181818;stroke-width:1;" x1="401.1958" x2="443.1958" y1="709.9219" y2="709.9219"/><line style="stroke:#181818;stroke-width:1;" x1="443.1958" x2="443.1958" y1="709.9219" y2="722.9219"/><line style="stroke:#181818;stroke-width:1;" x1="402.1958" x2="443.1958" y1="722.9219" y2="722.9219"/><polygon fill="#181818" points="412.1958,718.9219,402.1958,722.9219,412.1958,726.9219,408.1958,722.9219" style="stroke:#181818;stroke-width:1;"/><text fill="#000000" font-family="sans-serif" font-size="13" font-weight="bold" lengthAdjust="spacing" textLength="9.0454" x="408.1958" y="704.856">9</text><text fill="#000000" font-family="sans-serif" font-size="13" lengthAdjust="spacing" textLength="241.6997" x="421.2412" y="704.856">persistAuditLog(artifactId, metadata)</text></g><line style="stroke:#000000;stroke-width:1;stroke-dasharray:2.0,2.0;" x1="10" x2="807.3799" y1="731.9219" y2="731.9219"/><text fill="#000000" font-family="sans-serif" font-size="11" font-weight="bold" lengthAdjust="spacing" textLength="100.5684" x="15" y="742.1323">[Compiler error]</text><g class="message" data-participant-1="QASM" data-participant-2="QCanvas"><polygon fill="#181818" points="412.1958,777.9922,402.1958,781.9922,412.1958,785.9922,408.1958,781.9922" style="stroke:#181818;stroke-width:1;"/><line style="stroke:#181818;stroke-width:1;stroke-dasharray:2.0,2.0;" x1="406.1958" x2="682.813" y1="781.9922" y2="781.9922"/><text fill="#000000" font-family="sans-serif" font-size="13" font-weight="bold" lengthAdjust="spacing" textLength="18.0908" x="433.064" y="769.3599">10</text><text fill="#000000" font-family="sans-serif" font-size="13" lengthAdjust="spacing" textLength="196.79" x="455.1548" y="761.7935">compileReport(success=false,</text><text fill="#000000" font-family="sans-serif" font-size="13" lengthAdjust="spacing" textLength="43.8306" x="531.6345" y="776.9263">errors)</text></g><g class="message" data-participant-1="QCanvas" data-participant-2="Dev"><polygon fill="#181818" points="104.8989,822.2578,94.8989,826.2578,104.8989,830.2578,100.8989,826.2578" style="stroke:#181818;stroke-width:1;"/><line style="stroke:#181818;stroke-width:1;stroke-dasharray:2.0,2.0;" x1="98.8989" x2="400.1958" y1="826.2578" y2="826.2578"/><text fill="#000000" font-family="sans-serif" font-size="13" font-weight="bold" lengthAdjust="spacing" textLength="18.0908" x="160.4729" y="813.6255">11</text><text fill="#000000" font-family="sans-serif" font-size="13" lengthAdjust="spacing" textLength="152.0581" x="182.5637" y="806.0591">conversionError(errors)</text><text fill="#000000" font-family="sans-serif" font-size="13" lengthAdjust="spacing" textLength="62.4419" x="227.3718" y="821.1919">HTTP 502</text></g><rect fill="#EEEEEE" height="3" rx="6" ry="6" style="stroke:#EEEEEE;stroke-width:1;" width="899.3198" x="0" y="861.8242"/><line style="stroke:#000000;stroke-width:1;" x1="0" x2="899.3198" y1="861.8242" y2="861.8242"/><line style="stroke:#000000;stroke-width:1;" x1="0" x2="899.3198" y1="864.8242" y2="864.8242"/><rect fill="#EEEEEE" height="23.1328" rx="6" ry="6" style="stroke:#000000;stroke-width:2;" width="69.8213" x="414.7493" y="851.2578"/><text fill="#000000" font-family="sans-serif" font-size="13" font-weight="bold" lengthAdjust="spacing" textLength="51.2954" x="420.7493" y="867.3247">Output</text><g class="message" data-participant-1="QCanvas" data-participant-2="Dev"><polygon fill="#181818" points="104.8989,916.6563,94.8989,920.6563,104.8989,924.6563,100.8989,920.6563" style="stroke:#181818;stroke-width:1;"/><line style="stroke:#181818;stroke-width:1;stroke-dasharray:2.0,2.0;" x1="98.8989" x2="400.1958" y1="920.6563" y2="920.6563"/><text fill="#000000" font-family="sans-serif" font-size="13" font-weight="bold" lengthAdjust="spacing" textLength="18.0908" x="135.5647" y="908.0239">12</text><text fill="#000000" font-family="sans-serif" font-size="13" lengthAdjust="spacing" textLength="201.8745" x="157.6555" y="900.4575">conversionSummary(artifactId,</text><text fill="#000000" font-family="sans-serif" font-size="13" lengthAdjust="spacing" textLength="167.248" x="174.9688" y="915.5903">size, checksum, duration)</text></g><g class="message" data-participant-1="QCanvas" data-participant-2="Dev"><polygon fill="#181818" points="104.8989,960.9219,94.8989,964.9219,104.8989,968.9219,100.8989,964.9219" style="stroke:#181818;stroke-width:1;"/><line style="stroke:#181818;stroke-width:1;stroke-dasharray:2.0,2.0;" x1="98.8989" x2="400.1958" y1="964.9219" y2="964.9219"/><text fill="#000000" font-family="sans-serif" font-size="13" font-weight="bold" lengthAdjust="spacing" textLength="18.0908" x="150.3896" y="952.2896">13</text><text fill="#000000" font-family="sans-serif" font-size="13" lengthAdjust="spacing" textLength="172.2246" x="172.4805" y="944.7231">downloadLink(artifactURL)</text><text fill="#000000" font-family="sans-serif" font-size="13" lengthAdjust="spacing" textLength="62.4419" x="227.3718" y="959.856">HTTP 200</text></g><path d="M688,983.9219 L688,1026.9219 A6,6 0 0 0 694,1032.9219 L888,1032.9219 A6,6 0 0 0 894,1026.9219 L894,987.9219 L884,977.9219 L694,977.9219 A6,6 0 0 0 688,983.9219" fill="#FAFAFA" style="stroke:#181818;stroke-width:0.5;"/><path d="M884,977.9219 L884,984.9219 A3,3 0 0 0 887,987.9219 L894,987.9219 L884,977.9219" fill="#FAFAFA" style="stroke:#181818;stroke-width:0.5;"/><text fill="#000000" font-family="sans-serif" font-size="13" lengthAdjust="spacing" textLength="69.856" x="694" y="994.9888">&#171;external&#187;</text><text fill="#000000" font-family="sans-serif" font-size="13" lengthAdjust="spacing" textLength="161.2749" x="694" y="1010.1216">Service invoked over API</text><text fill="#000000" font-family="sans-serif" font-size="13" lengthAdjust="spacing" textLength="185.3198" x="694" y="1025.2544">(e.g., REST/gRPC/CLI bridge)</text><path d="M279,1049.3203 L279,1077.3203 A6,6 0 0 0 285,1083.3203 L517,1083.3203 A6,6 0 0 0 523,1077.3203 L523,1053.3203 L513,1043.3203 L285,1043.3203 A6,6 0 0 0 279,1049.3203" fill="#FAFAFA" style="stroke:#181818;stroke-width:0.5;"/><path d="M513,1043.3203 L513,1050.3203 A3,3 0 0 0 516,1053.3203 L523,1053.3203 L513,1043.3203" fill="#FAFAFA" style="stroke:#181818;stroke-width:0.5;"/><text fill="#000000" font-family="sans-serif" font-size="13" lengthAdjust="spacing" textLength="223.0249" x="285" y="1060.3872">Validation covers syntax, schema,</text><text fill="#000000" font-family="sans-serif" font-size="13" lengthAdjust="spacing" textLength="203.7788" x="285" y="1075.52">and basic resource constraints.</text><!--SRC=[XLLDRzj64BtpLmpSGoH0TXIt0GeZCQ3G3Y9KiHH9zicNqN94BKJkAlj1smq2vDGVKFGNvfTqbY9fofLKNIZkxBmty_Rjq4cN4SGwtqX-EWtZ3QalQ7FuzQmF4wC5MGi_V_m3ioVhA8SPVVMa1C6LnDHW7aMlu9H_S2UjnmnMJwaaHULQPDTIRP1tGQwL5YkZSoOndbeHky94FqYLmX8psuuOxLKYj55auCrvAp0mHZ_CLrAiLQZkJIiqGUEaa1jKRe994c3F-wtu1_rOh__UBgBkwbi4C99BogIY3zeaPDeyhHYATLeM6EjC6tXOIKSS_ymRCQL19bC5WfGZ4trlD6fLPxSAeN2SVVB5yvBFuOeAolI6p0cW3M_HGZzoE4PLyC8aGxVK9Z-1Nvn1PRbufc3QpJCmdCJI22yT7vKffA1xrQdokoLgzHAHIe3HTnag9vZZ3AL91hFFfKcUKm8uhpR84NgdbSyNB09By7xV3uOtazlv_bWKmchZ7OSZ5WDEB-lguGAiN-JILSrsnFOvqzu8we4CQHzPAdJT8B8iq57JUWsoYuTAEladbOoTxlvDB8EbchDxhtx-zJTpyIddb4Yc64uFTtet60sl1lFX-EPmktUOoGITr2hqlBU4Ohk5EhkyLJ550p0bwpCNOURQg4kKcUNpRA0PEqXxqSgyvljbEWcvi9TnFytd4_Yjt-UqXFuZ9l6jRJDiq5eA5Az0QEMaykLWuVy56SixWZyEgnIFR-wkfxEZAiKDrakLWYalAYutrxLHNshLiaGmRD2ejZ5WmMtZWiSXie_7VmIn0kpfpYbyvHaPwuHwzqfiCwUqqSPrh1TXPhuFOwxxGh70rP9-rrXY7GO7tx8b9zXEJL2TArQ1OT83iIAnjZu_Y1MqiMxW4-b6EksqStC-LJuex6xFhUcQmfdlRtL_V-MqvkxBHFi_dJOcUtR1rcHLTkMnj_tp0nuxvfZnxVpe21bxLysGO_NCV9wZUMgBTQyipuDdlNkGU5EQlBi7YhzYAjEOZAHQDoYtqr7Tt3bVe3sjHKhpcv7foe5URfLxzuuUsQyAiylBg1hZF6OAlQO4D1SCWyamwj1PUjQ3wVLi_ZgTJkBNyMW82oEJb8qNPd10hl3Bf9goTLb525YmJyhXOmyijvfZBmhENw2L0WpPSgG6fIn_4lWYsRC6_Ly0]--></g></svg>