<svg xmlns="http://www.w3.org/2000/svg" xmlns:xlink="http://www.w3.org/1999/xlink" contentStyleType="text/css" data-diagram-type="SEQUENCE" height="1241px" preserveAspectRatio="none" style="width:937px;height:1241px;background:#FFFFFF;" version="1.1" viewBox="0 0 937 1241" width="937px" zoomAndPan="magnify"><title>Quantum Simulation Process &#8212; System Sequence Diagram</title><defs/><g><text fill="#000000" font-family="sans-serif" font-size="14" font-weight="bold" lengthAdjust="spacing" textLength="463.7432" x="233.0811" y="27.9951">Quantum Simulation Process &#8212; System Sequence Diagram</text><rect fill="none" height="1191.8516" rx="6" ry="6" style="stroke:#181818;stroke-width:0.5;" width="192.7646" x="306.3853" y="43.2969"/><text fill="#000000" font-family="sans-serif" font-size="13" font-weight="bold" lengthAdjust="spacing" textLength="131.644" x="336.9456" y="55.3638">QCanvas Platform</text><rect fill="none" height="1191.8516" rx="6" ry="6" style="stroke:#181818;stroke-width:0.5;" width="271.1797" x="546.3315" y="43.2969"/><text fill="#000000" font-family="sans-serif" font-size="13" font-weight="bold" lengthAdjust="spacing" textLength="146.834" x="608.5044" y="55.3638">QCanvas Simulation</text><g><title>Simulation Service</title><rect fill="#FFFFFF" height="268.1953" style="stroke:#181818;stroke-width:1;" width="10" x="397.7676" y="192.8594"/></g><g><title>&lt;&lt;external&gt;&gt;</title><rect fill="#FFFFFF" height="68.3984" style="stroke:#181818;stroke-width:1;" width="10" x="676.9214" y="612.3906"/></g><rect fill="none" height="76.2031" rx="6" ry="6" style="stroke:#000000;stroke-width:1.5;" width="495.1499" x="10" y="407.6563"/><rect fill="none" height="206.8672" rx="6" ry="6" style="stroke:#000000;stroke-width:1.5;" width="813.5112" x="10" y="627.3906"/><g><title>Researcher</title><rect fill="#000000" fill-opacity="0.00000" height="1037.2578" width="8" x="58.7612" y="118.5938"/><line style="stroke:#181818;stroke-width:0.5;stroke-dasharray:5.0,5.0;" x1="62" x2="62" y1="118.5938" y2="1155.8516"/></g><g><title>Simulation Service</title><rect fill="#000000" fill-opacity="0.00000" height="1037.2578" width="8" x="398.7676" y="118.5938"/><line style="stroke:#181818;stroke-width:0.5;stroke-dasharray:5.0,5.0;" x1="402.3853" x2="402.3853" y1="118.5938" y2="1155.8516"/></g><g><title>&lt;&lt;external&gt;&gt;</title><rect fill="#000000" fill-opacity="0.00000" height="1037.2578" width="8" x="677.9214" y="118.5938"/><line style="stroke:#181818;stroke-width:0.5;stroke-dasharray:5.0,5.0;" x1="681.3315" x2="681.3315" y1="118.5938" y2="1155.8516"/></g><g class="participant participant-head" data-participant="User"><text fill="#000000" font-family="sans-serif" font-size="14" lengthAdjust="spacing" textLength="79.5225" x="20" y="115.292">Researcher</text><ellipse cx="62.7612" cy="50.7969" fill="#E3E3E3" rx="8" ry="8" style="stroke:#181818;stroke-width:0.5;"/><path d="M62.7612,58.7969 L62.7612,85.7969 M49.7612,66.7969 L75.7612,66.7969 M62.7612,85.7969 L49.7612,100.7969 M62.7612,85.7969 L75.7612,100.7969" fill="none" style="stroke:#181818;stroke-width:0.5;"/></g><g class="participant participant-tail" data-participant="User"><text fill="#000000" font-family="sans-serif" font-size="14" lengthAdjust="spacing" textLength="79.5225" x="20" y="1167.8467">Researcher</text><ellipse cx="62.7612" cy="1179.6484" fill="#E3E3E3" rx="8" ry="8" style="stroke:#181818;stroke-width:0.5;"/><path d="M62.7612,1187.6484 L62.7612,1214.6484 M49.7612,1195.6484 L75.7612,1195.6484 M62.7612,1214.6484 L49.7612,1229.6484 M62.7612,1214.6484 L75.7612,1229.6484" fill="none" style="stroke:#181818;stroke-width:0.5;"/></g><g class="participant participant-head" data-participant="QCanvas"><rect fill="#E3E3E3" height="46.5938" rx="6" ry="6" style="stroke:#181818;stroke-width:0.5;" width="144.7646" x="330.3853" y="71"/><text fill="#000000" font-family="sans-serif" font-size="14" lengthAdjust="spacing" textLength="130.7646" x="337.3853" y="90.9951">Simulation Service</text><text fill="#000000" font-family="sans-serif" font-size="14" lengthAdjust="spacing" textLength="73.3291" x="366.103" y="107.292">(QCanvas)</text></g><g class="participant participant-tail" data-participant="QCanvas"><rect fill="#E3E3E3" height="46.5938" rx="6" ry="6" style="stroke:#181818;stroke-width:0.5;" width="144.7646" x="330.3853" y="1154.8516"/><text fill="#000000" font-family="sans-serif" font-size="14" lengthAdjust="spacing" textLength="130.7646" x="337.3853" y="1174.8467">Simulation Service</text><text fill="#000000" font-family="sans-serif" font-size="14" lengthAdjust="spacing" textLength="73.3291" x="366.103" y="1191.1436">(QCanvas)</text></g><g class="participant participant-head" data-participant="Backend"><rect fill="#E3E3E3" height="46.5938" rx="6" ry="6" style="stroke:#181818;stroke-width:0.5;" width="223.1797" x="570.3315" y="71"/><text fill="#000000" font-family="sans-serif" font-size="14" font-style="italic" lengthAdjust="spacing" textLength="75.3799" x="644.2314" y="90.9951">&#171;external&#187;</text><text fill="#000000" font-family="sans-serif" font-size="14" lengthAdjust="spacing" textLength="209.1797" x="577.3315" y="107.292">Quantum Simulation Backend</text></g><g class="participant participant-tail" data-participant="Backend"><rect fill="#E3E3E3" height="46.5938" rx="6" ry="6" style="stroke:#181818;stroke-width:0.5;" width="223.1797" x="570.3315" y="1154.8516"/><text fill="#000000" font-family="sans-serif" font-size="14" font-style="italic" lengthAdjust="spacing" textLength="75.3799" x="644.2314" y="1174.8467">&#171;external&#187;</text><text fill="#000000" font-family="sans-serif" font-size="14" lengthAdjust="spacing" textLength="209.1797" x="577.3315" y="1191.1436">Quantum Simulation Backend</text></g><g><title>Simulation Service</title><rect fill="#FFFFFF" height="268.1953" style="stroke:#181818;stroke-width:1;" width="10" x="397.7676" y="192.8594"/></g><g><title>&lt;&lt;external&gt;&gt;</title><rect fill="#FFFFFF" height="68.3984" style="stroke:#181818;stroke-width:1;" width="10" x="676.9214" y="612.3906"/></g><rect fill="#EEEEEE" height="3" rx="6" ry="6" style="stroke:#EEEEEE;stroke-width:1;" width="930.9053" x="0" y="149.1602"/><line style="stroke:#000000;stroke-width:1;" x1="0" x2="930.9053" y1="149.1602" y2="149.1602"/><line style="stroke:#000000;stroke-width:1;" x1="0" x2="930.9053" y1="152.1602" y2="152.1602"/><rect fill="#EEEEEE" height="23.1328" rx="6" ry="6" style="stroke:#000000;stroke-width:2;" width="109.9575" x="410.4739" y="138.5938"/><text fill="#000000" font-family="sans-serif" font-size="13" font-weight="bold" lengthAdjust="spacing" textLength="91.4316" x="416.4739" y="154.6606">Circuit Input</text><g class="message" data-participant-1="User" data-participant-2="QCanvas"><polygon fill="#181818" points="385.7676,188.8594,395.7676,192.8594,385.7676,196.8594,389.7676,192.8594" style="stroke:#181818;stroke-width:1;"/><line style="stroke:#181818;stroke-width:1;" x1="62.7612" x2="391.7676" y1="192.8594" y2="192.8594"/><text fill="#000000" font-family="sans-serif" font-size="13" font-weight="bold" lengthAdjust="spacing" textLength="9.0454" x="72.2612" y="187.7935">1</text><text fill="#000000" font-family="sans-serif" font-size="13" lengthAdjust="spacing" textLength="302.9609" x="85.3066" y="187.7935">submitForSimulation(circuitSource, simConfig)</text></g><g class="message" data-participant-1="QCanvas" data-participant-2="QCanvas"><line style="stroke:#181818;stroke-width:1;" x1="407.7676" x2="449.7676" y1="221.9922" y2="221.9922"/><line style="stroke:#181818;stroke-width:1;" x1="449.7676" x2="449.7676" y1="221.9922" y2="234.9922"/><line style="stroke:#181818;stroke-width:1;" x1="408.7676" x2="449.7676" y1="234.9922" y2="234.9922"/><polygon fill="#181818" points="418.7676,230.9922,408.7676,234.9922,418.7676,238.9922,414.7676,234.9922" style="stroke:#181818;stroke-width:1;"/><text fill="#000000" font-family="sans-serif" font-size="13" font-weight="bold" lengthAdjust="spacing" textLength="9.0454" x="414.7676" y="216.9263">2</text><text fill="#000000" font-family="sans-serif" font-size="13" lengthAdjust="spacing" textLength="93.9263" x="427.813" y="216.9263">sanitizeInput()</text></g><g class="message" data-participant-1="QCanvas" data-participant-2="QCanvas"><line style="stroke:#181818;stroke-width:1;" x1="407.7676" x2="449.7676" y1="279.2578" y2="279.2578"/><line style="stroke:#181818;stroke-width:1;" x1="449.7676" x2="449.7676" y1="279.2578" y2="292.2578"/><line style="stroke:#181818;stroke-width:1;" x1="408.7676" x2="449.7676" y1="292.2578" y2="292.2578"/><polygon fill="#181818" points="418.7676,288.2578,408.7676,292.2578,418.7676,296.2578,414.7676,292.2578" style="stroke:#181818;stroke-width:1;"/><text fill="#000000" font-family="sans-serif" font-size="13" font-weight="bold" lengthAdjust="spacing" textLength="9.0454" x="414.7676" y="266.6255">3</text><text fill="#000000" font-family="sans-serif" font-size="13" lengthAdjust="spacing" textLength="88.6069" x="439.3943" y="259.0591">parseCircuit()</text><text fill="#000000" font-family="sans-serif" font-size="13" lengthAdjust="spacing" textLength="111.7695" x="427.813" y="274.1919">&#8594; intermediateIR</text></g><rect fill="#EEEEEE" height="3" rx="6" ry="6" style="stroke:#EEEEEE;stroke-width:1;" width="930.9053" x="0" y="320.8242"/><line style="stroke:#000000;stroke-width:1;" x1="0" x2="930.9053" y1="320.8242" y2="320.8242"/><line style="stroke:#000000;stroke-width:1;" x1="0" x2="930.9053" y1="323.8242" y2="323.8242"/><rect fill="#EEEEEE" height="23.1328" rx="6" ry="6" style="stroke:#000000;stroke-width:2;" width="93.2061" x="418.8496" y="310.2578"/><text fill="#000000" font-family="sans-serif" font-size="13" font-weight="bold" lengthAdjust="spacing" textLength="74.6802" x="424.8496" y="326.3247">Validation</text><g class="message" data-participant-1="QCanvas" data-participant-2="QCanvas"><line style="stroke:#181818;stroke-width:1;" x1="407.7676" x2="449.7676" y1="379.6563" y2="379.6563"/><line style="stroke:#181818;stroke-width:1;" x1="449.7676" x2="449.7676" y1="379.6563" y2="392.6563"/><line style="stroke:#181818;stroke-width:1;" x1="408.7676" x2="449.7676" y1="392.6563" y2="392.6563"/><polygon fill="#181818" points="418.7676,388.6563,408.7676,392.6563,418.7676,396.6563,414.7676,392.6563" style="stroke:#181818;stroke-width:1;"/><text fill="#000000" font-family="sans-serif" font-size="13" font-weight="bold" lengthAdjust="spacing" textLength="9.0454" x="414.7676" y="367.0239">4</text><text fill="#000000" font-family="sans-serif" font-size="13" lengthAdjust="spacing" textLength="232.1084" x="427.813" y="359.4575">validate(intermediateIR, simConfig)</text><text fill="#000000" font-family="sans-serif" font-size="13" lengthAdjust="spacing" textLength="119.7803" x="483.9771" y="374.5903">&#8594; validationResult</text></g><path d="M16,407.6563 L74.4429,407.6563 L74.4429,414.7891 L64.4429,424.7891 L10,424.7891 L10,413.6563 A6,6 0 0 1 16,407.6563" fill="#EEEEEE" style="stroke:#000000;stroke-width:1.5;"/><rect fill="none" height="76.2031" rx="6" ry="6" style="stroke:#000000;stroke-width:1.5;" width="495.1499" x="10" y="407.6563"/><text fill="#000000" font-family="sans-serif" font-size="13" font-weight="bold" lengthAdjust="spacing" textLength="19.4429" x="25" y="420.7231">alt</text><text fill="#000000" font-family="sans-serif" font-size="11" font-weight="bold" lengthAdjust="spacing" textLength="103.3721" x="89.4429" y="419.8667">[Validation fails]</text><g class="message" data-participant-1="QCanvas" data-participant-2="User"><polygon fill="#181818" points="73.7612,457.0547,63.7612,461.0547,73.7612,465.0547,69.7612,461.0547" style="stroke:#181818;stroke-width:1;"/><line style="stroke:#181818;stroke-width:1;stroke-dasharray:2.0,2.0;" x1="67.7612" x2="401.7676" y1="461.0547" y2="461.0547"/><text fill="#000000" font-family="sans-serif" font-size="13" font-weight="bold" lengthAdjust="spacing" textLength="9.0454" x="151.4124" y="448.4224">5</text><text fill="#000000" font-family="sans-serif" font-size="13" lengthAdjust="spacing" textLength="149.6587" x="164.4578" y="440.856">validationError(details)</text><text fill="#000000" font-family="sans-serif" font-size="13" lengthAdjust="spacing" textLength="62.4419" x="208.0662" y="455.9888">HTTP 400</text></g><line style="stroke:#000000;stroke-width:1;stroke-dasharray:2.0,2.0;" x1="10" x2="505.1499" y1="470.0547" y2="470.0547"/><text fill="#000000" font-family="sans-serif" font-size="11" font-weight="bold" lengthAdjust="spacing" textLength="119.4746" x="15" y="480.2651">[Validation passes]</text><rect fill="#EEEEEE" height="3" rx="6" ry="6" style="stroke:#EEEEEE;stroke-width:1;" width="930.9053" x="0" y="511.4258"/><line style="stroke:#000000;stroke-width:1;" x1="0" x2="930.9053" y1="511.4258" y2="511.4258"/><line style="stroke:#000000;stroke-width:1;" x1="0" x2="930.9053" y1="514.4258" y2="514.4258"/><rect fill="#EEEEEE" height="23.1328" rx="6" ry="6" style="stroke:#000000;stroke-width:2;" width="97.2305" x="416.8374" y="500.8594"/><text fill="#000000" font-family="sans-serif" font-size="13" font-weight="bold" lengthAdjust="spacing" textLength="78.7046" x="422.8374" y="516.9263">Simulation</text><g class="message" data-participant-1="QCanvas" data-participant-2="QCanvas"><line style="stroke:#181818;stroke-width:1;" x1="402.7676" x2="444.7676" y1="570.2578" y2="570.2578"/><line style="stroke:#181818;stroke-width:1;" x1="444.7676" x2="444.7676" y1="570.2578" y2="583.2578"/><line style="stroke:#181818;stroke-width:1;" x1="403.7676" x2="444.7676" y1="583.2578" y2="583.2578"/><polygon fill="#181818" points="413.7676,579.2578,403.7676,583.2578,413.7676,587.2578,409.7676,583.2578" style="stroke:#181818;stroke-width:1;"/><text fill="#000000" font-family="sans-serif" font-size="13" font-weight="bold" lengthAdjust="spacing" textLength="9.0454" x="409.7676" y="557.6255">6</text><text fill="#000000" font-family="sans-serif" font-size="13" lengthAdjust="spacing" textLength="251.1069" x="422.813" y="550.0591">prepareJob(intermediateIR, simConfig)</text><text fill="#000000" font-family="sans-serif" font-size="13" lengthAdjust="spacing" textLength="66.4917" x="515.1206" y="565.1919">&#8594; jobSpec</text></g><g class="message" data-participant-1="QCanvas" data-participant-2="Backend"><polygon fill="#181818" points="664.9214,608.3906,674.9214,612.3906,664.9214,616.3906,668.9214,612.3906" style="stroke:#181818;stroke-width:1;"/><line style="stroke:#181818;stroke-width:1;" x1="402.7676" x2="670.9214" y1="612.3906" y2="612.3906"/><text fill="#000000" font-family="sans-serif" font-size="13" font-weight="bold" lengthAdjust="spacing" textLength="9.0454" x="456.9817" y="607.3247">7</text><text fill="#000000" font-family="sans-serif" font-size="13" lengthAdjust="spacing" textLength="152.6802" x="470.0271" y="607.3247">runSimulation(jobSpec)</text></g><path d="M16,627.3906 L74.4429,627.3906 L74.4429,634.5234 L64.4429,644.5234 L10,644.5234 L10,633.3906 A6,6 0 0 1 16,627.3906" fill="#EEEEEE" style="stroke:#000000;stroke-width:1.5;"/><rect fill="none" height="206.8672" rx="6" ry="6" style="stroke:#000000;stroke-width:1.5;" width="813.5112" x="10" y="627.3906"/><text fill="#000000" font-family="sans-serif" font-size="13" font-weight="bold" lengthAdjust="spacing" textLength="19.4429" x="25" y="640.4575">alt</text><text fill="#000000" font-family="sans-serif" font-size="11" font-weight="bold" lengthAdjust="spacing" textLength="84.5679" x="89.4429" y="639.6011">[Backend OK]</text><g class="message" data-participant-1="Backend" data-participant-2="QCanvas"><polygon fill="#181818" points="413.7676,676.7891,403.7676,680.7891,413.7676,684.7891,409.7676,680.7891" style="stroke:#181818;stroke-width:1;"/><line style="stroke:#181818;stroke-width:1;stroke-dasharray:2.0,2.0;" x1="407.7676" x2="680.9214" y1="680.7891" y2="680.7891"/><text fill="#000000" font-family="sans-serif" font-size="13" font-weight="bold" lengthAdjust="spacing" textLength="9.0454" x="453.7878" y="668.1567">8</text><text fill="#000000" font-family="sans-serif" font-size="13" lengthAdjust="spacing" textLength="74.7056" x="511.5144" y="660.5903">simResults,</text><text fill="#000000" font-family="sans-serif" font-size="13" lengthAdjust="spacing" textLength="164.0679" x="466.8333" y="675.7231">runReport(success=true)</text></g><g class="message" data-participant-1="QCanvas" data-participant-2="QCanvas"><line style="stroke:#181818;stroke-width:1;" x1="402.7676" x2="444.7676" y1="709.9219" y2="709.9219"/><line style="stroke:#181818;stroke-width:1;" x1="444.7676" x2="444.7676" y1="709.9219" y2="722.9219"/><line style="stroke:#181818;stroke-width:1;" x1="403.7676" x2="444.7676" y1="722.9219" y2="722.9219"/><polygon fill="#181818" points="413.7676,718.9219,403.7676,722.9219,413.7676,726.9219,409.7676,722.9219" style="stroke:#181818;stroke-width:1;"/><text fill="#000000" font-family="sans-serif" font-size="13" font-weight="bold" lengthAdjust="spacing" textLength="9.0454" x="409.7676" y="704.856">9</text><text fill="#000000" font-family="sans-serif" font-size="13" lengthAdjust="spacing" textLength="229.9312" x="422.813" y="704.856">persistAudit(simResults, metadata)</text></g><line style="stroke:#000000;stroke-width:1;stroke-dasharray:2.0,2.0;" x1="10" x2="823.5112" y1="731.9219" y2="731.9219"/><text fill="#000000" font-family="sans-serif" font-size="11" font-weight="bold" lengthAdjust="spacing" textLength="97.9849" x="15" y="742.1323">[Backend error]</text><g class="message" data-participant-1="Backend" data-participant-2="QCanvas"><polygon fill="#181818" points="413.7676,777.9922,403.7676,781.9922,413.7676,785.9922,409.7676,781.9922" style="stroke:#181818;stroke-width:1;"/><line style="stroke:#181818;stroke-width:1;stroke-dasharray:2.0,2.0;" x1="407.7676" x2="680.9214" y1="781.9922" y2="781.9922"/><text fill="#000000" font-family="sans-serif" font-size="13" font-weight="bold" lengthAdjust="spacing" textLength="18.0908" x="447.6116" y="769.3599">10</text><text fill="#000000" font-family="sans-serif" font-size="13" lengthAdjust="spacing" textLength="167.375" x="469.7024" y="761.7935">runReport(success=false,</text><text fill="#000000" font-family="sans-serif" font-size="13" lengthAdjust="spacing" textLength="43.8306" x="531.4746" y="776.9263">errors)</text></g><g class="message" data-participant-1="QCanvas" data-participant-2="User"><polygon fill="#181818" points="73.7612,822.2578,63.7612,826.2578,73.7612,830.2578,69.7612,826.2578" style="stroke:#181818;stroke-width:1;"/><line style="stroke:#181818;stroke-width:1;stroke-dasharray:2.0,2.0;" x1="67.7612" x2="401.7676" y1="826.2578" y2="826.2578"/><text fill="#000000" font-family="sans-serif" font-size="13" font-weight="bold" lengthAdjust="spacing" textLength="18.0908" x="147.2832" y="813.6255">11</text><text fill="#000000" font-family="sans-serif" font-size="13" lengthAdjust="spacing" textLength="148.8716" x="169.374" y="806.0591">simulationError(errors)</text><text fill="#000000" font-family="sans-serif" font-size="13" lengthAdjust="spacing" textLength="62.4419" x="212.5889" y="821.1919">HTTP 502</text></g><rect fill="#EEEEEE" height="3" rx="6" ry="6" style="stroke:#EEEEEE;stroke-width:1;" width="930.9053" x="0" y="861.8242"/><line style="stroke:#000000;stroke-width:1;" x1="0" x2="930.9053" y1="861.8242" y2="861.8242"/><line style="stroke:#000000;stroke-width:1;" x1="0" x2="930.9053" y1="864.8242" y2="864.8242"/><rect fill="#EEEEEE" height="23.1328" rx="6" ry="6" style="stroke:#000000;stroke-width:2;" width="72.7539" x="429.0757" y="851.2578"/><text fill="#000000" font-family="sans-serif" font-size="13" font-weight="bold" lengthAdjust="spacing" textLength="54.228" x="435.0757" y="867.3247">Results</text><g class="message" data-participant-1="QCanvas" data-participant-2="QCanvas"><line style="stroke:#181818;stroke-width:1;" x1="402.7676" x2="444.7676" y1="920.6563" y2="920.6563"/><line style="stroke:#181818;stroke-width:1;" x1="444.7676" x2="444.7676" y1="920.6563" y2="933.6563"/><line style="stroke:#181818;stroke-width:1;" x1="403.7676" x2="444.7676" y1="933.6563" y2="933.6563"/><polygon fill="#181818" points="413.7676,929.6563,403.7676,933.6563,413.7676,937.6563,409.7676,933.6563" style="stroke:#181818;stroke-width:1;"/><text fill="#000000" font-family="sans-serif" font-size="13" font-weight="bold" lengthAdjust="spacing" textLength="18.0908" x="409.7676" y="908.0239">12</text><text fill="#000000" font-family="sans-serif" font-size="13" lengthAdjust="spacing" textLength="171.8438" x="431.8584" y="900.4575">formatResults(simResults)</text><text fill="#000000" font-family="sans-serif" font-size="13" lengthAdjust="spacing" textLength="97.3477" x="469.1064" y="915.5903">&#8594; resultBundle</text></g><g class="message" data-participant-1="QCanvas" data-participant-2="User"><polygon fill="#181818" points="73.7612,973.9219,63.7612,977.9219,73.7612,981.9219,69.7612,977.9219" style="stroke:#181818;stroke-width:1;"/><line style="stroke:#181818;stroke-width:1;stroke-dasharray:2.0,2.0;" x1="67.7612" x2="401.7676" y1="977.9219" y2="977.9219"/><text fill="#000000" font-family="sans-serif" font-size="13" font-weight="bold" lengthAdjust="spacing" textLength="18.0908" x="127.2468" y="965.2896">13</text><text fill="#000000" font-family="sans-serif" font-size="13" lengthAdjust="spacing" textLength="188.9443" x="149.3376" y="957.7231">simulationSummary(resultId,</text><text fill="#000000" font-family="sans-serif" font-size="13" lengthAdjust="spacing" textLength="142.1621" x="172.7288" y="972.856">shots, duration, seed)</text></g><g class="message" data-participant-1="QCanvas" data-participant-2="User"><polygon fill="#181818" points="73.7612,1018.1875,63.7612,1022.1875,73.7612,1026.1875,69.7612,1022.1875" style="stroke:#181818;stroke-width:1;"/><line style="stroke:#181818;stroke-width:1;stroke-dasharray:2.0,2.0;" x1="67.7612" x2="401.7676" y1="1022.1875" y2="1022.1875"/><text fill="#000000" font-family="sans-serif" font-size="13" font-weight="bold" lengthAdjust="spacing" textLength="18.0908" x="140.4785" y="1009.5552">14</text><text fill="#000000" font-family="sans-serif" font-size="13" lengthAdjust="spacing" textLength="162.481" x="162.5693" y="1001.9888">downloadLink(resultURL)</text><text fill="#000000" font-family="sans-serif" font-size="13" lengthAdjust="spacing" textLength="62.4419" x="212.5889" y="1017.1216">HTTP 200</text></g><path d="M686,1041.1875 L686,1084.1875 A6,6 0 0 0 692,1090.1875 L919,1090.1875 A6,6 0 0 0 925,1084.1875 L925,1045.1875 L915,1035.1875 L692,1035.1875 A6,6 0 0 0 686,1041.1875" fill="#FAFAFA" style="stroke:#181818;stroke-width:0.5;"/><path d="M915,1035.1875 L915,1042.1875 A3,3 0 0 0 918,1045.1875 L925,1045.1875 L915,1035.1875" fill="#FAFAFA" style="stroke:#181818;stroke-width:0.5;"/><text fill="#000000" font-family="sans-serif" font-size="13" lengthAdjust="spacing" textLength="69.856" x="692" y="1052.2544">&#171;external&#187;</text><text fill="#000000" font-family="sans-serif" font-size="13" lengthAdjust="spacing" textLength="218.9053" x="692" y="1067.3872">May be a cluster scheduler, cloud</text><text fill="#000000" font-family="sans-serif" font-size="13" lengthAdjust="spacing" textLength="203.1504" x="692" y="1082.52">service, or native HPC runtime.</text><path d="M270,1106.5859 L270,1134.5859 A6,6 0 0 0 276,1140.5859 L528,1140.5859 A6,6 0 0 0 534,1134.5859 L534,1110.5859 L524,1100.5859 L276,1100.5859 A6,6 0 0 0 270,1106.5859" fill="#FAFAFA" style="stroke:#181818;stroke-width:0.5;"/><path d="M524,1100.5859 L524,1107.5859 A3,3 0 0 0 527,1110.5859 L534,1110.5859 L524,1100.5859" fill="#FAFAFA" style="stroke:#181818;stroke-width:0.5;"/><text fill="#000000" font-family="sans-serif" font-size="13" lengthAdjust="spacing" textLength="208.3047" x="276" y="1117.6528">Validation covers circuit syntax,</text><text fill="#000000" font-family="sans-serif" font-size="13" lengthAdjust="spacing" textLength="243.3564" x="276" y="1132.7856">device constraints, and config sanity.</text><!--SRC=[XLNDRXit4BxlKmpKGrQ073X62nH6Oa1MKcHRsL6qaa- -KEH8OhnBRlaZMmq2zDG7AFg4UP8EzqUY4CdMISkP-MRccuz39rs1yDapvNm9kInzmPpK2YP6SxGMll_z7-HRwv2i-AT7nH7UIxOoh4oILt16FxYJrhC2rjkLH8NrMM8VfAeOUK6fbUPheqi4Ppn65hjcGZzAjO8bAsniCTehmRLHQE3DHMGO6gCVPsl97rIexaracZ3Z99SLjJ9XGWJOY_F8VgsVklDVuoAwhhuc06Evn48glDP6e8dpH3R67rPrWIDTQ0EFQ-cGx3Vao5OuBEHA0KVbq2JVTXn5rTc68SOTHVUcQ94PlaRJ0sPXRYbieP-Wztd4r8PE9ZIHfJPb3tvoXYbBPHCu9QpsaD2BHfUZsKYEzofj8VerSlkHe1902GwJxCEVJtD4AO4FmgnpjF_XxLjyeluLAwwkTWaJvfrMlbnGXqJBksC_66NJqJoRGNOxcS-E-oJ1JHhkfODCLTwHMn9uWxEhhaku1EiNfNI_QRElDULDMAwzuJW0AykHLakvweTfo0rpkAEf0ph4P4ew-HVMQTF-SISYp69RODg_Lz__-HTaa4E9GbAAR7gw_RlXE7i_d6MVRa_tViSAAHhkwU1e2Pl61TF3l777JLsR7HRfq1SkOOMB4ooPB2o9O9U5qjHKNqQX7-XIcbIW2yu4_74scy3Fv-SK9_07Of6kUfoYOjPYoF4Agh1qK0J5dAOepsxcunSeYkHvYgBAO93uxthn8abVz2AlaCSudT0lmNWL2QnrZVJKUjR4Tb6V_g1sku-pGuN9ifc47TmhmfvYfOrBhUTX7RyB6xH_o6kN81hIGPzehBHkw0MfCKA7akP58s3zPY9TEHY6URAy7okgLpVLMiVPbslR2yZkQ6i4r2Aq-ldb_EA4VfuJn_H3FX_FyjFAQDi_AOkmQPbhlIA-MYcO-kkQbd-1oRCzvRuicTccJKGcY2Axre5uuKtjGK8ZiVUFmT2pg0hDn5YgXnPXFXrtr5pGrJf2JFVKt6g75bAbrPcgkv4Rx3TlZY8J6BbQEz3BtNGEjlKDsy82WG4lF3tx1YozJS8NQ0PqfBr8RFE-382UBrMZmyV9A4Z3oH9Vr_i-94gQT7f385sDqRtdmM2XNSbWjygnfm4r5i39gYozGtGrYJ56YBo-aSq6tkwJ_0y0]--></g></svg>