<?xml version="1.0" encoding="utf-8"?>
<svg width="800px" height="800px" viewBox="0 0 16 16" fill="none" xmlns="http://www.w3.org/2000/svg">
  <path d="M8 3L10.5 2.5L11 0H12L12.5 2.5L15 3V4L12.5 4.5L12 7H11L10.5 4.5L8 4V3Z"
    fill="#000000"
    fill-opacity="0"
    stroke="#000000"
    stroke-width="0.6"
    stroke-linecap="round"
    stroke-linejoin="round"
    stroke-dasharray="26"
    stroke-dashoffset="26">
    <animate fill="freeze" attributeName="stroke-dashoffset" begin="0.00s" dur="0.34s" to="0" />
    <animate fill="freeze" attributeName="fill-opacity" begin="0.24s" dur="0.10s" to="1" />
  </path>

  <path d="M0 11V10L4 9L5 5H6L7 9L11 10V11L7 12L6 16H5L4 12L0 11Z"
    fill="#000000"
    fill-opacity="0"
    stroke="#000000"
    stroke-width="0.6"
    stroke-linecap="round"
    stroke-linejoin="round"
    stroke-dasharray="36"
    stroke-dashoffset="36">
    <animate fill="freeze" attributeName="stroke-dashoffset" begin="0.16s" dur="0.42s" to="0" />
    <animate fill="freeze" attributeName="fill-opacity" begin="0.46s" dur="0.12s" to="1" />
  </path>

  <path d="M1 2L2.5 0.5L4 2L2.5 3.5L1 2Z"
    fill="#000000"
    fill-opacity="0"
    stroke="#000000"
    stroke-width="0.55"
    stroke-linecap="round"
    stroke-linejoin="round"
    stroke-dasharray="8"
    stroke-dashoffset="8">
    <animate fill="freeze" attributeName="stroke-dashoffset" begin="0.44s" dur="0.18s" to="0" />
    <animate fill="freeze" attributeName="fill-opacity" begin="0.56s" dur="0.06s" to="1" />
  </path>

  <path d="M15 14L13 12L11 14L13 16L15 14Z"
    fill="#000000"
    fill-opacity="0"
    stroke="#000000"
    stroke-width="0.55"
    stroke-linecap="round"
    stroke-linejoin="round"
    stroke-dasharray="10"
    stroke-dashoffset="10">
    <animate fill="freeze" attributeName="stroke-dashoffset" begin="0.50s" dur="0.18s" to="0" />
    <animate fill="freeze" attributeName="fill-opacity" begin="0.62s" dur="0.06s" to="1" />
  </path>

  <path d="M15 10C15.5523 10 16 9.55229 16 9C16 8.44771 15.5523 8 15 8C14.4477 8 14 8.44771 14 9C14 9.55229 14.4477 10 15 10Z"
    fill="#000000"
    fill-opacity="0"
    stroke="#000000"
    stroke-width="0.5"
    stroke-linecap="round"
    stroke-linejoin="round"
    stroke-dasharray="7"
    stroke-dashoffset="7">
    <animate fill="freeze" attributeName="stroke-dashoffset" begin="0.58s" dur="0.16s" to="0" />
    <animate fill="freeze" attributeName="fill-opacity" begin="0.68s" dur="0.06s" to="1" />
  </path>
</svg>
