<svg xmlns="http://www.w3.org/2000/svg" xmlns:xlink="http://www.w3.org/1999/xlink" width="500" zoomAndPan="magnify" viewBox="0 0 375 374.999991" height="500" preserveAspectRatio="xMidYMid meet" version="1.0"><defs><clipPath id="4d59e12e8c"><path d="M 1.019531 0.144531 L 170.878906 0.144531 L 170.878906 336.65625 L 1.019531 336.65625 Z M 1.019531 0.144531 " clip-rule="nonzero"/></clipPath><clipPath id="e54eac2840"><path d="M 178 148 L 331.277344 148 L 331.277344 189 L 178 189 Z M 178 148 " clip-rule="nonzero"/></clipPath><clipPath id="b3059b5a60"><rect x="0" width="333" y="0" height="337"/></clipPath></defs><g transform="matrix(1, 0, 0, 1, 21, 24)"><g clip-path="url(#b3059b5a60)"><g clip-path="url(#4d59e12e8c)"><path fill="#000000" d="M 169.140625 147.800781 C 157.800781 147.800781 148.402344 156.925781 148.402344 168.261719 C 148.402344 179.597656 157.800781 188.722656 169.140625 188.722656 C 180.476562 188.722656 189.878906 179.597656 189.878906 168.261719 C 189.878906 156.925781 180.476562 147.800781 169.140625 147.800781 Z M 169.140625 177.664062 C 163.886719 177.664062 159.460938 173.515625 159.460938 168.261719 C 159.460938 163.007812 163.886719 158.859375 169.140625 158.859375 C 174.390625 158.859375 178.816406 163.007812 178.816406 168.261719 C 178.816406 173.515625 174.390625 177.664062 169.140625 177.664062 Z M 244.902344 125.679688 C 238.542969 114.617188 222.230469 111.300781 201.214844 115.171875 C 194.023438 95.539062 182.964844 83.097656 169.96875 83.097656 C 156.972656 83.097656 145.910156 95.261719 138.722656 115.171875 C 117.984375 111.300781 101.671875 114.617188 95.035156 125.679688 C 91.992188 130.65625 91.441406 137.015625 93.375 143.929688 C 95.3125 151.394531 100.5625 159.964844 107.753906 168.261719 C 100.5625 176.554688 95.3125 184.851562 93.375 192.59375 C 91.441406 199.507812 91.992188 205.867188 95.035156 210.84375 C 99.734375 219.140625 109.964844 223.011719 123.238281 223.011719 C 127.9375 223.011719 133.191406 222.457031 138.722656 221.628906 C 145.910156 241.261719 156.972656 253.703125 169.96875 253.703125 C 182.964844 253.703125 194.023438 241.535156 201.214844 221.628906 C 206.746094 222.734375 211.722656 223.011719 216.699219 223.011719 C 229.972656 223.011719 240.203125 219.140625 244.902344 210.84375 C 247.945312 205.867188 248.496094 199.507812 246.5625 192.59375 C 244.625 185.128906 239.371094 176.554688 232.183594 168.261719 C 239.371094 159.964844 244.625 151.671875 246.5625 143.929688 C 248.496094 137.015625 247.945312 130.65625 244.902344 125.679688 Z M 170.246094 94.15625 C 177.433594 94.15625 184.898438 102.726562 190.429688 117.660156 C 184.070312 119.59375 177.15625 121.808594 170.246094 124.847656 C 163.332031 121.808594 156.417969 119.320312 150.058594 117.660156 C 155.589844 102.726562 163.054688 94.15625 170.246094 94.15625 Z M 198.449219 168.261719 C 198.449219 173.792969 198.171875 178.769531 197.894531 183.746094 C 193.75 186.789062 189.046875 189.550781 184.347656 192.316406 C 179.644531 195.082031 174.667969 197.570312 170.246094 199.507812 C 165.542969 197.292969 160.84375 194.804688 156.144531 192.316406 C 151.441406 189.550781 147.019531 186.789062 142.59375 183.746094 C 142.039062 178.769531 142.039062 173.515625 142.039062 168.261719 C 142.039062 163.007812 142.316406 157.753906 142.59375 152.777344 C 146.742188 149.734375 151.441406 146.96875 156.144531 144.203125 C 160.84375 141.441406 165.542969 138.953125 170.246094 137.015625 C 174.945312 139.226562 179.644531 141.441406 184.347656 144.203125 C 189.046875 146.96875 193.472656 149.734375 197.894531 152.777344 C 198.171875 157.753906 198.449219 162.730469 198.449219 168.261719 Z M 209.507812 161.347656 C 212.273438 163.5625 214.761719 165.773438 217.25 168.261719 C 214.761719 170.472656 212.273438 172.960938 209.507812 175.175781 C 209.507812 172.960938 209.507812 170.75 209.507812 168.261719 C 209.507812 165.773438 209.507812 163.5625 209.507812 161.347656 Z M 195.960938 198.402344 C 195.40625 201.996094 194.578125 205.3125 193.75 208.355469 C 190.429688 207.527344 187.113281 206.417969 183.792969 205.3125 C 185.730469 204.207031 187.664062 203.101562 189.878906 201.996094 C 191.8125 200.613281 194.023438 199.507812 195.960938 198.402344 Z M 156.695312 205.3125 C 153.378906 206.417969 150.058594 207.527344 146.742188 208.355469 C 145.910156 205.3125 145.082031 201.71875 144.53125 198.402344 C 146.464844 199.507812 148.675781 200.890625 150.613281 201.996094 C 152.546875 203.101562 154.484375 204.207031 156.695312 205.3125 Z M 130.980469 175.175781 C 128.214844 172.960938 125.726562 170.75 123.238281 168.261719 C 125.726562 166.050781 128.214844 163.5625 130.980469 161.347656 C 130.980469 163.5625 130.980469 165.773438 130.980469 168.261719 C 130.980469 170.75 130.980469 172.960938 130.980469 175.175781 Z M 144.53125 138.121094 C 145.082031 134.527344 145.910156 131.207031 146.742188 128.167969 C 150.058594 128.996094 153.378906 130.101562 156.695312 131.207031 C 154.761719 132.316406 152.824219 133.421875 150.613281 134.527344 C 148.402344 135.910156 146.464844 137.015625 144.53125 138.121094 Z M 189.878906 134.527344 C 187.941406 133.421875 186.007812 132.316406 183.792969 131.207031 C 187.113281 130.101562 190.429688 128.996094 193.75 128.167969 C 194.578125 131.207031 195.40625 134.804688 195.960938 138.121094 C 194.023438 137.015625 191.8125 135.910156 189.878906 134.527344 Z M 104.988281 131.207031 C 107.476562 126.785156 114.113281 124.574219 123.238281 124.574219 C 127.109375 124.574219 131.257812 124.847656 135.679688 125.679688 C 134.023438 132.039062 132.640625 139.226562 131.808594 146.695312 C 125.726562 151.117188 120.195312 155.820312 115.496094 160.242188 C 109.6875 153.605469 105.816406 146.96875 104.160156 141.164062 C 103.328125 137.015625 103.605469 133.699219 104.988281 131.207031 Z M 104.988281 205.3125 C 103.605469 202.824219 103.328125 199.507812 104.433594 195.359375 C 106.09375 189.550781 109.964844 182.917969 115.773438 176.28125 C 120.75 180.980469 126.003906 185.40625 132.085938 189.828125 C 132.914062 197.292969 134.296875 204.207031 135.957031 210.84375 C 119.921875 213.609375 108.582031 211.398438 104.988281 205.3125 Z M 170.246094 242.367188 C 163.054688 242.367188 155.589844 233.792969 150.058594 218.863281 C 156.417969 216.925781 163.332031 214.714844 170.246094 211.671875 C 177.15625 214.714844 184.070312 217.203125 190.429688 218.863281 C 184.898438 233.792969 177.433594 242.367188 170.246094 242.367188 Z M 235.5 205.3125 C 231.90625 211.398438 220.570312 213.609375 204.53125 210.84375 C 206.191406 204.484375 207.574219 197.292969 208.402344 189.828125 C 214.488281 185.40625 220.015625 180.703125 224.71875 176.28125 C 230.523438 182.917969 234.394531 189.550781 236.054688 195.359375 C 237.160156 199.507812 236.882812 202.824219 235.5 205.3125 Z M 236.054688 141.164062 C 234.394531 146.96875 230.523438 153.605469 224.71875 160.242188 C 219.738281 155.542969 214.488281 151.117188 208.402344 146.695312 C 207.574219 139.226562 206.191406 132.316406 204.53125 125.679688 C 208.957031 124.847656 213.378906 124.574219 216.976562 124.574219 C 226.375 124.574219 232.734375 126.785156 235.226562 131.207031 C 236.882812 133.699219 237.160156 137.015625 236.054688 141.164062 Z M 337.535156 91.667969 L 337.535156 80.609375 L 315.964844 80.609375 L 315.964844 69.546875 C 315.964844 66.503906 313.476562 64.015625 310.433594 64.015625 L 296.886719 64.015625 C 294.398438 52.402344 285.273438 43.277344 273.660156 40.789062 L 273.660156 27.242188 C 273.660156 24.199219 271.171875 21.710938 268.128906 21.710938 L 257.070312 21.710938 L 257.070312 0.144531 L 246.007812 0.144531 L 246.007812 21.710938 L 215.867188 21.710938 L 215.867188 0.144531 L 204.808594 0.144531 L 204.808594 21.710938 L 174.667969 21.710938 L 174.667969 0.144531 L 163.609375 0.144531 L 163.609375 21.710938 L 133.46875 21.710938 L 133.46875 0.144531 L 122.410156 0.144531 L 122.410156 21.710938 L 92.546875 21.710938 L 92.546875 0.144531 L 81.484375 0.144531 L 81.484375 21.710938 L 70.425781 21.710938 C 67.382812 21.710938 64.894531 24.199219 64.894531 27.242188 L 64.894531 40.789062 C 53.28125 43.277344 44.15625 52.402344 41.667969 64.015625 L 28.117188 64.015625 C 25.078125 64.015625 22.589844 66.503906 22.589844 69.546875 L 22.589844 80.609375 L 1.019531 80.609375 L 1.019531 91.667969 L 22.589844 91.667969 L 22.589844 121.808594 L 1.019531 121.808594 L 1.019531 132.867188 L 22.589844 132.867188 L 22.589844 162.730469 L 1.019531 162.730469 L 1.019531 173.792969 L 22.589844 173.792969 L 22.589844 203.929688 L 1.019531 203.929688 L 1.019531 214.992188 L 22.589844 214.992188 L 22.589844 245.132812 L 1.019531 245.132812 L 1.019531 256.191406 L 22.589844 256.191406 L 22.589844 267.253906 C 22.589844 270.292969 25.078125 272.78125 28.117188 272.78125 L 41.667969 272.78125 C 44.15625 284.394531 53.28125 293.519531 64.894531 296.007812 L 64.894531 309.558594 C 64.894531 312.601562 67.382812 315.089844 70.425781 315.089844 L 81.484375 315.089844 L 81.484375 336.65625 L 92.546875 336.65625 L 92.546875 315.089844 L 122.683594 315.089844 L 122.683594 336.65625 L 133.746094 336.65625 L 133.746094 315.089844 L 163.609375 315.089844 L 163.609375 336.65625 L 174.667969 336.65625 L 174.667969 315.089844 L 204.808594 315.089844 L 204.808594 336.65625 L 215.867188 336.65625 L 215.867188 315.089844 L 246.007812 315.089844 L 246.007812 336.65625 L 257.070312 336.65625 L 257.070312 315.089844 L 268.128906 315.089844 C 271.171875 315.089844 273.660156 312.601562 273.660156 309.558594 L 273.660156 296.007812 C 285.273438 293.519531 294.398438 284.394531 296.886719 272.78125 L 310.4375 272.78125 C 313.476562 272.78125 315.964844 270.292969 315.964844 267.253906 L 315.964844 256.191406 L 337.535156 256.191406 L 337.535156 245.132812 L 315.964844 245.132812 L 315.964844 214.992188 L 337.535156 214.992188 L 337.535156 203.929688 L 315.964844 203.929688 L 315.964844 173.792969 L 337.535156 173.792969 L 337.535156 162.730469 L 315.964844 162.730469 L 315.964844 132.589844 L 337.535156 132.589844 L 337.535156 121.53125 L 315.964844 121.53125 L 315.964844 91.667969 Z M 75.679688 32.496094 L 262.324219 32.496094 L 262.324219 39.683594 L 75.679688 39.683594 Z M 33.371094 74.800781 L 40.5625 74.800781 L 40.5625 261.445312 L 33.371094 261.445312 Z M 262.597656 304.027344 L 75.679688 304.027344 L 75.679688 296.839844 L 262.324219 296.839844 L 262.324219 304.027344 Z M 266.746094 285.777344 L 71.53125 285.777344 C 60.46875 285.777344 51.621094 276.929688 51.621094 265.871094 L 51.621094 70.652344 C 51.621094 59.59375 60.46875 50.746094 71.53125 50.746094 L 266.746094 50.746094 C 277.808594 50.746094 286.65625 59.59375 286.65625 70.652344 L 286.65625 265.871094 C 286.65625 276.652344 277.53125 285.777344 266.746094 285.777344 Z M 304.90625 261.722656 L 297.714844 261.722656 L 297.714844 74.800781 L 304.90625 74.800781 Z M 304.90625 261.722656 " fill-opacity="1" fill-rule="nonzero"/></g><path fill="#1800ad" d="M 274.167969 264.308594 C 268.613281 264.304688 263.535156 266.574219 259.898438 270.21875 C 257.347656 272.765625 255.496094 276.023438 254.601562 279.648438 L 183.136719 279.648438 C 180.464844 279.648438 178.296875 281.816406 178.296875 284.488281 C 178.296875 287.160156 180.464844 289.328125 183.136719 289.328125 L 254.601562 289.328125 C 255.496094 292.953125 257.351562 296.210938 259.898438 298.757812 C 263.535156 302.402344 268.613281 304.667969 274.167969 304.664062 C 279.726562 304.667969 284.800781 302.398438 288.4375 298.757812 C 292.082031 295.121094 294.347656 290.042969 294.347656 284.488281 C 294.347656 278.929688 292.082031 273.855469 288.4375 270.21875 C 284.800781 266.574219 279.726562 264.304688 274.167969 264.308594 Z M 281.59375 291.910156 C 279.675781 293.820312 277.082031 294.984375 274.167969 294.988281 C 271.253906 294.984375 268.660156 293.820312 266.742188 291.910156 C 264.835938 289.996094 263.671875 287.402344 263.667969 284.488281 C 263.671875 281.570312 264.835938 278.976562 266.742188 277.0625 C 268.660156 275.15625 271.253906 273.988281 274.167969 273.988281 C 277.082031 273.988281 279.675781 275.15625 281.59375 277.0625 C 283.5 278.976562 284.664062 281.570312 284.667969 284.488281 C 284.664062 287.402344 283.5 289.996094 281.59375 291.910156 Z M 281.59375 291.910156 " fill-opacity="1" fill-rule="nonzero"/><path fill="#1800ad" d="M 183.136719 57.960938 L 254.601562 57.960938 C 255.496094 61.585938 257.351562 64.84375 259.898438 67.390625 C 263.535156 71.035156 268.613281 73.300781 274.167969 73.300781 C 279.726562 73.300781 284.800781 71.035156 288.4375 67.390625 C 292.082031 63.753906 294.347656 58.679688 294.347656 53.121094 C 294.347656 47.566406 292.082031 42.488281 288.4375 38.851562 C 284.800781 35.210938 279.726562 32.941406 274.167969 32.945312 C 268.613281 32.941406 263.535156 35.210938 259.898438 38.855469 C 257.351562 41.398438 255.496094 44.65625 254.601562 48.285156 L 183.136719 48.285156 C 180.464844 48.285156 178.296875 50.449219 178.296875 53.121094 C 178.296875 55.792969 180.464844 57.960938 183.136719 57.960938 Z M 266.742188 45.695312 C 268.660156 43.789062 271.253906 42.625 274.167969 42.621094 C 277.082031 42.625 279.675781 43.789062 281.59375 45.695312 C 283.5 47.613281 284.664062 50.207031 284.667969 53.121094 C 284.664062 56.035156 283.5 58.628906 281.59375 60.546875 C 279.675781 62.453125 277.082031 63.617188 274.167969 63.621094 C 271.253906 63.617188 268.660156 62.453125 266.742188 60.546875 C 264.835938 58.628906 263.671875 56.035156 263.667969 53.121094 C 263.671875 50.207031 264.835938 47.613281 266.742188 45.695312 Z M 266.742188 45.695312 " fill-opacity="1" fill-rule="nonzero"/><path fill="#1800ad" d="M 281.105469 203.683594 C 275.550781 203.679688 270.476562 205.949219 266.839844 209.59375 C 264.289062 212.136719 262.433594 215.398438 261.539062 219.023438 L 218.199219 219.023438 C 216.347656 219.023438 214.640625 220.09375 213.835938 221.761719 L 203.734375 242.753906 L 203.46875 243.308594 L 183.136719 243.308594 C 180.464844 243.308594 178.300781 245.472656 178.300781 248.144531 C 178.300781 250.820312 180.464844 252.984375 183.136719 252.984375 L 206.511719 252.984375 C 208.363281 252.984375 210.070312 251.914062 210.871094 250.246094 L 216.023438 239.535156 L 221.242188 228.699219 L 261.539062 228.699219 C 262.433594 232.328125 264.289062 235.585938 266.839844 238.128906 C 270.476562 241.773438 275.550781 244.042969 281.105469 244.039062 C 286.664062 244.042969 291.738281 241.773438 295.375 238.128906 C 299.019531 234.492188 301.289062 229.417969 301.285156 223.863281 C 301.289062 218.304688 299.019531 213.230469 295.375 209.59375 C 291.738281 205.949219 286.664062 203.679688 281.105469 203.683594 Z M 288.53125 231.285156 C 286.617188 233.191406 284.023438 234.359375 281.105469 234.359375 C 278.191406 234.359375 275.597656 233.191406 273.683594 231.285156 C 271.773438 229.371094 270.609375 226.777344 270.605469 223.859375 C 270.609375 220.945312 271.773438 218.351562 273.683594 216.4375 C 275.597656 214.527344 278.191406 213.363281 281.105469 213.359375 C 284.023438 213.363281 286.617188 214.527344 288.53125 216.4375 C 290.4375 218.351562 291.605469 220.945312 291.605469 223.859375 C 291.605469 226.777344 290.4375 229.371094 288.53125 231.285156 Z M 288.53125 231.285156 " fill-opacity="1" fill-rule="nonzero"/><path fill="#1800ad" d="M 183.136719 93.414062 L 203.46875 93.414062 L 203.738281 93.96875 L 213.835938 114.957031 C 214.640625 116.628906 216.347656 117.699219 218.199219 117.699219 L 261.539062 117.699219 C 262.433594 121.324219 264.289062 124.582031 266.839844 127.128906 C 270.476562 130.773438 275.550781 133.039062 281.105469 133.039062 C 286.664062 133.042969 291.738281 130.773438 295.375 127.128906 C 299.019531 123.492188 301.289062 118.417969 301.285156 112.863281 C 301.289062 107.304688 299.019531 102.230469 295.375 98.59375 C 291.738281 94.949219 286.664062 92.679688 281.105469 92.683594 C 275.550781 92.679688 270.476562 94.949219 266.839844 98.59375 C 264.289062 101.136719 262.433594 104.394531 261.539062 108.023438 L 221.238281 108.023438 L 216.023438 97.1875 L 210.871094 86.480469 C 210.066406 84.808594 208.363281 83.738281 206.511719 83.738281 L 183.136719 83.738281 C 180.464844 83.738281 178.296875 85.90625 178.296875 88.578125 C 178.296875 91.246094 180.464844 93.414062 183.136719 93.414062 Z M 281.105469 102.359375 C 284.023438 102.363281 286.617188 103.527344 288.53125 105.4375 C 290.4375 107.351562 291.605469 109.945312 291.605469 112.859375 C 291.605469 115.777344 290.4375 118.371094 288.53125 120.285156 C 286.617188 122.191406 284.023438 123.359375 281.105469 123.359375 C 278.191406 123.359375 275.597656 122.191406 273.683594 120.285156 C 271.773438 118.371094 270.609375 115.777344 270.605469 112.859375 C 270.609375 109.945312 271.773438 107.351562 273.683594 105.4375 C 275.597656 103.527344 278.191406 102.363281 281.105469 102.359375 Z M 281.105469 102.359375 " fill-opacity="1" fill-rule="nonzero"/><g clip-path="url(#e54eac2840)"><path fill="#1800ad" d="M 326.054688 154.09375 C 322.417969 150.449219 317.34375 148.179688 311.785156 148.179688 C 306.230469 148.179688 301.152344 150.449219 297.515625 154.09375 C 294.964844 156.636719 293.113281 159.894531 292.21875 163.519531 L 183.136719 163.519531 C 180.464844 163.519531 178.296875 165.6875 178.296875 168.359375 C 178.296875 171.03125 180.464844 173.199219 183.136719 173.199219 L 292.21875 173.199219 C 293.113281 176.824219 294.964844 180.082031 297.515625 182.628906 C 301.152344 186.273438 306.230469 188.539062 311.785156 188.539062 C 317.34375 188.542969 322.417969 186.273438 326.054688 182.628906 C 329.699219 178.992188 331.964844 173.917969 331.964844 168.359375 C 331.964844 162.804688 329.699219 157.730469 326.054688 154.09375 Z M 319.210938 175.785156 C 317.292969 177.691406 314.699219 178.859375 311.785156 178.859375 C 308.871094 178.859375 306.277344 177.691406 304.359375 175.785156 C 302.453125 173.871094 301.289062 171.273438 301.285156 168.359375 C 301.289062 165.445312 302.453125 162.851562 304.359375 160.933594 C 306.277344 159.027344 308.871094 157.863281 311.785156 157.859375 C 314.699219 157.863281 317.292969 159.027344 319.210938 160.933594 C 321.117188 162.851562 322.28125 165.445312 322.285156 168.359375 C 322.28125 171.273438 321.117188 173.871094 319.210938 175.785156 Z M 319.210938 175.785156 " fill-opacity="1" fill-rule="nonzero"/></g></g></g></svg>