<svg xmlns="http://www.w3.org/2000/svg" xmlns:xlink="http://www.w3.org/1999/xlink" width="500" zoomAndPan="magnify" viewBox="0 0 375 374.999991" height="500" preserveAspectRatio="xMidYMid meet" version="1.0"><defs><clipPath id="2638e61612"><path d="M 44.476562 44.476562 L 330.523438 44.476562 L 330.523438 330.523438 L 44.476562 330.523438 Z M 44.476562 44.476562 " clip-rule="nonzero"/></clipPath><clipPath id="0d3c38dec7"><path d="M 187.5 44.476562 C 108.507812 44.476562 44.476562 108.507812 44.476562 187.5 C 44.476562 266.492188 108.507812 330.523438 187.5 330.523438 C 266.492188 330.523438 330.523438 266.492188 330.523438 187.5 C 330.523438 108.507812 266.492188 44.476562 187.5 44.476562 Z M 187.5 44.476562 " clip-rule="nonzero"/></clipPath><clipPath id="b7904e9d37"><path d="M 0.476562 0.476562 L 286.523438 0.476562 L 286.523438 286.523438 L 0.476562 286.523438 Z M 0.476562 0.476562 " clip-rule="nonzero"/></clipPath><clipPath id="731357991c"><path d="M 143.5 0.476562 C 64.507812 0.476562 0.476562 64.507812 0.476562 143.5 C 0.476562 222.492188 64.507812 286.523438 143.5 286.523438 C 222.492188 286.523438 286.523438 222.492188 286.523438 143.5 C 286.523438 64.507812 222.492188 0.476562 143.5 0.476562 Z M 143.5 0.476562 " clip-rule="nonzero"/></clipPath><clipPath id="de9037684e"><rect x="0" width="287" y="0" height="287"/></clipPath><clipPath id="eaa966cda4"><path d="M 0.886719 1.148438 L 108.269531 1.148438 L 108.269531 213.882812 L 0.886719 213.882812 Z M 0.886719 1.148438 " clip-rule="nonzero"/></clipPath><clipPath id="e197534ed8"><path d="M 112 94 L 209.667969 94 L 209.667969 121 L 112 121 Z M 112 94 " clip-rule="nonzero"/></clipPath><clipPath id="5f9d3aa510"><rect x="0" width="214" y="0" height="215"/></clipPath></defs><g clip-path="url(#2638e61612)"><g clip-path="url(#0d3c38dec7)"><g transform="matrix(1, 0, 0, 1, 44, 44)"><g clip-path="url(#de9037684e)"><g clip-path="url(#b7904e9d37)"><g clip-path="url(#731357991c)"><path fill="#f4f4f4" d="M 0.476562 0.476562 L 286.523438 0.476562 L 286.523438 286.523438 L 0.476562 286.523438 Z M 0.476562 0.476562 " fill-opacity="1" fill-rule="nonzero"/></g></g></g></g></g></g><g transform="matrix(1, 0, 0, 1, 82, 80)"><g clip-path="url(#5f9d3aa510)"><g clip-path="url(#eaa966cda4)"><path fill="#5e17eb" d="M 107.144531 94.472656 C 99.980469 94.472656 94.039062 100.238281 94.039062 107.40625 C 94.039062 114.570312 99.980469 120.335938 107.144531 120.335938 C 114.308594 120.335938 120.25 114.570312 120.25 107.40625 C 120.25 100.238281 114.308594 94.472656 107.144531 94.472656 Z M 107.144531 113.347656 C 103.824219 113.347656 101.027344 110.726562 101.027344 107.40625 C 101.027344 104.085938 103.824219 101.464844 107.144531 101.464844 C 110.464844 101.464844 113.261719 104.085938 113.261719 107.40625 C 113.261719 110.726562 110.464844 113.347656 107.144531 113.347656 Z M 155.03125 80.492188 C 151.011719 73.5 140.699219 71.402344 127.417969 73.851562 C 122.875 61.441406 115.882812 53.578125 107.667969 53.578125 C 99.453125 53.578125 92.464844 61.265625 87.921875 73.851562 C 74.8125 71.402344 64.5 73.5 60.308594 80.492188 C 58.386719 83.636719 58.035156 87.65625 59.257812 92.027344 C 60.480469 96.746094 63.804688 102.160156 68.347656 107.40625 C 63.804688 112.648438 60.480469 117.890625 59.257812 122.785156 C 58.035156 127.152344 58.386719 131.171875 60.308594 134.320312 C 63.277344 139.5625 69.746094 142.007812 78.132812 142.007812 C 81.105469 142.007812 84.425781 141.660156 87.921875 141.132812 C 92.464844 153.542969 99.453125 161.40625 107.667969 161.40625 C 115.882812 161.40625 122.875 153.71875 127.417969 141.132812 C 130.914062 141.832031 134.058594 142.007812 137.203125 142.007812 C 145.59375 142.007812 152.058594 139.5625 155.03125 134.320312 C 156.953125 131.171875 157.300781 127.152344 156.078125 122.785156 C 154.855469 118.066406 151.535156 112.648438 146.992188 107.40625 C 151.535156 102.160156 154.855469 96.917969 156.078125 92.027344 C 157.300781 87.65625 156.953125 83.636719 155.03125 80.492188 Z M 107.84375 60.566406 C 112.386719 60.566406 117.105469 65.984375 120.601562 75.421875 C 116.582031 76.644531 112.210938 78.042969 107.84375 79.96875 C 103.472656 78.042969 99.105469 76.472656 95.085938 75.421875 C 98.582031 65.984375 103.300781 60.566406 107.84375 60.566406 Z M 125.667969 107.40625 C 125.667969 110.898438 125.496094 114.046875 125.320312 117.191406 C 122.699219 119.113281 119.726562 120.863281 116.757812 122.609375 C 113.785156 124.355469 110.640625 125.929688 107.84375 127.152344 C 104.871094 125.753906 101.902344 124.183594 98.929688 122.609375 C 95.960938 120.863281 93.164062 119.113281 90.367188 117.191406 C 90.015625 114.046875 90.015625 110.726562 90.015625 107.40625 C 90.015625 104.085938 90.191406 100.765625 90.367188 97.617188 C 92.988281 95.695312 95.960938 93.949219 98.929688 92.199219 C 101.902344 90.453125 104.871094 88.878906 107.84375 87.65625 C 110.816406 89.054688 113.785156 90.453125 116.757812 92.199219 C 119.726562 93.949219 122.523438 95.695312 125.320312 97.617188 C 125.496094 100.765625 125.667969 103.910156 125.667969 107.40625 Z M 132.660156 103.035156 C 134.40625 104.433594 135.980469 105.832031 137.554688 107.40625 C 135.980469 108.804688 134.40625 110.375 132.660156 111.773438 C 132.660156 110.375 132.660156 108.976562 132.660156 107.40625 C 132.660156 105.832031 132.660156 104.433594 132.660156 103.035156 Z M 124.097656 126.453125 C 123.746094 128.726562 123.222656 130.824219 122.699219 132.746094 C 120.601562 132.222656 118.503906 131.523438 116.40625 130.824219 C 117.628906 130.125 118.855469 129.425781 120.25 128.726562 C 121.476562 127.851562 122.875 127.152344 124.097656 126.453125 Z M 99.28125 130.824219 C 97.183594 131.523438 95.085938 132.222656 92.988281 132.746094 C 92.464844 130.824219 91.941406 128.550781 91.589844 126.453125 C 92.8125 127.152344 94.210938 128.027344 95.433594 128.726562 C 96.660156 129.425781 97.882812 130.125 99.28125 130.824219 Z M 83.027344 111.773438 C 81.277344 110.375 79.707031 108.976562 78.132812 107.40625 C 79.707031 106.007812 81.277344 104.433594 83.027344 103.035156 C 83.027344 104.433594 83.027344 105.832031 83.027344 107.40625 C 83.027344 108.976562 83.027344 110.375 83.027344 111.773438 Z M 91.589844 88.355469 C 91.941406 86.082031 92.464844 83.988281 92.988281 82.0625 C 95.085938 82.589844 97.183594 83.289062 99.28125 83.988281 C 98.058594 84.683594 96.832031 85.382812 95.433594 86.082031 C 94.039062 86.957031 92.8125 87.65625 91.589844 88.355469 Z M 120.25 86.082031 C 119.027344 85.382812 117.804688 84.683594 116.40625 83.988281 C 118.503906 83.289062 120.601562 82.589844 122.699219 82.0625 C 123.222656 83.988281 123.746094 86.257812 124.097656 88.355469 C 122.875 87.65625 121.476562 86.957031 120.25 86.082031 Z M 66.597656 83.988281 C 68.171875 81.191406 72.367188 79.792969 78.132812 79.792969 C 80.582031 79.792969 83.203125 79.96875 85.996094 80.492188 C 84.949219 84.511719 84.074219 89.054688 83.550781 93.773438 C 79.707031 96.570312 76.210938 99.539062 73.238281 102.335938 C 69.570312 98.140625 67.125 93.949219 66.074219 90.277344 C 65.550781 87.65625 65.726562 85.558594 66.597656 83.988281 Z M 66.597656 130.824219 C 65.726562 129.25 65.550781 127.152344 66.25 124.53125 C 67.296875 120.863281 69.746094 116.667969 73.414062 112.472656 C 76.5625 115.445312 79.882812 118.242188 83.726562 121.035156 C 84.25 125.753906 85.125 130.125 86.171875 134.320312 C 76.035156 136.066406 68.871094 134.667969 66.597656 130.824219 Z M 107.84375 154.242188 C 103.300781 154.242188 98.582031 148.824219 95.085938 139.386719 C 99.105469 138.164062 103.472656 136.765625 107.84375 134.84375 C 112.210938 136.765625 116.582031 138.339844 120.601562 139.386719 C 117.105469 148.824219 112.386719 154.242188 107.84375 154.242188 Z M 149.089844 130.824219 C 146.816406 134.667969 139.652344 136.066406 129.515625 134.320312 C 130.5625 130.300781 131.4375 125.753906 131.960938 121.035156 C 135.804688 118.242188 139.300781 115.269531 142.273438 112.472656 C 145.941406 116.667969 148.390625 120.863281 149.4375 124.53125 C 150.136719 127.152344 149.960938 129.25 149.089844 130.824219 Z M 149.4375 90.277344 C 148.390625 93.949219 145.941406 98.140625 142.273438 102.335938 C 139.125 99.367188 135.804688 96.570312 131.960938 93.773438 C 131.4375 89.054688 130.5625 84.683594 129.515625 80.492188 C 132.3125 79.96875 135.105469 79.792969 137.378906 79.792969 C 143.320312 79.792969 147.339844 81.191406 148.914062 83.988281 C 149.960938 85.558594 150.136719 87.65625 149.4375 90.277344 Z M 213.578125 58.996094 L 213.578125 52.003906 L 199.945312 52.003906 L 199.945312 45.015625 C 199.945312 43.089844 198.371094 41.519531 196.449219 41.519531 L 187.886719 41.519531 C 186.3125 34.179688 180.546875 28.410156 173.207031 26.839844 L 173.207031 18.273438 C 173.207031 16.351562 171.632812 14.78125 169.710938 14.78125 L 162.71875 14.78125 L 162.71875 1.148438 L 155.730469 1.148438 L 155.730469 14.78125 L 136.679688 14.78125 L 136.679688 1.148438 L 129.6875 1.148438 L 129.6875 14.78125 L 110.640625 14.78125 L 110.640625 1.148438 L 103.648438 1.148438 L 103.648438 14.78125 L 84.601562 14.78125 L 84.601562 1.148438 L 77.609375 1.148438 L 77.609375 14.78125 L 58.734375 14.78125 L 58.734375 1.148438 L 51.742188 1.148438 L 51.742188 14.78125 L 44.753906 14.78125 C 42.832031 14.78125 41.257812 16.351562 41.257812 18.273438 L 41.257812 26.839844 C 33.917969 28.410156 28.152344 34.179688 26.578125 41.519531 L 18.015625 41.519531 C 16.09375 41.519531 14.519531 43.089844 14.519531 45.015625 L 14.519531 52.003906 L 0.886719 52.003906 L 0.886719 58.996094 L 14.519531 58.996094 L 14.519531 78.042969 L 0.886719 78.042969 L 0.886719 85.035156 L 14.519531 85.035156 L 14.519531 103.910156 L 0.886719 103.910156 L 0.886719 110.898438 L 14.519531 110.898438 L 14.519531 129.949219 L 0.886719 129.949219 L 0.886719 136.941406 L 14.519531 136.941406 L 14.519531 155.988281 L 0.886719 155.988281 L 0.886719 162.980469 L 14.519531 162.980469 L 14.519531 169.972656 C 14.519531 171.894531 16.09375 173.464844 18.015625 173.464844 L 26.578125 173.464844 C 28.152344 180.804688 33.917969 186.574219 41.257812 188.144531 L 41.257812 196.710938 C 41.257812 198.632812 42.832031 200.207031 44.753906 200.207031 L 51.742188 200.207031 L 51.742188 213.835938 L 58.734375 213.835938 L 58.734375 200.207031 L 77.785156 200.207031 L 77.785156 213.835938 L 84.773438 213.835938 L 84.773438 200.207031 L 103.648438 200.207031 L 103.648438 213.835938 L 110.640625 213.835938 L 110.640625 200.207031 L 129.6875 200.207031 L 129.6875 213.835938 L 136.679688 213.835938 L 136.679688 200.207031 L 155.730469 200.207031 L 155.730469 213.835938 L 162.71875 213.835938 L 162.71875 200.207031 L 169.710938 200.207031 C 171.632812 200.207031 173.207031 198.632812 173.207031 196.710938 L 173.207031 188.144531 C 180.546875 186.574219 186.3125 180.804688 187.886719 173.464844 L 196.449219 173.464844 C 198.371094 173.464844 199.945312 171.894531 199.945312 169.972656 L 199.945312 162.980469 L 213.578125 162.980469 L 213.578125 155.988281 L 199.945312 155.988281 L 199.945312 136.941406 L 213.578125 136.941406 L 213.578125 129.949219 L 199.945312 129.949219 L 199.945312 110.898438 L 213.578125 110.898438 L 213.578125 103.910156 L 199.945312 103.910156 L 199.945312 84.859375 L 213.578125 84.859375 L 213.578125 77.871094 L 199.945312 77.871094 L 199.945312 58.996094 Z M 48.074219 21.59375 L 166.039062 21.59375 L 166.039062 26.140625 L 48.074219 26.140625 Z M 21.335938 48.335938 L 25.878906 48.335938 L 25.878906 166.300781 L 21.335938 166.300781 Z M 166.214844 193.214844 L 48.074219 193.214844 L 48.074219 188.671875 L 166.039062 188.671875 L 166.039062 193.214844 Z M 168.835938 181.679688 L 45.453125 181.679688 C 38.460938 181.679688 32.871094 176.085938 32.871094 169.097656 L 32.871094 45.714844 C 32.871094 38.722656 38.460938 33.128906 45.453125 33.128906 L 168.835938 33.128906 C 175.828125 33.128906 181.417969 38.722656 181.417969 45.714844 L 181.417969 169.097656 C 181.417969 175.914062 175.652344 181.679688 168.835938 181.679688 Z M 192.953125 166.476562 L 188.410156 166.476562 L 188.410156 48.335938 L 192.953125 48.335938 Z M 192.953125 166.476562 " fill-opacity="1" fill-rule="nonzero"/></g><path fill="#5e17eb" d="M 173.566406 168.148438 C 170.054688 168.148438 166.84375 169.582031 164.546875 171.882812 C 162.933594 173.492188 161.761719 175.554688 161.195312 177.84375 L 116.019531 177.84375 C 114.328125 177.84375 112.957031 179.214844 112.957031 180.90625 C 112.957031 182.59375 114.328125 183.964844 116.019531 183.964844 L 161.195312 183.964844 C 161.761719 186.257812 162.933594 188.316406 164.546875 189.925781 C 166.84375 192.230469 170.054688 193.664062 173.566406 193.660156 C 177.078125 193.664062 180.285156 192.226562 182.585938 189.925781 C 184.890625 187.625 186.324219 184.417969 186.320312 180.90625 C 186.324219 177.390625 184.890625 174.183594 182.585938 171.882812 C 180.285156 169.582031 177.078125 168.144531 173.566406 168.148438 Z M 178.257812 185.597656 C 177.046875 186.804688 175.410156 187.539062 173.566406 187.542969 C 171.722656 187.539062 170.082031 186.804688 168.871094 185.597656 C 167.664062 184.386719 166.929688 182.746094 166.925781 180.902344 C 166.929688 179.0625 167.664062 177.421875 168.871094 176.210938 C 170.082031 175.003906 171.722656 174.269531 173.566406 174.265625 C 175.410156 174.269531 177.046875 175.003906 178.257812 176.210938 C 179.464844 177.421875 180.203125 179.0625 180.203125 180.902344 C 180.203125 182.746094 179.464844 184.386719 178.257812 185.597656 Z M 178.257812 185.597656 " fill-opacity="1" fill-rule="nonzero"/><path fill="#5e17eb" d="M 116.019531 37.699219 L 161.195312 37.699219 C 161.761719 39.992188 162.933594 42.050781 164.546875 43.660156 C 166.84375 45.964844 170.054688 47.398438 173.566406 47.394531 C 177.078125 47.398438 180.285156 45.964844 182.585938 43.660156 C 184.890625 41.359375 186.324219 38.152344 186.320312 34.640625 C 186.324219 31.128906 184.890625 27.917969 182.585938 25.621094 C 180.285156 23.316406 177.078125 21.882812 173.566406 21.882812 C 170.054688 21.882812 166.84375 23.316406 164.546875 25.621094 C 162.933594 27.230469 161.761719 29.289062 161.195312 31.582031 L 116.019531 31.582031 C 114.328125 31.582031 112.957031 32.949219 112.957031 34.640625 C 112.957031 36.328125 114.328125 37.699219 116.019531 37.699219 Z M 168.871094 29.945312 C 170.082031 28.738281 171.722656 28.003906 173.566406 28 C 175.410156 28.003906 177.046875 28.738281 178.257812 29.945312 C 179.464844 31.15625 180.203125 32.796875 180.203125 34.640625 C 180.203125 36.480469 179.464844 38.121094 178.257812 39.332031 C 177.046875 40.539062 175.410156 41.277344 173.566406 41.277344 C 171.722656 41.277344 170.082031 40.539062 168.871094 39.332031 C 167.664062 38.121094 166.929688 36.480469 166.925781 34.640625 C 166.929688 32.796875 167.664062 31.15625 168.871094 29.945312 Z M 168.871094 29.945312 " fill-opacity="1" fill-rule="nonzero"/><path fill="#5e17eb" d="M 177.953125 129.820312 C 174.4375 129.820312 171.230469 131.253906 168.933594 133.558594 C 167.320312 135.167969 166.148438 137.226562 165.582031 139.519531 L 138.183594 139.519531 C 137.011719 139.519531 135.933594 140.195312 135.425781 141.25 L 129.039062 154.519531 L 128.871094 154.871094 L 116.019531 154.871094 C 114.328125 154.871094 112.960938 156.242188 112.960938 157.929688 C 112.960938 159.621094 114.328125 160.988281 116.019531 160.988281 L 130.792969 160.988281 C 131.964844 160.988281 133.042969 160.3125 133.550781 159.257812 L 136.808594 152.488281 L 140.105469 145.636719 L 165.582031 145.636719 C 166.148438 147.929688 167.320312 149.988281 168.933594 151.597656 C 171.230469 153.902344 174.4375 155.335938 177.953125 155.335938 C 181.464844 155.335938 184.671875 153.902344 186.972656 151.597656 C 189.277344 149.300781 190.710938 146.089844 190.707031 142.578125 C 190.710938 139.066406 189.277344 135.855469 186.972656 133.558594 C 184.671875 131.253906 181.464844 129.820312 177.953125 129.820312 Z M 182.644531 147.269531 C 181.433594 148.476562 179.796875 149.214844 177.953125 149.214844 C 176.109375 149.214844 174.46875 148.476562 173.257812 147.269531 C 172.050781 146.058594 171.316406 144.421875 171.3125 142.578125 C 171.316406 140.734375 172.050781 139.09375 173.257812 137.882812 C 174.46875 136.679688 176.109375 135.941406 177.953125 135.941406 C 179.796875 135.941406 181.433594 136.679688 182.644531 137.882812 C 183.851562 139.09375 184.589844 140.734375 184.589844 142.578125 C 184.589844 144.421875 183.851562 146.058594 182.644531 147.269531 Z M 182.644531 147.269531 " fill-opacity="1" fill-rule="nonzero"/><path fill="#5e17eb" d="M 116.019531 60.113281 L 128.871094 60.113281 L 129.039062 60.460938 L 135.425781 73.730469 C 135.933594 74.785156 137.011719 75.464844 138.183594 75.464844 L 165.582031 75.464844 C 166.148438 77.757812 167.320312 79.816406 168.933594 81.425781 C 171.230469 83.730469 174.4375 85.164062 177.953125 85.160156 C 181.464844 85.164062 184.671875 83.730469 186.972656 81.425781 C 189.277344 79.128906 190.710938 75.917969 190.707031 72.40625 C 190.710938 68.894531 189.277344 65.683594 186.972656 63.386719 C 184.671875 61.082031 181.464844 59.648438 177.953125 59.648438 C 174.4375 59.648438 171.230469 61.082031 168.933594 63.386719 C 167.320312 64.996094 166.148438 67.054688 165.582031 69.347656 L 140.105469 69.347656 L 136.808594 62.496094 L 133.550781 55.726562 C 133.042969 54.671875 131.964844 53.996094 130.792969 53.996094 L 116.015625 53.996094 C 114.328125 53.996094 112.957031 55.363281 112.957031 57.054688 C 112.957031 58.742188 114.328125 60.113281 116.019531 60.113281 Z M 177.953125 65.765625 C 179.796875 65.769531 181.433594 66.503906 182.644531 67.710938 C 183.851562 68.921875 184.589844 70.5625 184.589844 72.40625 C 184.589844 74.25 183.851562 75.886719 182.644531 77.097656 C 181.433594 78.304688 179.796875 79.042969 177.953125 79.042969 C 176.109375 79.042969 174.46875 78.304688 173.257812 77.097656 C 172.050781 75.886719 171.316406 74.25 171.3125 72.40625 C 171.316406 70.5625 172.050781 68.921875 173.257812 67.710938 C 174.46875 66.503906 176.109375 65.769531 177.953125 65.765625 Z M 177.953125 65.765625 " fill-opacity="1" fill-rule="nonzero"/><g clip-path="url(#e197534ed8)"><path fill="#5e17eb" d="M 206.367188 98.472656 C 204.066406 96.167969 200.859375 94.734375 197.347656 94.734375 C 193.832031 94.734375 190.625 96.167969 188.328125 98.472656 C 186.714844 100.078125 185.542969 102.140625 184.976562 104.433594 L 116.015625 104.433594 C 114.328125 104.433594 112.957031 105.800781 112.957031 107.492188 C 112.957031 109.179688 114.328125 110.550781 116.015625 110.550781 L 184.976562 110.550781 C 185.542969 112.84375 186.714844 114.902344 188.328125 116.511719 C 190.625 118.816406 193.832031 120.25 197.347656 120.246094 C 200.859375 120.25 204.066406 118.816406 206.367188 116.511719 C 208.671875 114.214844 210.105469 111.003906 210.101562 107.492188 C 210.105469 103.976562 208.671875 100.769531 206.367188 98.472656 Z M 202.039062 112.183594 C 200.828125 113.390625 199.1875 114.128906 197.347656 114.128906 C 195.503906 114.128906 193.863281 113.390625 192.652344 112.183594 C 191.445312 110.972656 190.710938 109.335938 190.707031 107.492188 C 190.710938 105.648438 191.445312 104.007812 192.652344 102.796875 C 193.863281 101.589844 195.503906 100.855469 197.347656 100.851562 C 199.1875 100.855469 200.828125 101.589844 202.039062 102.796875 C 203.246094 104.007812 203.984375 105.648438 203.984375 107.492188 C 203.984375 109.335938 203.246094 110.972656 202.039062 112.183594 Z M 202.039062 112.183594 " fill-opacity="1" fill-rule="nonzero"/></g></g></g></svg>