<svg xmlns="http://www.w3.org/2000/svg" xmlns:xlink="http://www.w3.org/1999/xlink" width="500" zoomAndPan="magnify" viewBox="0 0 375 374.999991" height="500" preserveAspectRatio="xMidYMid meet" version="1.0"><defs><clipPath id="3877c7ac63"><path d="M 1.019531 1.144531 L 170.878906 1.144531 L 170.878906 337.65625 L 1.019531 337.65625 Z M 1.019531 1.144531 " clip-rule="nonzero"/></clipPath><clipPath id="b5079e4a78"><path d="M 178 149 L 331.277344 149 L 331.277344 190 L 178 190 Z M 178 149 " clip-rule="nonzero"/></clipPath><clipPath id="f6acc36a84"><rect x="0" width="338" y="0" height="338"/></clipPath></defs><g transform="matrix(1, 0, 0, 1, 21, 23)"><g clip-path="url(#f6acc36a84)"><g clip-path="url(#3877c7ac63)"><path fill="#5e17eb" d="M 169.101562 148.765625 C 157.765625 148.765625 148.367188 157.890625 148.367188 169.222656 C 148.367188 180.558594 157.765625 189.679688 169.101562 189.679688 C 180.4375 189.679688 189.835938 180.558594 189.835938 169.222656 C 189.835938 157.890625 180.4375 148.765625 169.101562 148.765625 Z M 169.101562 178.625 C 163.847656 178.625 159.425781 174.476562 159.425781 169.222656 C 159.425781 163.972656 163.847656 159.824219 169.101562 159.824219 C 174.355469 159.824219 178.777344 163.972656 178.777344 169.222656 C 178.777344 174.476562 174.355469 178.625 169.101562 178.625 Z M 244.847656 126.652344 C 238.488281 115.59375 222.179688 112.277344 201.167969 116.144531 C 193.980469 96.519531 182.921875 84.078125 169.929688 84.078125 C 156.9375 84.078125 145.878906 96.242188 138.691406 116.144531 C 117.957031 112.277344 101.648438 115.59375 95.011719 126.652344 C 91.972656 131.625 91.417969 137.984375 93.355469 144.894531 C 95.289062 152.359375 100.542969 160.929688 107.730469 169.222656 C 100.542969 177.515625 95.289062 185.8125 93.355469 193.550781 C 91.417969 200.460938 91.972656 206.820312 95.011719 211.796875 C 99.710938 220.089844 109.941406 223.960938 123.210938 223.960938 C 127.910156 223.960938 133.164062 223.40625 138.691406 222.578125 C 145.878906 242.207031 156.9375 254.644531 169.929688 254.644531 C 182.921875 254.644531 193.980469 242.484375 201.167969 222.578125 C 206.699219 223.683594 211.675781 223.960938 216.652344 223.960938 C 229.921875 223.960938 240.148438 220.089844 244.847656 211.796875 C 247.890625 206.820312 248.441406 200.460938 246.507812 193.550781 C 244.570312 186.085938 239.320312 177.515625 232.132812 169.222656 C 239.320312 160.929688 244.570312 152.636719 246.507812 144.894531 C 248.441406 137.984375 247.890625 131.625 244.847656 126.652344 Z M 170.207031 95.136719 C 177.394531 95.136719 184.859375 103.707031 190.386719 118.632812 C 184.03125 120.570312 177.117188 122.78125 170.207031 125.820312 C 163.296875 122.78125 156.382812 120.292969 150.027344 118.632812 C 155.554688 103.707031 163.019531 95.136719 170.207031 95.136719 Z M 198.40625 169.222656 C 198.40625 174.753906 198.128906 179.730469 197.851562 184.703125 C 193.707031 187.746094 189.003906 190.511719 184.304688 193.273438 C 179.605469 196.039062 174.628906 198.527344 170.207031 200.460938 C 165.507812 198.25 160.808594 195.761719 156.109375 193.273438 C 151.410156 190.511719 146.984375 187.746094 142.5625 184.703125 C 142.007812 179.730469 142.007812 174.476562 142.007812 169.222656 C 142.007812 163.972656 142.285156 158.71875 142.5625 153.742188 C 146.710938 150.703125 151.410156 147.9375 156.109375 145.171875 C 160.808594 142.410156 165.507812 139.921875 170.207031 137.984375 C 174.90625 140.195312 179.605469 142.410156 184.304688 145.171875 C 189.003906 147.9375 193.429688 150.703125 197.851562 153.742188 C 198.128906 158.71875 198.40625 163.695312 198.40625 169.222656 Z M 209.460938 162.3125 C 212.226562 164.523438 214.714844 166.734375 217.203125 169.222656 C 214.714844 171.433594 212.226562 173.921875 209.460938 176.136719 C 209.460938 173.921875 209.460938 171.710938 209.460938 169.222656 C 209.460938 166.734375 209.460938 164.523438 209.460938 162.3125 Z M 195.917969 199.355469 C 195.363281 202.949219 194.535156 206.269531 193.707031 209.308594 C 190.386719 208.480469 187.070312 207.375 183.753906 206.269531 C 185.6875 205.164062 187.625 204.054688 189.835938 202.949219 C 191.769531 201.566406 193.980469 200.460938 195.917969 199.355469 Z M 156.660156 206.269531 C 153.34375 207.375 150.027344 208.480469 146.710938 209.308594 C 145.878906 206.269531 145.050781 202.675781 144.496094 199.355469 C 146.433594 200.460938 148.644531 201.84375 150.578125 202.949219 C 152.515625 204.054688 154.449219 205.164062 156.660156 206.269531 Z M 130.953125 176.136719 C 128.1875 173.921875 125.699219 171.710938 123.210938 169.222656 C 125.699219 167.011719 128.1875 164.523438 130.953125 162.3125 C 130.953125 164.523438 130.953125 166.734375 130.953125 169.222656 C 130.953125 171.710938 130.953125 173.921875 130.953125 176.136719 Z M 144.496094 139.089844 C 145.050781 135.496094 145.878906 132.179688 146.710938 129.140625 C 150.027344 129.96875 153.34375 131.074219 156.660156 132.179688 C 154.726562 133.285156 152.789062 134.390625 150.578125 135.496094 C 148.367188 136.878906 146.433594 137.984375 144.496094 139.089844 Z M 189.835938 135.496094 C 187.898438 134.390625 185.964844 133.285156 183.753906 132.179688 C 187.070312 131.074219 190.386719 129.96875 193.707031 129.140625 C 194.535156 132.179688 195.363281 135.773438 195.917969 139.089844 C 193.980469 137.984375 191.769531 136.878906 189.835938 135.496094 Z M 104.964844 132.179688 C 107.453125 127.757812 114.089844 125.546875 123.210938 125.546875 C 127.082031 125.546875 131.226562 125.820312 135.652344 126.652344 C 133.992188 133.007812 132.609375 140.195312 131.78125 147.660156 C 125.699219 152.085938 120.167969 156.785156 115.46875 161.207031 C 109.664062 154.570312 105.792969 147.9375 104.136719 142.132812 C 103.304688 137.984375 103.582031 134.667969 104.964844 132.179688 Z M 104.964844 206.269531 C 103.582031 203.78125 103.304688 200.460938 104.414062 196.316406 C 106.070312 190.511719 109.941406 183.875 115.746094 177.242188 C 120.722656 181.941406 125.976562 186.363281 132.058594 190.785156 C 132.886719 198.25 134.269531 205.164062 135.925781 211.796875 C 119.894531 214.5625 108.558594 212.351562 104.964844 206.269531 Z M 170.207031 243.3125 C 163.019531 243.3125 155.554688 234.742188 150.027344 219.8125 C 156.382812 217.878906 163.296875 215.667969 170.207031 212.625 C 177.117188 215.667969 184.03125 218.15625 190.386719 219.8125 C 184.859375 234.742188 177.394531 243.3125 170.207031 243.3125 Z M 235.449219 206.269531 C 231.855469 212.351562 220.519531 214.5625 204.488281 211.796875 C 206.144531 205.4375 207.527344 198.25 208.355469 190.785156 C 214.4375 186.363281 219.96875 181.664062 224.667969 177.242188 C 230.472656 183.875 234.34375 190.511719 236 196.316406 C 237.109375 200.460938 236.832031 203.78125 235.449219 206.269531 Z M 236 142.132812 C 234.34375 147.9375 230.472656 154.570312 224.667969 161.207031 C 219.691406 156.507812 214.4375 152.085938 208.355469 147.660156 C 207.527344 140.195312 206.144531 133.285156 204.488281 126.652344 C 208.910156 125.820312 213.332031 125.546875 216.925781 125.546875 C 226.324219 125.546875 232.683594 127.757812 235.171875 132.179688 C 236.832031 134.667969 237.109375 137.984375 236 142.132812 Z M 337.457031 92.648438 L 337.457031 81.589844 L 315.894531 81.589844 L 315.894531 70.53125 C 315.894531 67.492188 313.40625 65.003906 310.367188 65.003906 L 296.820312 65.003906 C 294.332031 53.390625 285.210938 44.269531 273.597656 41.78125 L 273.597656 28.234375 C 273.597656 25.195312 271.109375 22.707031 268.070312 22.707031 L 257.011719 22.707031 L 257.011719 1.144531 L 245.953125 1.144531 L 245.953125 22.707031 L 215.820312 22.707031 L 215.820312 1.144531 L 204.761719 1.144531 L 204.761719 22.707031 L 174.628906 22.707031 L 174.628906 1.144531 L 163.574219 1.144531 L 163.574219 22.707031 L 133.4375 22.707031 L 133.4375 1.144531 L 122.382812 1.144531 L 122.382812 22.707031 L 92.523438 22.707031 L 92.523438 1.144531 L 81.46875 1.144531 L 81.46875 22.707031 L 70.410156 22.707031 C 67.367188 22.707031 64.878906 25.195312 64.878906 28.234375 L 64.878906 41.78125 C 53.269531 44.269531 44.148438 53.390625 41.660156 65.003906 L 28.113281 65.003906 C 25.070312 65.003906 22.582031 67.492188 22.582031 70.53125 L 22.582031 81.589844 L 1.019531 81.589844 L 1.019531 92.648438 L 22.582031 92.648438 L 22.582031 122.78125 L 1.019531 122.78125 L 1.019531 133.839844 L 22.582031 133.839844 L 22.582031 163.695312 L 1.019531 163.695312 L 1.019531 174.753906 L 22.582031 174.753906 L 22.582031 204.886719 L 1.019531 204.886719 L 1.019531 215.945312 L 22.582031 215.945312 L 22.582031 246.078125 L 1.019531 246.078125 L 1.019531 257.132812 L 22.582031 257.132812 L 22.582031 268.191406 C 22.582031 271.234375 25.070312 273.722656 28.113281 273.722656 L 41.660156 273.722656 C 44.148438 285.332031 53.269531 294.453125 64.878906 296.941406 L 64.878906 310.488281 C 64.878906 313.53125 67.367188 316.019531 70.410156 316.019531 L 81.46875 316.019531 L 81.46875 337.582031 L 92.523438 337.582031 L 92.523438 316.019531 L 122.65625 316.019531 L 122.65625 337.582031 L 133.714844 337.582031 L 133.714844 316.019531 L 163.574219 316.019531 L 163.574219 337.582031 L 174.628906 337.582031 L 174.628906 316.019531 L 204.761719 316.019531 L 204.761719 337.582031 L 215.820312 337.582031 L 215.820312 316.019531 L 245.953125 316.019531 L 245.953125 337.582031 L 257.011719 337.582031 L 257.011719 316.019531 L 268.070312 316.019531 C 271.109375 316.019531 273.597656 313.53125 273.597656 310.488281 L 273.597656 296.941406 C 285.210938 294.453125 294.332031 285.332031 296.820312 273.722656 L 310.367188 273.722656 C 313.40625 273.722656 315.894531 271.234375 315.894531 268.191406 L 315.894531 257.132812 L 337.457031 257.132812 L 337.457031 246.078125 L 315.894531 246.078125 L 315.894531 215.945312 L 337.457031 215.945312 L 337.457031 204.886719 L 315.894531 204.886719 L 315.894531 174.753906 L 337.457031 174.753906 L 337.457031 163.695312 L 315.894531 163.695312 L 315.894531 133.5625 L 337.457031 133.5625 L 337.457031 122.503906 L 315.894531 122.503906 L 315.894531 92.648438 Z M 75.660156 33.488281 L 262.265625 33.488281 L 262.265625 40.675781 L 75.660156 40.675781 Z M 33.363281 75.785156 L 40.554688 75.785156 L 40.554688 262.386719 L 33.363281 262.386719 Z M 262.539062 304.960938 L 75.660156 304.960938 L 75.660156 297.773438 L 262.265625 297.773438 L 262.265625 304.960938 Z M 266.6875 286.714844 L 71.515625 286.714844 C 60.457031 286.714844 51.609375 277.867188 51.609375 266.808594 L 51.609375 71.636719 C 51.609375 60.578125 60.457031 51.734375 71.515625 51.734375 L 266.6875 51.734375 C 277.746094 51.734375 286.59375 60.578125 286.59375 71.636719 L 286.59375 266.808594 C 286.59375 277.589844 277.46875 286.714844 266.6875 286.714844 Z M 304.835938 262.664062 L 297.648438 262.664062 L 297.648438 75.785156 L 304.835938 75.785156 Z M 304.835938 262.664062 " fill-opacity="1" fill-rule="nonzero"/></g><path fill="#5e17eb" d="M 274.167969 265.308594 C 268.613281 265.308594 263.535156 267.574219 259.898438 271.21875 C 257.347656 273.765625 255.496094 277.023438 254.601562 280.648438 L 183.136719 280.648438 C 180.464844 280.648438 178.296875 282.816406 178.296875 285.488281 C 178.296875 288.160156 180.464844 290.328125 183.136719 290.328125 L 254.601562 290.328125 C 255.496094 293.953125 257.351562 297.210938 259.898438 299.757812 C 263.535156 303.402344 268.613281 305.667969 274.167969 305.664062 C 279.726562 305.667969 284.800781 303.398438 288.4375 299.757812 C 292.082031 296.121094 294.347656 291.042969 294.347656 285.488281 C 294.347656 279.929688 292.082031 274.855469 288.4375 271.21875 C 284.800781 267.574219 279.726562 265.308594 274.167969 265.308594 Z M 281.59375 292.910156 C 279.675781 294.820312 277.082031 295.984375 274.167969 295.988281 C 271.253906 295.984375 268.660156 294.820312 266.742188 292.910156 C 264.835938 290.996094 263.671875 288.402344 263.667969 285.488281 C 263.671875 282.570312 264.835938 279.976562 266.742188 278.0625 C 268.660156 276.15625 271.253906 274.988281 274.167969 274.988281 C 277.082031 274.988281 279.675781 276.15625 281.59375 278.0625 C 283.5 279.976562 284.664062 282.570312 284.667969 285.488281 C 284.664062 288.402344 283.5 290.996094 281.59375 292.910156 Z M 281.59375 292.910156 " fill-opacity="1" fill-rule="nonzero"/><path fill="#5e17eb" d="M 183.136719 58.960938 L 254.601562 58.960938 C 255.496094 62.585938 257.351562 65.84375 259.898438 68.390625 C 263.535156 72.035156 268.613281 74.300781 274.167969 74.300781 C 279.726562 74.300781 284.800781 72.035156 288.4375 68.390625 C 292.082031 64.753906 294.347656 59.679688 294.347656 54.121094 C 294.347656 48.566406 292.082031 43.488281 288.4375 39.851562 C 284.800781 36.210938 279.726562 33.941406 274.167969 33.945312 C 268.613281 33.941406 263.535156 36.210938 259.898438 39.855469 C 257.351562 42.398438 255.496094 45.65625 254.601562 49.285156 L 183.136719 49.285156 C 180.464844 49.285156 178.296875 51.449219 178.296875 54.121094 C 178.296875 56.792969 180.464844 58.960938 183.136719 58.960938 Z M 266.742188 46.695312 C 268.660156 44.789062 271.253906 43.625 274.167969 43.621094 C 277.082031 43.625 279.675781 44.789062 281.59375 46.695312 C 283.5 48.613281 284.664062 51.207031 284.667969 54.121094 C 284.664062 57.035156 283.5 59.628906 281.59375 61.546875 C 279.675781 63.453125 277.082031 64.617188 274.167969 64.621094 C 271.253906 64.617188 268.660156 63.453125 266.742188 61.546875 C 264.835938 59.628906 263.671875 57.035156 263.667969 54.121094 C 263.671875 51.207031 264.835938 48.613281 266.742188 46.695312 Z M 266.742188 46.695312 " fill-opacity="1" fill-rule="nonzero"/><path fill="#5e17eb" d="M 281.105469 204.683594 C 275.550781 204.679688 270.476562 206.949219 266.839844 210.59375 C 264.289062 213.136719 262.433594 216.398438 261.539062 220.023438 L 218.199219 220.023438 C 216.347656 220.023438 214.640625 221.09375 213.835938 222.761719 L 203.734375 243.753906 L 203.46875 244.308594 L 183.136719 244.308594 C 180.464844 244.308594 178.300781 246.472656 178.300781 249.144531 C 178.300781 251.820312 180.464844 253.984375 183.136719 253.984375 L 206.511719 253.984375 C 208.363281 253.984375 210.070312 252.914062 210.871094 251.246094 L 216.023438 240.535156 L 221.242188 229.699219 L 261.539062 229.699219 C 262.433594 233.328125 264.289062 236.585938 266.839844 239.128906 C 270.476562 242.773438 275.550781 245.042969 281.105469 245.039062 C 286.664062 245.042969 291.738281 242.773438 295.375 239.128906 C 299.019531 235.492188 301.289062 230.417969 301.285156 224.863281 C 301.289062 219.304688 299.019531 214.230469 295.375 210.59375 C 291.738281 206.949219 286.664062 204.679688 281.105469 204.683594 Z M 288.53125 232.285156 C 286.617188 234.191406 284.023438 235.359375 281.105469 235.359375 C 278.191406 235.359375 275.597656 234.191406 273.683594 232.285156 C 271.773438 230.371094 270.609375 227.777344 270.605469 224.859375 C 270.609375 221.945312 271.773438 219.351562 273.683594 217.4375 C 275.597656 215.527344 278.191406 214.363281 281.105469 214.359375 C 284.023438 214.363281 286.617188 215.527344 288.53125 217.4375 C 290.4375 219.351562 291.605469 221.945312 291.605469 224.859375 C 291.605469 227.777344 290.4375 230.371094 288.53125 232.285156 Z M 288.53125 232.285156 " fill-opacity="1" fill-rule="nonzero"/><path fill="#5e17eb" d="M 183.136719 94.414062 L 203.46875 94.414062 L 203.738281 94.96875 L 213.835938 115.960938 C 214.640625 117.628906 216.347656 118.699219 218.199219 118.699219 L 261.539062 118.699219 C 262.433594 122.324219 264.289062 125.582031 266.839844 128.128906 C 270.476562 131.773438 275.550781 134.042969 281.105469 134.039062 C 286.664062 134.042969 291.738281 131.773438 295.375 128.128906 C 299.019531 124.492188 301.289062 119.417969 301.285156 113.863281 C 301.289062 108.304688 299.019531 103.230469 295.375 99.59375 C 291.738281 95.949219 286.664062 93.679688 281.105469 93.683594 C 275.550781 93.679688 270.476562 95.949219 266.839844 99.59375 C 264.289062 102.136719 262.433594 105.398438 261.539062 109.023438 L 221.238281 109.023438 L 216.023438 98.1875 L 210.871094 87.480469 C 210.066406 85.808594 208.363281 84.738281 206.511719 84.738281 L 183.136719 84.738281 C 180.464844 84.738281 178.296875 86.90625 178.296875 89.578125 C 178.296875 92.25 180.464844 94.414062 183.136719 94.414062 Z M 281.105469 103.359375 C 284.023438 103.363281 286.617188 104.527344 288.53125 106.4375 C 290.4375 108.351562 291.605469 110.945312 291.605469 113.859375 C 291.605469 116.777344 290.4375 119.371094 288.53125 121.285156 C 286.617188 123.191406 284.023438 124.359375 281.105469 124.359375 C 278.191406 124.359375 275.597656 123.191406 273.683594 121.285156 C 271.773438 119.371094 270.609375 116.777344 270.605469 113.859375 C 270.609375 110.945312 271.773438 108.351562 273.683594 106.4375 C 275.597656 104.527344 278.191406 103.363281 281.105469 103.359375 Z M 281.105469 103.359375 " fill-opacity="1" fill-rule="nonzero"/><g clip-path="url(#b5079e4a78)"><path fill="#5e17eb" d="M 326.054688 155.09375 C 322.417969 151.449219 317.34375 149.179688 311.785156 149.179688 C 306.230469 149.179688 301.152344 151.449219 297.515625 155.09375 C 294.964844 157.636719 293.113281 160.894531 292.21875 164.523438 L 183.136719 164.523438 C 180.464844 164.523438 178.296875 166.6875 178.296875 169.359375 C 178.296875 172.03125 180.464844 174.199219 183.136719 174.199219 L 292.21875 174.199219 C 293.113281 177.824219 294.964844 181.082031 297.515625 183.628906 C 301.152344 187.273438 306.230469 189.539062 311.785156 189.539062 C 317.34375 189.542969 322.417969 187.273438 326.054688 183.628906 C 329.699219 179.992188 331.964844 174.917969 331.964844 169.359375 C 331.964844 163.804688 329.699219 158.730469 326.054688 155.09375 Z M 319.210938 176.785156 C 317.292969 178.691406 314.699219 179.859375 311.785156 179.859375 C 308.871094 179.859375 306.277344 178.691406 304.359375 176.785156 C 302.453125 174.871094 301.289062 172.273438 301.285156 169.359375 C 301.289062 166.445312 302.453125 163.851562 304.359375 161.933594 C 306.277344 160.027344 308.871094 158.863281 311.785156 158.859375 C 314.699219 158.863281 317.292969 160.027344 319.210938 161.933594 C 321.117188 163.851562 322.28125 166.445312 322.285156 169.359375 C 322.28125 172.273438 321.117188 174.871094 319.210938 176.785156 Z M 319.210938 176.785156 " fill-opacity="1" fill-rule="nonzero"/></g></g></g></svg>