<?xml version="1.0" encoding="utf-8"?>
<svg width="800px" height="800px" viewBox="0 0 32 32" xmlns="http://www.w3.org/2000/svg" xmlns:xlink="http://www.w3.org/1999/xlink">
  <defs>
    <clipPath id="clip-barchart">
      <rect width="32" height="32"/>
    </clipPath>
  </defs>
  <g id="barchart" clip-path="url(#clip-barchart)">
    <g id="Group_1837" data-name="Group 1837" transform="translate(0 -468)">
      <path id="Path_3746" data-name="Path 3746" d="M30.667,497.106H3.894a1,1,0,0,1-1-1V469.333a1,1,0,0,1,2,0v25.773H30.667a1,1,0,0,1,0,2Z"
        fill="#344952"
        fill-opacity="0"
        stroke="#344952"
        stroke-width="0.6"
        stroke-linecap="round"
        stroke-linejoin="round"
        stroke-dasharray="140"
        stroke-dashoffset="140">
        <animate fill="freeze" attributeName="stroke-dashoffset" begin="0.00s" dur="0.55s" to="0" />
        <animate fill="freeze" attributeName="fill-opacity" begin="0.42s" dur="0.13s" to="1" />
      </path>

      <path id="Path_3747" data-name="Path 3747" d="M6.454,473.6a1,1,0,0,1-.787-.383l-1.773-2.262-1.773,2.262a1,1,0,0,1-1.575-1.235l2.56-3.265a1.037,1.037,0,0,1,1.575,0l2.56,3.265a1,1,0,0,1-.787,1.618Z"
        fill="#344952"
        fill-opacity="0"
        stroke="#344952"
        stroke-width="0.55"
        stroke-linecap="round"
        stroke-linejoin="round"
        stroke-dasharray="34"
        stroke-dashoffset="34">
        <animate fill="freeze" attributeName="stroke-dashoffset" begin="0.56s" dur="0.20s" to="0" />
        <animate fill="freeze" attributeName="fill-opacity" begin="0.70s" dur="0.08s" to="1" />
      </path>

      <path id="Path_3748" data-name="Path 3748" d="M27.4,499.667a1,1,0,0,1-.617-1.787l2.262-1.774-2.262-1.773a1,1,0,1,1,1.234-1.574l3.266,2.56a1,1,0,0,1,0,1.575l-3.266,2.56A.994.994,0,0,1,27.4,499.667Z"
        fill="#344952"
        fill-opacity="0"
        stroke="#344952"
        stroke-width="0.55"
        stroke-linecap="round"
        stroke-linejoin="round"
        stroke-dasharray="34"
        stroke-dashoffset="34">
        <animate fill="freeze" attributeName="stroke-dashoffset" begin="0.76s" dur="0.20s" to="0" />
        <animate fill="freeze" attributeName="fill-opacity" begin="0.90s" dur="0.08s" to="1" />
      </path>

      <path id="Path_3749" data-name="Path 3749" d="M10.563,493.962H7.2a1,1,0,0,1-1-1V480.5a1,1,0,0,1,1-1h3.359a1,1,0,0,1,1,1v12.462A1,1,0,0,1,10.563,493.962Zm-2.359-2H9.563V481.5H8.2Z"
        fill="#344952"
        fill-opacity="0"
        stroke="#344952"
        stroke-width="0.6"
        stroke-linecap="round"
        stroke-linejoin="round"
        stroke-dasharray="58"
        stroke-dashoffset="58">
        <animate fill="freeze" attributeName="stroke-dashoffset" begin="0.98s" dur="0.25s" to="0" />
        <animate fill="freeze" attributeName="fill-opacity" begin="1.16s" dur="0.09s" to="1" />
      </path>

      <path id="Path_3750" data-name="Path 3750" d="M17.406,493.962H14.047a1,1,0,0,1-1-1v-15.8a1,1,0,0,1,1-1h3.359a1,1,0,0,1,1,1v15.8A1,1,0,0,1,17.406,493.962Zm-2.359-2h1.359v-13.8H15.047Z"
        fill="#344952"
        fill-opacity="0"
        stroke="#344952"
        stroke-width="0.6"
        stroke-linecap="round"
        stroke-linejoin="round"
        stroke-dasharray="66"
        stroke-dashoffset="66">
        <animate fill="freeze" attributeName="stroke-dashoffset" begin="1.22s" dur="0.26s" to="0" />
        <animate fill="freeze" attributeName="fill-opacity" begin="1.41s" dur="0.09s" to="1" />
      </path>

      <path id="Path_3751" data-name="Path 3751" d="M24.25,493.962H20.891a1,1,0,0,1-1-1v-10a1,1,0,0,1,1-1H24.25a1,1,0,0,1,1,1v10A1,1,0,0,1,24.25,493.962Zm-2.359-2H23.25v-8H21.891Z"
        fill="#344952"
        fill-opacity="0"
        stroke="#344952"
        stroke-width="0.6"
        stroke-linecap="round"
        stroke-linejoin="round"
        stroke-dasharray="52"
        stroke-dashoffset="52">
        <animate fill="freeze" attributeName="stroke-dashoffset" begin="1.47s" dur="0.24s" to="0" />
        <animate fill="freeze" attributeName="fill-opacity" begin="1.64s" dur="0.09s" to="1" />
      </path>
    </g>
  </g>
</svg>
